<svg xmlns="http://www.w3.org/2000/svg" width="116" height="48" fill="none"><path fill="#FF3D00" d="m88.55.651-23.878 12.71v3.147L84.538 7.31v10.258l-19.863 6.087v3.023l23.878-5.769L88.549.651ZM64.656 30.071l.01 2.903L84.53 30.45v12.475l-19.863-1.27v2.876l23.878 3V25.54L64.656 30.07ZM92.453.651v46.877l4.019-.772V8.42l3.279 2.324v35.379l3.255-.63V9.268L92.453.65ZM106.273 44.925l3.337-.628V19.019l2.725 1.89v22.873l2.705-.512V19.708l-8.767-7.004v32.221ZM3.694 24.17h-2.07v2.067h2.127c.821 0 1.233-.354 1.233-1.066 0-.666-.432-1-1.29-1Zm-2.07-1.307h1.965c.845 0 1.27-.315 1.27-.943 0-.66-.402-.987-1.209-.987H1.627l-.003 1.93Zm4.873 2.411a2.062 2.062 0 0 1-.716 1.682 3.17 3.17 0 0 1-2.053.593H.098v-7.92h3.478c.74-.05 1.472.15 2.083.568.49.398.76 1.007.72 1.636.003.344-.098.685-.298.97a1.943 1.943 0 0 1-.844.668c.375.134.703.378.939.7.22.324.33.709.32 1.1M8.98 26.245c-.273-.468-.411-1-.401-1.541v-5.07h1.523v5.023c-.03.451.128.896.442 1.227.348.301.804.455 1.266.425a1.8 1.8 0 0 0 1.28-.425 1.6 1.6 0 0 0 .456-1.227v-5.024h1.526v5.07a2.942 2.942 0 0 1-.402 1.542c-.27.442-.668.796-1.14 1.017a3.938 3.938 0 0 1-1.716.358 3.81 3.81 0 0 1-1.699-.358 2.62 2.62 0 0 1-1.135-1.017ZM18.91 19.63h-1.527v7.916h1.526V19.63ZM23.179 19.63v6.609h4.14v1.307h-5.667V19.63h1.527ZM33.827 25.715c.341-.478.504-1.06.453-1.645v-.893a2.623 2.623 0 0 0-.453-1.706 1.727 1.727 0 0 0-1.394-.535h-1.594v5.301h1.594a1.77 1.77 0 0 0 1.394-.522Zm-1.384-6.09a3.419 3.419 0 0 1 2.482.85c.641.715.959 1.662.878 2.615v.976c.243 1.673-.929 3.225-2.617 3.465-.267.037-.537.04-.804.01h-3.07v-7.913l3.13-.003ZM39.628 19.63h-1.526v7.916h1.526V19.63ZM48.819 27.546h-1.527l-3.711-5.244v5.244h-1.526V19.63h1.526l3.711 5.254V19.63h1.526v7.916ZM51.198 24.194v-1.238c-.223-1.696.986-3.247 2.698-3.468.244-.03.49-.034.733-.007a4.28 4.28 0 0 1 1.699.314c.462.188.857.512 1.134.923.274.429.416.927.402 1.435v.09h-1.526v-.046a1.265 1.265 0 0 0-.453-1.017 1.883 1.883 0 0 0-1.256-.385 1.788 1.788 0 0 0-1.425.546 2.521 2.521 0 0 0-.473 1.682v1.137a2.392 2.392 0 0 0 .473 1.636c.378.374.902.565 1.435.521.463.037.922-.097 1.294-.374.297-.295.449-.703.418-1.117v-.288h-1.759v-1.244h3.269v1.308a2.908 2.908 0 0 1-.865 2.3 4.075 4.075 0 0 1-4.893-.11 3.426 3.426 0 0 1-.905-2.599ZM27.637 38.99h-1.526v-5.013l-1.965 3.489h-1.027l-1.999-3.522v5.047h-1.526v-7.917h1.526l2.512 4.532 2.479-4.532h1.526v7.917ZM31.656 31.074h-1.523v7.917h1.523v-7.917ZM40.835 38.99h-1.523L35.6 33.747v5.245h-1.526v-7.917H35.6l3.712 5.254v-5.254h1.526l-.003 7.917ZM47.777 37.158c.341-.479.503-1.06.453-1.646v-.893a2.624 2.624 0 0 0-.453-1.706 1.724 1.724 0 0 0-1.398-.535h-1.59v5.301h1.593a1.75 1.75 0 0 0 1.395-.521Zm-1.381-6.087a3.419 3.419 0 0 1 2.482.85c.642.715.959 1.662.878 2.615v.976a3.48 3.48 0 0 1-.895 2.622c-.692.606-1.6.913-2.522.857h-3.073v-7.917l3.13-.003ZM51.64 36.579h1.453c.023.368.212.702.52.913.388.21.83.308 1.273.28 1.094 0 1.64-.354 1.64-1.066a.846.846 0 0 0-.327-.72 2.239 2.239 0 0 0-1.07-.327l-.848-.104c-1.627-.197-2.444-.936-2.444-2.214a2.1 2.1 0 0 1 .81-1.749 3.527 3.527 0 0 1 2.222-.635c.76-.044 1.51.17 2.127.608.527.435.841 1.074.861 1.756h-1.465a1.075 1.075 0 0 0-.426-.84c-.34-.2-.74-.29-1.134-.263a2.007 2.007 0 0 0-1.142.264.862.862 0 0 0-.385.746.788.788 0 0 0 .338.679c.328.194.7.31 1.08.334l.966.124c.639.05 1.246.297 1.733.706.408.398.625.953.594 1.518a2.131 2.131 0 0 1-.861 1.83 3.905 3.905 0 0 1-2.364.635 3.579 3.579 0 0 1-2.269-.636 2.476 2.476 0 0 1-.881-1.84Z"/></svg>
