<svg width="480" height="450" viewBox="0 0 480 450" fill="none" xmlns="http://www.w3.org/2000/svg">
<g clip-path="url(#clip0_1037_26707)">
<rect width="480" height="450" fill="#E1F0F1"/>
<path d="M179.295 78V54.7273H188.205C189.886 54.7273 191.284 54.9924 192.398 55.5227C193.519 56.0455 194.356 56.7614 194.909 57.6705C195.47 58.5795 195.75 59.6098 195.75 60.7614C195.75 61.7083 195.568 62.5189 195.205 63.1932C194.841 63.8598 194.352 64.4015 193.739 64.8182C193.125 65.2348 192.439 65.5341 191.682 65.7159V65.9432C192.508 65.9886 193.299 66.2424 194.057 66.7045C194.822 67.1591 195.447 67.803 195.932 68.6364C196.417 69.4697 196.659 70.4773 196.659 71.6591C196.659 72.8636 196.367 73.947 195.784 74.9091C195.201 75.8636 194.322 76.6174 193.148 77.1705C191.973 77.7235 190.496 78 188.716 78H179.295ZM183.511 74.4773H188.045C189.576 74.4773 190.678 74.1856 191.352 73.6023C192.034 73.0114 192.375 72.2538 192.375 71.3295C192.375 70.6402 192.205 70.0189 191.864 69.4659C191.523 68.9053 191.038 68.4659 190.409 68.1477C189.78 67.822 189.03 67.6591 188.159 67.6591H183.511V74.4773ZM183.511 64.625H187.682C188.409 64.625 189.064 64.4924 189.648 64.2273C190.231 63.9545 190.689 63.572 191.023 63.0795C191.364 62.5795 191.534 61.9886 191.534 61.3068C191.534 60.4053 191.216 59.6629 190.58 59.0795C189.951 58.4962 189.015 58.2045 187.773 58.2045H183.511V64.625ZM211.27 70.6591V60.5455H215.384V78H211.395V74.8977H211.213C210.819 75.875 210.171 76.6742 209.27 77.2955C208.376 77.9167 207.274 78.2273 205.963 78.2273C204.819 78.2273 203.808 77.9735 202.929 77.4659C202.058 76.9508 201.376 76.2045 200.884 75.2273C200.391 74.2424 200.145 73.053 200.145 71.6591V60.5455H204.259V71.0227C204.259 72.1288 204.562 73.0076 205.168 73.6591C205.774 74.3106 206.569 74.6364 207.554 74.6364C208.16 74.6364 208.747 74.4886 209.315 74.1932C209.884 73.8977 210.349 73.4583 210.713 72.875C211.084 72.2841 211.27 71.5455 211.27 70.6591ZM219.614 78V60.5455H223.727V78H219.614ZM221.682 58.0682C221.03 58.0682 220.47 57.8523 220 57.4205C219.53 56.9811 219.295 56.4545 219.295 55.8409C219.295 55.2197 219.53 54.6932 220 54.2614C220.47 53.822 221.03 53.6023 221.682 53.6023C222.341 53.6023 222.902 53.822 223.364 54.2614C223.833 54.6932 224.068 55.2197 224.068 55.8409C224.068 56.4545 223.833 56.9811 223.364 57.4205C222.902 57.8523 222.341 58.0682 221.682 58.0682ZM232.071 54.7273V78H227.957V54.7273H232.071ZM242.778 78.3068C241.407 78.3068 240.18 77.9545 239.097 77.25C238.013 76.5455 237.157 75.5227 236.528 74.1818C235.9 72.8409 235.585 71.2121 235.585 69.2955C235.585 67.3561 235.903 65.7197 236.54 64.3864C237.184 63.0455 238.051 62.0341 239.142 61.3523C240.233 60.6629 241.449 60.3182 242.79 60.3182C243.813 60.3182 244.653 60.4924 245.312 60.8409C245.972 61.1818 246.494 61.5947 246.881 62.0795C247.267 62.5568 247.566 63.0076 247.778 63.4318H247.949V54.7273H252.074V78H248.028V75.25H247.778C247.566 75.6742 247.259 76.125 246.858 76.6023C246.456 77.072 245.926 77.4735 245.267 77.8068C244.608 78.1402 243.778 78.3068 242.778 78.3068ZM243.926 74.9318C244.797 74.9318 245.54 74.697 246.153 74.2273C246.767 73.75 247.233 73.0871 247.551 72.2386C247.869 71.3902 248.028 70.4015 248.028 69.2727C248.028 68.1439 247.869 67.1629 247.551 66.3295C247.241 65.4962 246.778 64.8485 246.165 64.3864C245.559 63.9242 244.813 63.6932 243.926 63.6932C243.009 63.6932 242.244 63.9318 241.631 64.4091C241.017 64.8864 240.555 65.5455 240.244 66.3864C239.934 67.2273 239.778 68.1894 239.778 69.2727C239.778 70.3636 239.934 71.3371 240.244 72.1932C240.563 73.0417 241.028 73.7121 241.642 74.2045C242.263 74.6894 243.025 74.9318 243.926 74.9318ZM256.457 78V60.5455H260.571V78H256.457ZM258.526 58.0682C257.874 58.0682 257.313 57.8523 256.844 57.4205C256.374 56.9811 256.139 56.4545 256.139 55.8409C256.139 55.2197 256.374 54.6932 256.844 54.2614C257.313 53.822 257.874 53.6023 258.526 53.6023C259.185 53.6023 259.745 53.822 260.207 54.2614C260.677 54.6932 260.912 55.2197 260.912 55.8409C260.912 56.4545 260.677 56.9811 260.207 57.4205C259.745 57.8523 259.185 58.0682 258.526 58.0682ZM268.915 67.7727V78H264.801V60.5455H268.733V63.5114H268.938C269.339 62.5341 269.979 61.7576 270.858 61.1818C271.744 60.6061 272.839 60.3182 274.142 60.3182C275.347 60.3182 276.396 60.5758 277.29 61.0909C278.191 61.6061 278.888 62.3523 279.381 63.3295C279.881 64.3068 280.127 65.4924 280.119 66.8864V78H276.006V67.5227C276.006 66.3561 275.703 65.4432 275.097 64.7841C274.498 64.125 273.669 63.7955 272.608 63.7955C271.888 63.7955 271.248 63.9545 270.688 64.2727C270.134 64.5833 269.699 65.0341 269.381 65.625C269.07 66.2159 268.915 66.9318 268.915 67.7727ZM291.892 84.9091C290.415 84.9091 289.146 84.7083 288.085 84.3068C287.025 83.9129 286.172 83.3826 285.528 82.7159C284.884 82.0492 284.438 81.3106 284.188 80.5L287.892 79.6023C288.059 79.9432 288.301 80.2803 288.619 80.6136C288.938 80.9545 289.366 81.2348 289.903 81.4545C290.449 81.6818 291.134 81.7955 291.96 81.7955C293.127 81.7955 294.093 81.5114 294.858 80.9432C295.623 80.3826 296.006 79.4583 296.006 78.1705V74.8636H295.801C295.589 75.2879 295.278 75.7235 294.869 76.1705C294.468 76.6174 293.934 76.9924 293.267 77.2955C292.608 77.5985 291.778 77.75 290.778 77.75C289.438 77.75 288.222 77.4356 287.131 76.8068C286.047 76.1705 285.184 75.2235 284.54 73.9659C283.903 72.7008 283.585 71.1174 283.585 69.2159C283.585 67.2992 283.903 65.6818 284.54 64.3636C285.184 63.0379 286.051 62.0341 287.142 61.3523C288.233 60.6629 289.449 60.3182 290.79 60.3182C291.813 60.3182 292.653 60.4924 293.312 60.8409C293.979 61.1818 294.509 61.5947 294.903 62.0795C295.297 62.5568 295.597 63.0076 295.801 63.4318H296.028V60.5455H300.085V78.2841C300.085 79.7765 299.729 81.0114 299.017 81.9886C298.305 82.9659 297.331 83.697 296.097 84.1818C294.862 84.6667 293.46 84.9091 291.892 84.9091ZM291.926 74.5227C292.797 74.5227 293.54 74.3106 294.153 73.8864C294.767 73.4621 295.233 72.8523 295.551 72.0568C295.869 71.2614 296.028 70.3068 296.028 69.1932C296.028 68.0947 295.869 67.1326 295.551 66.3068C295.241 65.4811 294.778 64.8409 294.165 64.3864C293.559 63.9242 292.813 63.6932 291.926 63.6932C291.009 63.6932 290.244 63.9318 289.631 64.4091C289.017 64.8864 288.555 65.5417 288.244 66.375C287.934 67.2008 287.778 68.1402 287.778 69.1932C287.778 70.2614 287.934 71.197 288.244 72C288.563 72.7955 289.028 73.4167 289.642 73.8636C290.263 74.303 291.025 74.5227 291.926 74.5227Z" fill="black"/>
<path d="M121.969 198.625H114.938V142.375H117.281C117.903 142.375 118.499 142.128 118.939 141.689C119.378 141.249 119.625 140.653 119.625 140.031C119.625 139.41 119.378 138.814 118.939 138.374C118.499 137.934 117.903 137.688 117.281 137.688H65.7188C65.0971 137.688 64.501 137.934 64.0615 138.374C63.6219 138.814 63.375 139.41 63.375 140.031C63.375 140.653 63.6219 141.249 64.0615 141.689C64.501 142.128 65.0971 142.375 65.7188 142.375H68.0625V198.625H61.0312C60.4096 198.625 59.8135 198.872 59.374 199.311C58.9344 199.751 58.6875 200.347 58.6875 200.969C58.6875 201.59 58.9344 202.186 59.374 202.626C59.8135 203.066 60.4096 203.312 61.0312 203.312H121.969C122.59 203.312 123.186 203.066 123.626 202.626C124.066 202.186 124.312 201.59 124.312 200.969C124.312 200.347 124.066 199.751 123.626 199.311C123.186 198.872 122.59 198.625 121.969 198.625ZM72.75 142.375H110.25V198.625H100.875V186.906C100.875 186.285 100.628 185.689 100.189 185.249C99.749 184.809 99.1529 184.562 98.5312 184.562H84.4688C83.8471 184.562 83.251 184.809 82.8115 185.249C82.3719 185.689 82.125 186.285 82.125 186.906V198.625H72.75V142.375ZM96.1875 198.625H86.8125V189.25H96.1875V198.625ZM79.7812 151.75C79.7812 151.128 80.0282 150.532 80.4677 150.093C80.9073 149.653 81.5034 149.406 82.125 149.406H86.8125C87.4341 149.406 88.0302 149.653 88.4698 150.093C88.9093 150.532 89.1562 151.128 89.1562 151.75C89.1562 152.372 88.9093 152.968 88.4698 153.407C88.0302 153.847 87.4341 154.094 86.8125 154.094H82.125C81.5034 154.094 80.9073 153.847 80.4677 153.407C80.0282 152.968 79.7812 152.372 79.7812 151.75ZM93.8438 151.75C93.8438 151.128 94.0907 150.532 94.5302 150.093C94.9698 149.653 95.5659 149.406 96.1875 149.406H100.875C101.497 149.406 102.093 149.653 102.532 150.093C102.972 150.532 103.219 151.128 103.219 151.75C103.219 152.372 102.972 152.968 102.532 153.407C102.093 153.847 101.497 154.094 100.875 154.094H96.1875C95.5659 154.094 94.9698 153.847 94.5302 153.407C94.0907 152.968 93.8438 152.372 93.8438 151.75ZM79.7812 163.469C79.7812 162.847 80.0282 162.251 80.4677 161.811C80.9073 161.372 81.5034 161.125 82.125 161.125H86.8125C87.4341 161.125 88.0302 161.372 88.4698 161.811C88.9093 162.251 89.1562 162.847 89.1562 163.469C89.1562 164.09 88.9093 164.686 88.4698 165.126C88.0302 165.566 87.4341 165.812 86.8125 165.812H82.125C81.5034 165.812 80.9073 165.566 80.4677 165.126C80.0282 164.686 79.7812 164.09 79.7812 163.469ZM93.8438 163.469C93.8438 162.847 94.0907 162.251 94.5302 161.811C94.9698 161.372 95.5659 161.125 96.1875 161.125H100.875C101.497 161.125 102.093 161.372 102.532 161.811C102.972 162.251 103.219 162.847 103.219 163.469C103.219 164.09 102.972 164.686 102.532 165.126C102.093 165.566 101.497 165.812 100.875 165.812H96.1875C95.5659 165.812 94.9698 165.566 94.5302 165.126C94.0907 164.686 93.8438 164.09 93.8438 163.469ZM79.7812 175.188C79.7812 174.566 80.0282 173.97 80.4677 173.53C80.9073 173.091 81.5034 172.844 82.125 172.844H86.8125C87.4341 172.844 88.0302 173.091 88.4698 173.53C88.9093 173.97 89.1562 174.566 89.1562 175.188C89.1562 175.809 88.9093 176.405 88.4698 176.845C88.0302 177.284 87.4341 177.531 86.8125 177.531H82.125C81.5034 177.531 80.9073 177.284 80.4677 176.845C80.0282 176.405 79.7812 175.809 79.7812 175.188ZM93.8438 175.188C93.8438 174.566 94.0907 173.97 94.5302 173.53C94.9698 173.091 95.5659 172.844 96.1875 172.844H100.875C101.497 172.844 102.093 173.091 102.532 173.53C102.972 173.97 103.219 174.566 103.219 175.188C103.219 175.809 102.972 176.405 102.532 176.845C102.093 177.284 101.497 177.531 100.875 177.531H96.1875C95.5659 177.531 94.9698 177.284 94.5302 176.845C94.0907 176.405 93.8438 175.809 93.8438 175.188Z" fill="#9DC8D0"/>
<path d="M121.969 292.625H114.938V236.375H117.281C117.903 236.375 118.499 236.128 118.939 235.689C119.378 235.249 119.625 234.653 119.625 234.031C119.625 233.41 119.378 232.814 118.939 232.374C118.499 231.934 117.903 231.688 117.281 231.688H65.7188C65.0971 231.688 64.501 231.934 64.0615 232.374C63.6219 232.814 63.375 233.41 63.375 234.031C63.375 234.653 63.6219 235.249 64.0615 235.689C64.501 236.128 65.0971 236.375 65.7188 236.375H68.0625V292.625H61.0312C60.4096 292.625 59.8135 292.872 59.374 293.311C58.9344 293.751 58.6875 294.347 58.6875 294.969C58.6875 295.59 58.9344 296.186 59.374 296.626C59.8135 297.066 60.4096 297.312 61.0312 297.312H121.969C122.59 297.312 123.186 297.066 123.626 296.626C124.066 296.186 124.312 295.59 124.312 294.969C124.312 294.347 124.066 293.751 123.626 293.311C123.186 292.872 122.59 292.625 121.969 292.625ZM72.75 236.375H110.25V292.625H100.875V280.906C100.875 280.285 100.628 279.689 100.189 279.249C99.749 278.809 99.1529 278.562 98.5312 278.562H84.4688C83.8471 278.562 83.251 278.809 82.8115 279.249C82.3719 279.689 82.125 280.285 82.125 280.906V292.625H72.75V236.375ZM96.1875 292.625H86.8125V283.25H96.1875V292.625ZM79.7812 245.75C79.7812 245.128 80.0282 244.532 80.4677 244.093C80.9073 243.653 81.5034 243.406 82.125 243.406H86.8125C87.4341 243.406 88.0302 243.653 88.4698 244.093C88.9093 244.532 89.1562 245.128 89.1562 245.75C89.1562 246.372 88.9093 246.968 88.4698 247.407C88.0302 247.847 87.4341 248.094 86.8125 248.094H82.125C81.5034 248.094 80.9073 247.847 80.4677 247.407C80.0282 246.968 79.7812 246.372 79.7812 245.75ZM93.8438 245.75C93.8438 245.128 94.0907 244.532 94.5302 244.093C94.9698 243.653 95.5659 243.406 96.1875 243.406H100.875C101.497 243.406 102.093 243.653 102.532 244.093C102.972 244.532 103.219 245.128 103.219 245.75C103.219 246.372 102.972 246.968 102.532 247.407C102.093 247.847 101.497 248.094 100.875 248.094H96.1875C95.5659 248.094 94.9698 247.847 94.5302 247.407C94.0907 246.968 93.8438 246.372 93.8438 245.75ZM79.7812 257.469C79.7812 256.847 80.0282 256.251 80.4677 255.811C80.9073 255.372 81.5034 255.125 82.125 255.125H86.8125C87.4341 255.125 88.0302 255.372 88.4698 255.811C88.9093 256.251 89.1562 256.847 89.1562 257.469C89.1562 258.09 88.9093 258.686 88.4698 259.126C88.0302 259.566 87.4341 259.812 86.8125 259.812H82.125C81.5034 259.812 80.9073 259.566 80.4677 259.126C80.0282 258.686 79.7812 258.09 79.7812 257.469ZM93.8438 257.469C93.8438 256.847 94.0907 256.251 94.5302 255.811C94.9698 255.372 95.5659 255.125 96.1875 255.125H100.875C101.497 255.125 102.093 255.372 102.532 255.811C102.972 256.251 103.219 256.847 103.219 257.469C103.219 258.09 102.972 258.686 102.532 259.126C102.093 259.566 101.497 259.812 100.875 259.812H96.1875C95.5659 259.812 94.9698 259.566 94.5302 259.126C94.0907 258.686 93.8438 258.09 93.8438 257.469ZM79.7812 269.188C79.7812 268.566 80.0282 267.97 80.4677 267.53C80.9073 267.091 81.5034 266.844 82.125 266.844H86.8125C87.4341 266.844 88.0302 267.091 88.4698 267.53C88.9093 267.97 89.1562 268.566 89.1562 269.188C89.1562 269.809 88.9093 270.405 88.4698 270.845C88.0302 271.284 87.4341 271.531 86.8125 271.531H82.125C81.5034 271.531 80.9073 271.284 80.4677 270.845C80.0282 270.405 79.7812 269.809 79.7812 269.188ZM93.8438 269.188C93.8438 268.566 94.0907 267.97 94.5302 267.53C94.9698 267.091 95.5659 266.844 96.1875 266.844H100.875C101.497 266.844 102.093 267.091 102.532 267.53C102.972 267.97 103.219 268.566 103.219 269.188C103.219 269.809 102.972 270.405 102.532 270.845C102.093 271.284 101.497 271.531 100.875 271.531H96.1875C95.5659 271.531 94.9698 271.284 94.5302 270.845C94.0907 270.405 93.8438 269.809 93.8438 269.188Z" fill="#9DC8D0"/>
<path d="M121.969 386.625H114.938V330.375H117.281C117.903 330.375 118.499 330.128 118.939 329.689C119.378 329.249 119.625 328.653 119.625 328.031C119.625 327.41 119.378 326.814 118.939 326.374C118.499 325.934 117.903 325.688 117.281 325.688H65.7188C65.0971 325.688 64.501 325.934 64.0615 326.374C63.6219 326.814 63.375 327.41 63.375 328.031C63.375 328.653 63.6219 329.249 64.0615 329.689C64.501 330.128 65.0971 330.375 65.7188 330.375H68.0625V386.625H61.0312C60.4096 386.625 59.8135 386.872 59.374 387.311C58.9344 387.751 58.6875 388.347 58.6875 388.969C58.6875 389.59 58.9344 390.186 59.374 390.626C59.8135 391.066 60.4096 391.312 61.0312 391.312H121.969C122.59 391.312 123.186 391.066 123.626 390.626C124.066 390.186 124.312 389.59 124.312 388.969C124.312 388.347 124.066 387.751 123.626 387.311C123.186 386.872 122.59 386.625 121.969 386.625ZM72.75 330.375H110.25V386.625H100.875V374.906C100.875 374.285 100.628 373.689 100.189 373.249C99.749 372.809 99.1529 372.562 98.5312 372.562H84.4688C83.8471 372.562 83.251 372.809 82.8115 373.249C82.3719 373.689 82.125 374.285 82.125 374.906V386.625H72.75V330.375ZM96.1875 386.625H86.8125V377.25H96.1875V386.625ZM79.7812 339.75C79.7812 339.128 80.0282 338.532 80.4677 338.093C80.9073 337.653 81.5034 337.406 82.125 337.406H86.8125C87.4341 337.406 88.0302 337.653 88.4698 338.093C88.9093 338.532 89.1562 339.128 89.1562 339.75C89.1562 340.372 88.9093 340.968 88.4698 341.407C88.0302 341.847 87.4341 342.094 86.8125 342.094H82.125C81.5034 342.094 80.9073 341.847 80.4677 341.407C80.0282 340.968 79.7812 340.372 79.7812 339.75ZM93.8438 339.75C93.8438 339.128 94.0907 338.532 94.5302 338.093C94.9698 337.653 95.5659 337.406 96.1875 337.406H100.875C101.497 337.406 102.093 337.653 102.532 338.093C102.972 338.532 103.219 339.128 103.219 339.75C103.219 340.372 102.972 340.968 102.532 341.407C102.093 341.847 101.497 342.094 100.875 342.094H96.1875C95.5659 342.094 94.9698 341.847 94.5302 341.407C94.0907 340.968 93.8438 340.372 93.8438 339.75ZM79.7812 351.469C79.7812 350.847 80.0282 350.251 80.4677 349.811C80.9073 349.372 81.5034 349.125 82.125 349.125H86.8125C87.4341 349.125 88.0302 349.372 88.4698 349.811C88.9093 350.251 89.1562 350.847 89.1562 351.469C89.1562 352.09 88.9093 352.686 88.4698 353.126C88.0302 353.566 87.4341 353.812 86.8125 353.812H82.125C81.5034 353.812 80.9073 353.566 80.4677 353.126C80.0282 352.686 79.7812 352.09 79.7812 351.469ZM93.8438 351.469C93.8438 350.847 94.0907 350.251 94.5302 349.811C94.9698 349.372 95.5659 349.125 96.1875 349.125H100.875C101.497 349.125 102.093 349.372 102.532 349.811C102.972 350.251 103.219 350.847 103.219 351.469C103.219 352.09 102.972 352.686 102.532 353.126C102.093 353.566 101.497 353.812 100.875 353.812H96.1875C95.5659 353.812 94.9698 353.566 94.5302 353.126C94.0907 352.686 93.8438 352.09 93.8438 351.469ZM79.7812 363.188C79.7812 362.566 80.0282 361.97 80.4677 361.53C80.9073 361.091 81.5034 360.844 82.125 360.844H86.8125C87.4341 360.844 88.0302 361.091 88.4698 361.53C88.9093 361.97 89.1562 362.566 89.1562 363.188C89.1562 363.809 88.9093 364.405 88.4698 364.845C88.0302 365.284 87.4341 365.531 86.8125 365.531H82.125C81.5034 365.531 80.9073 365.284 80.4677 364.845C80.0282 364.405 79.7812 363.809 79.7812 363.188ZM93.8438 363.188C93.8438 362.566 94.0907 361.97 94.5302 361.53C94.9698 361.091 95.5659 360.844 96.1875 360.844H100.875C101.497 360.844 102.093 361.091 102.532 361.53C102.972 361.97 103.219 362.566 103.219 363.188C103.219 363.809 102.972 364.405 102.532 364.845C102.093 365.284 101.497 365.531 100.875 365.531H96.1875C95.5659 365.531 94.9698 365.284 94.5302 364.845C94.0907 364.405 93.8438 363.809 93.8438 363.188Z" fill="#9DC8D0"/>
<path d="M224.969 198.625H217.938V142.375H220.281C220.903 142.375 221.499 142.128 221.939 141.689C222.378 141.249 222.625 140.653 222.625 140.031C222.625 139.41 222.378 138.814 221.939 138.374C221.499 137.934 220.903 137.688 220.281 137.688H168.719C168.097 137.688 167.501 137.934 167.061 138.374C166.622 138.814 166.375 139.41 166.375 140.031C166.375 140.653 166.622 141.249 167.061 141.689C167.501 142.128 168.097 142.375 168.719 142.375H171.062V198.625H164.031C163.41 198.625 162.814 198.872 162.374 199.311C161.934 199.751 161.688 200.347 161.688 200.969C161.688 201.59 161.934 202.186 162.374 202.626C162.814 203.066 163.41 203.312 164.031 203.312H224.969C225.59 203.312 226.186 203.066 226.626 202.626C227.066 202.186 227.312 201.59 227.312 200.969C227.312 200.347 227.066 199.751 226.626 199.311C226.186 198.872 225.59 198.625 224.969 198.625ZM175.75 142.375H213.25V198.625H203.875V186.906C203.875 186.285 203.628 185.689 203.189 185.249C202.749 184.809 202.153 184.562 201.531 184.562H187.469C186.847 184.562 186.251 184.809 185.811 185.249C185.372 185.689 185.125 186.285 185.125 186.906V198.625H175.75V142.375ZM199.188 198.625H189.812V189.25H199.188V198.625ZM182.781 151.75C182.781 151.128 183.028 150.532 183.468 150.093C183.907 149.653 184.503 149.406 185.125 149.406H189.812C190.434 149.406 191.03 149.653 191.47 150.093C191.909 150.532 192.156 151.128 192.156 151.75C192.156 152.372 191.909 152.968 191.47 153.407C191.03 153.847 190.434 154.094 189.812 154.094H185.125C184.503 154.094 183.907 153.847 183.468 153.407C183.028 152.968 182.781 152.372 182.781 151.75ZM196.844 151.75C196.844 151.128 197.091 150.532 197.53 150.093C197.97 149.653 198.566 149.406 199.188 149.406H203.875C204.497 149.406 205.093 149.653 205.532 150.093C205.972 150.532 206.219 151.128 206.219 151.75C206.219 152.372 205.972 152.968 205.532 153.407C205.093 153.847 204.497 154.094 203.875 154.094H199.188C198.566 154.094 197.97 153.847 197.53 153.407C197.091 152.968 196.844 152.372 196.844 151.75ZM182.781 163.469C182.781 162.847 183.028 162.251 183.468 161.811C183.907 161.372 184.503 161.125 185.125 161.125H189.812C190.434 161.125 191.03 161.372 191.47 161.811C191.909 162.251 192.156 162.847 192.156 163.469C192.156 164.09 191.909 164.686 191.47 165.126C191.03 165.566 190.434 165.812 189.812 165.812H185.125C184.503 165.812 183.907 165.566 183.468 165.126C183.028 164.686 182.781 164.09 182.781 163.469ZM196.844 163.469C196.844 162.847 197.091 162.251 197.53 161.811C197.97 161.372 198.566 161.125 199.188 161.125H203.875C204.497 161.125 205.093 161.372 205.532 161.811C205.972 162.251 206.219 162.847 206.219 163.469C206.219 164.09 205.972 164.686 205.532 165.126C205.093 165.566 204.497 165.812 203.875 165.812H199.188C198.566 165.812 197.97 165.566 197.53 165.126C197.091 164.686 196.844 164.09 196.844 163.469ZM182.781 175.188C182.781 174.566 183.028 173.97 183.468 173.53C183.907 173.091 184.503 172.844 185.125 172.844H189.812C190.434 172.844 191.03 173.091 191.47 173.53C191.909 173.97 192.156 174.566 192.156 175.188C192.156 175.809 191.909 176.405 191.47 176.845C191.03 177.284 190.434 177.531 189.812 177.531H185.125C184.503 177.531 183.907 177.284 183.468 176.845C183.028 176.405 182.781 175.809 182.781 175.188ZM196.844 175.188C196.844 174.566 197.091 173.97 197.53 173.53C197.97 173.091 198.566 172.844 199.188 172.844H203.875C204.497 172.844 205.093 173.091 205.532 173.53C205.972 173.97 206.219 174.566 206.219 175.188C206.219 175.809 205.972 176.405 205.532 176.845C205.093 177.284 204.497 177.531 203.875 177.531H199.188C198.566 177.531 197.97 177.284 197.53 176.845C197.091 176.405 196.844 175.809 196.844 175.188Z" fill="#9DC8D0"/>
<path d="M224.969 292.625H217.938V236.375H220.281C220.903 236.375 221.499 236.128 221.939 235.689C222.378 235.249 222.625 234.653 222.625 234.031C222.625 233.41 222.378 232.814 221.939 232.374C221.499 231.934 220.903 231.688 220.281 231.688H168.719C168.097 231.688 167.501 231.934 167.061 232.374C166.622 232.814 166.375 233.41 166.375 234.031C166.375 234.653 166.622 235.249 167.061 235.689C167.501 236.128 168.097 236.375 168.719 236.375H171.062V292.625H164.031C163.41 292.625 162.814 292.872 162.374 293.311C161.934 293.751 161.688 294.347 161.688 294.969C161.688 295.59 161.934 296.186 162.374 296.626C162.814 297.066 163.41 297.312 164.031 297.312H224.969C225.59 297.312 226.186 297.066 226.626 296.626C227.066 296.186 227.312 295.59 227.312 294.969C227.312 294.347 227.066 293.751 226.626 293.311C226.186 292.872 225.59 292.625 224.969 292.625ZM175.75 236.375H213.25V292.625H203.875V280.906C203.875 280.285 203.628 279.689 203.189 279.249C202.749 278.809 202.153 278.562 201.531 278.562H187.469C186.847 278.562 186.251 278.809 185.811 279.249C185.372 279.689 185.125 280.285 185.125 280.906V292.625H175.75V236.375ZM199.188 292.625H189.812V283.25H199.188V292.625ZM182.781 245.75C182.781 245.128 183.028 244.532 183.468 244.093C183.907 243.653 184.503 243.406 185.125 243.406H189.812C190.434 243.406 191.03 243.653 191.47 244.093C191.909 244.532 192.156 245.128 192.156 245.75C192.156 246.372 191.909 246.968 191.47 247.407C191.03 247.847 190.434 248.094 189.812 248.094H185.125C184.503 248.094 183.907 247.847 183.468 247.407C183.028 246.968 182.781 246.372 182.781 245.75ZM196.844 245.75C196.844 245.128 197.091 244.532 197.53 244.093C197.97 243.653 198.566 243.406 199.188 243.406H203.875C204.497 243.406 205.093 243.653 205.532 244.093C205.972 244.532 206.219 245.128 206.219 245.75C206.219 246.372 205.972 246.968 205.532 247.407C205.093 247.847 204.497 248.094 203.875 248.094H199.188C198.566 248.094 197.97 247.847 197.53 247.407C197.091 246.968 196.844 246.372 196.844 245.75ZM182.781 257.469C182.781 256.847 183.028 256.251 183.468 255.811C183.907 255.372 184.503 255.125 185.125 255.125H189.812C190.434 255.125 191.03 255.372 191.47 255.811C191.909 256.251 192.156 256.847 192.156 257.469C192.156 258.09 191.909 258.686 191.47 259.126C191.03 259.566 190.434 259.812 189.812 259.812H185.125C184.503 259.812 183.907 259.566 183.468 259.126C183.028 258.686 182.781 258.09 182.781 257.469ZM196.844 257.469C196.844 256.847 197.091 256.251 197.53 255.811C197.97 255.372 198.566 255.125 199.188 255.125H203.875C204.497 255.125 205.093 255.372 205.532 255.811C205.972 256.251 206.219 256.847 206.219 257.469C206.219 258.09 205.972 258.686 205.532 259.126C205.093 259.566 204.497 259.812 203.875 259.812H199.188C198.566 259.812 197.97 259.566 197.53 259.126C197.091 258.686 196.844 258.09 196.844 257.469ZM182.781 269.188C182.781 268.566 183.028 267.97 183.468 267.53C183.907 267.091 184.503 266.844 185.125 266.844H189.812C190.434 266.844 191.03 267.091 191.47 267.53C191.909 267.97 192.156 268.566 192.156 269.188C192.156 269.809 191.909 270.405 191.47 270.845C191.03 271.284 190.434 271.531 189.812 271.531H185.125C184.503 271.531 183.907 271.284 183.468 270.845C183.028 270.405 182.781 269.809 182.781 269.188ZM196.844 269.188C196.844 268.566 197.091 267.97 197.53 267.53C197.97 267.091 198.566 266.844 199.188 266.844H203.875C204.497 266.844 205.093 267.091 205.532 267.53C205.972 267.97 206.219 268.566 206.219 269.188C206.219 269.809 205.972 270.405 205.532 270.845C205.093 271.284 204.497 271.531 203.875 271.531H199.188C198.566 271.531 197.97 271.284 197.53 270.845C197.091 270.405 196.844 269.809 196.844 269.188Z" fill="#9DC8D0"/>
<path d="M224.969 386.625H217.938V330.375H220.281C220.903 330.375 221.499 330.128 221.939 329.689C222.378 329.249 222.625 328.653 222.625 328.031C222.625 327.41 222.378 326.814 221.939 326.374C221.499 325.934 220.903 325.688 220.281 325.688H168.719C168.097 325.688 167.501 325.934 167.061 326.374C166.622 326.814 166.375 327.41 166.375 328.031C166.375 328.653 166.622 329.249 167.061 329.689C167.501 330.128 168.097 330.375 168.719 330.375H171.062V386.625H164.031C163.41 386.625 162.814 386.872 162.374 387.311C161.934 387.751 161.688 388.347 161.688 388.969C161.688 389.59 161.934 390.186 162.374 390.626C162.814 391.066 163.41 391.312 164.031 391.312H224.969C225.59 391.312 226.186 391.066 226.626 390.626C227.066 390.186 227.312 389.59 227.312 388.969C227.312 388.347 227.066 387.751 226.626 387.311C226.186 386.872 225.59 386.625 224.969 386.625ZM175.75 330.375H213.25V386.625H203.875V374.906C203.875 374.285 203.628 373.689 203.189 373.249C202.749 372.809 202.153 372.562 201.531 372.562H187.469C186.847 372.562 186.251 372.809 185.811 373.249C185.372 373.689 185.125 374.285 185.125 374.906V386.625H175.75V330.375ZM199.188 386.625H189.812V377.25H199.188V386.625ZM182.781 339.75C182.781 339.128 183.028 338.532 183.468 338.093C183.907 337.653 184.503 337.406 185.125 337.406H189.812C190.434 337.406 191.03 337.653 191.47 338.093C191.909 338.532 192.156 339.128 192.156 339.75C192.156 340.372 191.909 340.968 191.47 341.407C191.03 341.847 190.434 342.094 189.812 342.094H185.125C184.503 342.094 183.907 341.847 183.468 341.407C183.028 340.968 182.781 340.372 182.781 339.75ZM196.844 339.75C196.844 339.128 197.091 338.532 197.53 338.093C197.97 337.653 198.566 337.406 199.188 337.406H203.875C204.497 337.406 205.093 337.653 205.532 338.093C205.972 338.532 206.219 339.128 206.219 339.75C206.219 340.372 205.972 340.968 205.532 341.407C205.093 341.847 204.497 342.094 203.875 342.094H199.188C198.566 342.094 197.97 341.847 197.53 341.407C197.091 340.968 196.844 340.372 196.844 339.75ZM182.781 351.469C182.781 350.847 183.028 350.251 183.468 349.811C183.907 349.372 184.503 349.125 185.125 349.125H189.812C190.434 349.125 191.03 349.372 191.47 349.811C191.909 350.251 192.156 350.847 192.156 351.469C192.156 352.09 191.909 352.686 191.47 353.126C191.03 353.566 190.434 353.812 189.812 353.812H185.125C184.503 353.812 183.907 353.566 183.468 353.126C183.028 352.686 182.781 352.09 182.781 351.469ZM196.844 351.469C196.844 350.847 197.091 350.251 197.53 349.811C197.97 349.372 198.566 349.125 199.188 349.125H203.875C204.497 349.125 205.093 349.372 205.532 349.811C205.972 350.251 206.219 350.847 206.219 351.469C206.219 352.09 205.972 352.686 205.532 353.126C205.093 353.566 204.497 353.812 203.875 353.812H199.188C198.566 353.812 197.97 353.566 197.53 353.126C197.091 352.686 196.844 352.09 196.844 351.469ZM182.781 363.188C182.781 362.566 183.028 361.97 183.468 361.53C183.907 361.091 184.503 360.844 185.125 360.844H189.812C190.434 360.844 191.03 361.091 191.47 361.53C191.909 361.97 192.156 362.566 192.156 363.188C192.156 363.809 191.909 364.405 191.47 364.845C191.03 365.284 190.434 365.531 189.812 365.531H185.125C184.503 365.531 183.907 365.284 183.468 364.845C183.028 364.405 182.781 363.809 182.781 363.188ZM196.844 363.188C196.844 362.566 197.091 361.97 197.53 361.53C197.97 361.091 198.566 360.844 199.188 360.844H203.875C204.497 360.844 205.093 361.091 205.532 361.53C205.972 361.97 206.219 362.566 206.219 363.188C206.219 363.809 205.972 364.405 205.532 364.845C205.093 365.284 204.497 365.531 203.875 365.531H199.188C198.566 365.531 197.97 365.284 197.53 364.845C197.091 364.405 196.844 363.809 196.844 363.188Z" fill="#9DC8D0"/>
<path d="M327.969 198.625H320.938V142.375H323.281C323.903 142.375 324.499 142.128 324.939 141.689C325.378 141.249 325.625 140.653 325.625 140.031C325.625 139.41 325.378 138.814 324.939 138.374C324.499 137.934 323.903 137.688 323.281 137.688H271.719C271.097 137.688 270.501 137.934 270.061 138.374C269.622 138.814 269.375 139.41 269.375 140.031C269.375 140.653 269.622 141.249 270.061 141.689C270.501 142.128 271.097 142.375 271.719 142.375H274.062V198.625H267.031C266.41 198.625 265.814 198.872 265.374 199.311C264.934 199.751 264.688 200.347 264.688 200.969C264.688 201.59 264.934 202.186 265.374 202.626C265.814 203.066 266.41 203.312 267.031 203.312H327.969C328.59 203.312 329.186 203.066 329.626 202.626C330.066 202.186 330.312 201.59 330.312 200.969C330.312 200.347 330.066 199.751 329.626 199.311C329.186 198.872 328.59 198.625 327.969 198.625ZM278.75 142.375H316.25V198.625H306.875V186.906C306.875 186.285 306.628 185.689 306.189 185.249C305.749 184.809 305.153 184.562 304.531 184.562H290.469C289.847 184.562 289.251 184.809 288.811 185.249C288.372 185.689 288.125 186.285 288.125 186.906V198.625H278.75V142.375ZM302.188 198.625H292.812V189.25H302.188V198.625ZM285.781 151.75C285.781 151.128 286.028 150.532 286.468 150.093C286.907 149.653 287.503 149.406 288.125 149.406H292.812C293.434 149.406 294.03 149.653 294.47 150.093C294.909 150.532 295.156 151.128 295.156 151.75C295.156 152.372 294.909 152.968 294.47 153.407C294.03 153.847 293.434 154.094 292.812 154.094H288.125C287.503 154.094 286.907 153.847 286.468 153.407C286.028 152.968 285.781 152.372 285.781 151.75ZM299.844 151.75C299.844 151.128 300.091 150.532 300.53 150.093C300.97 149.653 301.566 149.406 302.188 149.406H306.875C307.497 149.406 308.093 149.653 308.532 150.093C308.972 150.532 309.219 151.128 309.219 151.75C309.219 152.372 308.972 152.968 308.532 153.407C308.093 153.847 307.497 154.094 306.875 154.094H302.188C301.566 154.094 300.97 153.847 300.53 153.407C300.091 152.968 299.844 152.372 299.844 151.75ZM285.781 163.469C285.781 162.847 286.028 162.251 286.468 161.811C286.907 161.372 287.503 161.125 288.125 161.125H292.812C293.434 161.125 294.03 161.372 294.47 161.811C294.909 162.251 295.156 162.847 295.156 163.469C295.156 164.09 294.909 164.686 294.47 165.126C294.03 165.566 293.434 165.812 292.812 165.812H288.125C287.503 165.812 286.907 165.566 286.468 165.126C286.028 164.686 285.781 164.09 285.781 163.469ZM299.844 163.469C299.844 162.847 300.091 162.251 300.53 161.811C300.97 161.372 301.566 161.125 302.188 161.125H306.875C307.497 161.125 308.093 161.372 308.532 161.811C308.972 162.251 309.219 162.847 309.219 163.469C309.219 164.09 308.972 164.686 308.532 165.126C308.093 165.566 307.497 165.812 306.875 165.812H302.188C301.566 165.812 300.97 165.566 300.53 165.126C300.091 164.686 299.844 164.09 299.844 163.469ZM285.781 175.188C285.781 174.566 286.028 173.97 286.468 173.53C286.907 173.091 287.503 172.844 288.125 172.844H292.812C293.434 172.844 294.03 173.091 294.47 173.53C294.909 173.97 295.156 174.566 295.156 175.188C295.156 175.809 294.909 176.405 294.47 176.845C294.03 177.284 293.434 177.531 292.812 177.531H288.125C287.503 177.531 286.907 177.284 286.468 176.845C286.028 176.405 285.781 175.809 285.781 175.188ZM299.844 175.188C299.844 174.566 300.091 173.97 300.53 173.53C300.97 173.091 301.566 172.844 302.188 172.844H306.875C307.497 172.844 308.093 173.091 308.532 173.53C308.972 173.97 309.219 174.566 309.219 175.188C309.219 175.809 308.972 176.405 308.532 176.845C308.093 177.284 307.497 177.531 306.875 177.531H302.188C301.566 177.531 300.97 177.284 300.53 176.845C300.091 176.405 299.844 175.809 299.844 175.188Z" fill="#006064"/>
<path d="M327.969 292.625H320.938V236.375H323.281C323.903 236.375 324.499 236.128 324.939 235.689C325.378 235.249 325.625 234.653 325.625 234.031C325.625 233.41 325.378 232.814 324.939 232.374C324.499 231.934 323.903 231.688 323.281 231.688H271.719C271.097 231.688 270.501 231.934 270.061 232.374C269.622 232.814 269.375 233.41 269.375 234.031C269.375 234.653 269.622 235.249 270.061 235.689C270.501 236.128 271.097 236.375 271.719 236.375H274.062V292.625H267.031C266.41 292.625 265.814 292.872 265.374 293.311C264.934 293.751 264.688 294.347 264.688 294.969C264.688 295.59 264.934 296.186 265.374 296.626C265.814 297.066 266.41 297.312 267.031 297.312H327.969C328.59 297.312 329.186 297.066 329.626 296.626C330.066 296.186 330.312 295.59 330.312 294.969C330.312 294.347 330.066 293.751 329.626 293.311C329.186 292.872 328.59 292.625 327.969 292.625ZM278.75 236.375H316.25V292.625H306.875V280.906C306.875 280.285 306.628 279.689 306.189 279.249C305.749 278.809 305.153 278.562 304.531 278.562H290.469C289.847 278.562 289.251 278.809 288.811 279.249C288.372 279.689 288.125 280.285 288.125 280.906V292.625H278.75V236.375ZM302.188 292.625H292.812V283.25H302.188V292.625ZM285.781 245.75C285.781 245.128 286.028 244.532 286.468 244.093C286.907 243.653 287.503 243.406 288.125 243.406H292.812C293.434 243.406 294.03 243.653 294.47 244.093C294.909 244.532 295.156 245.128 295.156 245.75C295.156 246.372 294.909 246.968 294.47 247.407C294.03 247.847 293.434 248.094 292.812 248.094H288.125C287.503 248.094 286.907 247.847 286.468 247.407C286.028 246.968 285.781 246.372 285.781 245.75ZM299.844 245.75C299.844 245.128 300.091 244.532 300.53 244.093C300.97 243.653 301.566 243.406 302.188 243.406H306.875C307.497 243.406 308.093 243.653 308.532 244.093C308.972 244.532 309.219 245.128 309.219 245.75C309.219 246.372 308.972 246.968 308.532 247.407C308.093 247.847 307.497 248.094 306.875 248.094H302.188C301.566 248.094 300.97 247.847 300.53 247.407C300.091 246.968 299.844 246.372 299.844 245.75ZM285.781 257.469C285.781 256.847 286.028 256.251 286.468 255.811C286.907 255.372 287.503 255.125 288.125 255.125H292.812C293.434 255.125 294.03 255.372 294.47 255.811C294.909 256.251 295.156 256.847 295.156 257.469C295.156 258.09 294.909 258.686 294.47 259.126C294.03 259.566 293.434 259.812 292.812 259.812H288.125C287.503 259.812 286.907 259.566 286.468 259.126C286.028 258.686 285.781 258.09 285.781 257.469ZM299.844 257.469C299.844 256.847 300.091 256.251 300.53 255.811C300.97 255.372 301.566 255.125 302.188 255.125H306.875C307.497 255.125 308.093 255.372 308.532 255.811C308.972 256.251 309.219 256.847 309.219 257.469C309.219 258.09 308.972 258.686 308.532 259.126C308.093 259.566 307.497 259.812 306.875 259.812H302.188C301.566 259.812 300.97 259.566 300.53 259.126C300.091 258.686 299.844 258.09 299.844 257.469ZM285.781 269.188C285.781 268.566 286.028 267.97 286.468 267.53C286.907 267.091 287.503 266.844 288.125 266.844H292.812C293.434 266.844 294.03 267.091 294.47 267.53C294.909 267.97 295.156 268.566 295.156 269.188C295.156 269.809 294.909 270.405 294.47 270.845C294.03 271.284 293.434 271.531 292.812 271.531H288.125C287.503 271.531 286.907 271.284 286.468 270.845C286.028 270.405 285.781 269.809 285.781 269.188ZM299.844 269.188C299.844 268.566 300.091 267.97 300.53 267.53C300.97 267.091 301.566 266.844 302.188 266.844H306.875C307.497 266.844 308.093 267.091 308.532 267.53C308.972 267.97 309.219 268.566 309.219 269.188C309.219 269.809 308.972 270.405 308.532 270.845C308.093 271.284 307.497 271.531 306.875 271.531H302.188C301.566 271.531 300.97 271.284 300.53 270.845C300.091 270.405 299.844 269.809 299.844 269.188Z" fill="#9DC8D0"/>
<path d="M327.969 386.625H320.938V330.375H323.281C323.903 330.375 324.499 330.128 324.939 329.689C325.378 329.249 325.625 328.653 325.625 328.031C325.625 327.41 325.378 326.814 324.939 326.374C324.499 325.934 323.903 325.688 323.281 325.688H271.719C271.097 325.688 270.501 325.934 270.061 326.374C269.622 326.814 269.375 327.41 269.375 328.031C269.375 328.653 269.622 329.249 270.061 329.689C270.501 330.128 271.097 330.375 271.719 330.375H274.062V386.625H267.031C266.41 386.625 265.814 386.872 265.374 387.311C264.934 387.751 264.688 388.347 264.688 388.969C264.688 389.59 264.934 390.186 265.374 390.626C265.814 391.066 266.41 391.312 267.031 391.312H327.969C328.59 391.312 329.186 391.066 329.626 390.626C330.066 390.186 330.312 389.59 330.312 388.969C330.312 388.347 330.066 387.751 329.626 387.311C329.186 386.872 328.59 386.625 327.969 386.625ZM278.75 330.375H316.25V386.625H306.875V374.906C306.875 374.285 306.628 373.689 306.189 373.249C305.749 372.809 305.153 372.562 304.531 372.562H290.469C289.847 372.562 289.251 372.809 288.811 373.249C288.372 373.689 288.125 374.285 288.125 374.906V386.625H278.75V330.375ZM302.188 386.625H292.812V377.25H302.188V386.625ZM285.781 339.75C285.781 339.128 286.028 338.532 286.468 338.093C286.907 337.653 287.503 337.406 288.125 337.406H292.812C293.434 337.406 294.03 337.653 294.47 338.093C294.909 338.532 295.156 339.128 295.156 339.75C295.156 340.372 294.909 340.968 294.47 341.407C294.03 341.847 293.434 342.094 292.812 342.094H288.125C287.503 342.094 286.907 341.847 286.468 341.407C286.028 340.968 285.781 340.372 285.781 339.75ZM299.844 339.75C299.844 339.128 300.091 338.532 300.53 338.093C300.97 337.653 301.566 337.406 302.188 337.406H306.875C307.497 337.406 308.093 337.653 308.532 338.093C308.972 338.532 309.219 339.128 309.219 339.75C309.219 340.372 308.972 340.968 308.532 341.407C308.093 341.847 307.497 342.094 306.875 342.094H302.188C301.566 342.094 300.97 341.847 300.53 341.407C300.091 340.968 299.844 340.372 299.844 339.75ZM285.781 351.469C285.781 350.847 286.028 350.251 286.468 349.811C286.907 349.372 287.503 349.125 288.125 349.125H292.812C293.434 349.125 294.03 349.372 294.47 349.811C294.909 350.251 295.156 350.847 295.156 351.469C295.156 352.09 294.909 352.686 294.47 353.126C294.03 353.566 293.434 353.812 292.812 353.812H288.125C287.503 353.812 286.907 353.566 286.468 353.126C286.028 352.686 285.781 352.09 285.781 351.469ZM299.844 351.469C299.844 350.847 300.091 350.251 300.53 349.811C300.97 349.372 301.566 349.125 302.188 349.125H306.875C307.497 349.125 308.093 349.372 308.532 349.811C308.972 350.251 309.219 350.847 309.219 351.469C309.219 352.09 308.972 352.686 308.532 353.126C308.093 353.566 307.497 353.812 306.875 353.812H302.188C301.566 353.812 300.97 353.566 300.53 353.126C300.091 352.686 299.844 352.09 299.844 351.469ZM285.781 363.188C285.781 362.566 286.028 361.97 286.468 361.53C286.907 361.091 287.503 360.844 288.125 360.844H292.812C293.434 360.844 294.03 361.091 294.47 361.53C294.909 361.97 295.156 362.566 295.156 363.188C295.156 363.809 294.909 364.405 294.47 364.845C294.03 365.284 293.434 365.531 292.812 365.531H288.125C287.503 365.531 286.907 365.284 286.468 364.845C286.028 364.405 285.781 363.809 285.781 363.188ZM299.844 363.188C299.844 362.566 300.091 361.97 300.53 361.53C300.97 361.091 301.566 360.844 302.188 360.844H306.875C307.497 360.844 308.093 361.091 308.532 361.53C308.972 361.97 309.219 362.566 309.219 363.188C309.219 363.809 308.972 364.405 308.532 364.845C308.093 365.284 307.497 365.531 306.875 365.531H302.188C301.566 365.531 300.97 365.284 300.53 364.845C300.091 364.405 299.844 363.809 299.844 363.188Z" fill="#9DC8D0"/>
<path d="M430.969 198.625H423.938V142.375H426.281C426.903 142.375 427.499 142.128 427.939 141.689C428.378 141.249 428.625 140.653 428.625 140.031C428.625 139.41 428.378 138.814 427.939 138.374C427.499 137.934 426.903 137.688 426.281 137.688H374.719C374.097 137.688 373.501 137.934 373.061 138.374C372.622 138.814 372.375 139.41 372.375 140.031C372.375 140.653 372.622 141.249 373.061 141.689C373.501 142.128 374.097 142.375 374.719 142.375H377.062V198.625H370.031C369.41 198.625 368.814 198.872 368.374 199.311C367.934 199.751 367.688 200.347 367.688 200.969C367.688 201.59 367.934 202.186 368.374 202.626C368.814 203.066 369.41 203.312 370.031 203.312H430.969C431.59 203.312 432.186 203.066 432.626 202.626C433.066 202.186 433.312 201.59 433.312 200.969C433.312 200.347 433.066 199.751 432.626 199.311C432.186 198.872 431.59 198.625 430.969 198.625ZM381.75 142.375H419.25V198.625H409.875V186.906C409.875 186.285 409.628 185.689 409.189 185.249C408.749 184.809 408.153 184.562 407.531 184.562H393.469C392.847 184.562 392.251 184.809 391.811 185.249C391.372 185.689 391.125 186.285 391.125 186.906V198.625H381.75V142.375ZM405.188 198.625H395.812V189.25H405.188V198.625ZM388.781 151.75C388.781 151.128 389.028 150.532 389.468 150.093C389.907 149.653 390.503 149.406 391.125 149.406H395.812C396.434 149.406 397.03 149.653 397.47 150.093C397.909 150.532 398.156 151.128 398.156 151.75C398.156 152.372 397.909 152.968 397.47 153.407C397.03 153.847 396.434 154.094 395.812 154.094H391.125C390.503 154.094 389.907 153.847 389.468 153.407C389.028 152.968 388.781 152.372 388.781 151.75ZM402.844 151.75C402.844 151.128 403.091 150.532 403.53 150.093C403.97 149.653 404.566 149.406 405.188 149.406H409.875C410.497 149.406 411.093 149.653 411.532 150.093C411.972 150.532 412.219 151.128 412.219 151.75C412.219 152.372 411.972 152.968 411.532 153.407C411.093 153.847 410.497 154.094 409.875 154.094H405.188C404.566 154.094 403.97 153.847 403.53 153.407C403.091 152.968 402.844 152.372 402.844 151.75ZM388.781 163.469C388.781 162.847 389.028 162.251 389.468 161.811C389.907 161.372 390.503 161.125 391.125 161.125H395.812C396.434 161.125 397.03 161.372 397.47 161.811C397.909 162.251 398.156 162.847 398.156 163.469C398.156 164.09 397.909 164.686 397.47 165.126C397.03 165.566 396.434 165.812 395.812 165.812H391.125C390.503 165.812 389.907 165.566 389.468 165.126C389.028 164.686 388.781 164.09 388.781 163.469ZM402.844 163.469C402.844 162.847 403.091 162.251 403.53 161.811C403.97 161.372 404.566 161.125 405.188 161.125H409.875C410.497 161.125 411.093 161.372 411.532 161.811C411.972 162.251 412.219 162.847 412.219 163.469C412.219 164.09 411.972 164.686 411.532 165.126C411.093 165.566 410.497 165.812 409.875 165.812H405.188C404.566 165.812 403.97 165.566 403.53 165.126C403.091 164.686 402.844 164.09 402.844 163.469ZM388.781 175.188C388.781 174.566 389.028 173.97 389.468 173.53C389.907 173.091 390.503 172.844 391.125 172.844H395.812C396.434 172.844 397.03 173.091 397.47 173.53C397.909 173.97 398.156 174.566 398.156 175.188C398.156 175.809 397.909 176.405 397.47 176.845C397.03 177.284 396.434 177.531 395.812 177.531H391.125C390.503 177.531 389.907 177.284 389.468 176.845C389.028 176.405 388.781 175.809 388.781 175.188ZM402.844 175.188C402.844 174.566 403.091 173.97 403.53 173.53C403.97 173.091 404.566 172.844 405.188 172.844H409.875C410.497 172.844 411.093 173.091 411.532 173.53C411.972 173.97 412.219 174.566 412.219 175.188C412.219 175.809 411.972 176.405 411.532 176.845C411.093 177.284 410.497 177.531 409.875 177.531H405.188C404.566 177.531 403.97 177.284 403.53 176.845C403.091 176.405 402.844 175.809 402.844 175.188Z" fill="#9DC8D0"/>
<path d="M430.969 292.625H423.938V236.375H426.281C426.903 236.375 427.499 236.128 427.939 235.689C428.378 235.249 428.625 234.653 428.625 234.031C428.625 233.41 428.378 232.814 427.939 232.374C427.499 231.934 426.903 231.688 426.281 231.688H374.719C374.097 231.688 373.501 231.934 373.061 232.374C372.622 232.814 372.375 233.41 372.375 234.031C372.375 234.653 372.622 235.249 373.061 235.689C373.501 236.128 374.097 236.375 374.719 236.375H377.062V292.625H370.031C369.41 292.625 368.814 292.872 368.374 293.311C367.934 293.751 367.688 294.347 367.688 294.969C367.688 295.59 367.934 296.186 368.374 296.626C368.814 297.066 369.41 297.312 370.031 297.312H430.969C431.59 297.312 432.186 297.066 432.626 296.626C433.066 296.186 433.312 295.59 433.312 294.969C433.312 294.347 433.066 293.751 432.626 293.311C432.186 292.872 431.59 292.625 430.969 292.625ZM381.75 236.375H419.25V292.625H409.875V280.906C409.875 280.285 409.628 279.689 409.189 279.249C408.749 278.809 408.153 278.562 407.531 278.562H393.469C392.847 278.562 392.251 278.809 391.811 279.249C391.372 279.689 391.125 280.285 391.125 280.906V292.625H381.75V236.375ZM405.188 292.625H395.812V283.25H405.188V292.625ZM388.781 245.75C388.781 245.128 389.028 244.532 389.468 244.093C389.907 243.653 390.503 243.406 391.125 243.406H395.812C396.434 243.406 397.03 243.653 397.47 244.093C397.909 244.532 398.156 245.128 398.156 245.75C398.156 246.372 397.909 246.968 397.47 247.407C397.03 247.847 396.434 248.094 395.812 248.094H391.125C390.503 248.094 389.907 247.847 389.468 247.407C389.028 246.968 388.781 246.372 388.781 245.75ZM402.844 245.75C402.844 245.128 403.091 244.532 403.53 244.093C403.97 243.653 404.566 243.406 405.188 243.406H409.875C410.497 243.406 411.093 243.653 411.532 244.093C411.972 244.532 412.219 245.128 412.219 245.75C412.219 246.372 411.972 246.968 411.532 247.407C411.093 247.847 410.497 248.094 409.875 248.094H405.188C404.566 248.094 403.97 247.847 403.53 247.407C403.091 246.968 402.844 246.372 402.844 245.75ZM388.781 257.469C388.781 256.847 389.028 256.251 389.468 255.811C389.907 255.372 390.503 255.125 391.125 255.125H395.812C396.434 255.125 397.03 255.372 397.47 255.811C397.909 256.251 398.156 256.847 398.156 257.469C398.156 258.09 397.909 258.686 397.47 259.126C397.03 259.566 396.434 259.812 395.812 259.812H391.125C390.503 259.812 389.907 259.566 389.468 259.126C389.028 258.686 388.781 258.09 388.781 257.469ZM402.844 257.469C402.844 256.847 403.091 256.251 403.53 255.811C403.97 255.372 404.566 255.125 405.188 255.125H409.875C410.497 255.125 411.093 255.372 411.532 255.811C411.972 256.251 412.219 256.847 412.219 257.469C412.219 258.09 411.972 258.686 411.532 259.126C411.093 259.566 410.497 259.812 409.875 259.812H405.188C404.566 259.812 403.97 259.566 403.53 259.126C403.091 258.686 402.844 258.09 402.844 257.469ZM388.781 269.188C388.781 268.566 389.028 267.97 389.468 267.53C389.907 267.091 390.503 266.844 391.125 266.844H395.812C396.434 266.844 397.03 267.091 397.47 267.53C397.909 267.97 398.156 268.566 398.156 269.188C398.156 269.809 397.909 270.405 397.47 270.845C397.03 271.284 396.434 271.531 395.812 271.531H391.125C390.503 271.531 389.907 271.284 389.468 270.845C389.028 270.405 388.781 269.809 388.781 269.188ZM402.844 269.188C402.844 268.566 403.091 267.97 403.53 267.53C403.97 267.091 404.566 266.844 405.188 266.844H409.875C410.497 266.844 411.093 267.091 411.532 267.53C411.972 267.97 412.219 268.566 412.219 269.188C412.219 269.809 411.972 270.405 411.532 270.845C411.093 271.284 410.497 271.531 409.875 271.531H405.188C404.566 271.531 403.97 271.284 403.53 270.845C403.091 270.405 402.844 269.809 402.844 269.188Z" fill="#9DC8D0"/>
<path d="M430.969 386.625H423.938V330.375H426.281C426.903 330.375 427.499 330.128 427.939 329.689C428.378 329.249 428.625 328.653 428.625 328.031C428.625 327.41 428.378 326.814 427.939 326.374C427.499 325.934 426.903 325.688 426.281 325.688H374.719C374.097 325.688 373.501 325.934 373.061 326.374C372.622 326.814 372.375 327.41 372.375 328.031C372.375 328.653 372.622 329.249 373.061 329.689C373.501 330.128 374.097 330.375 374.719 330.375H377.062V386.625H370.031C369.41 386.625 368.814 386.872 368.374 387.311C367.934 387.751 367.688 388.347 367.688 388.969C367.688 389.59 367.934 390.186 368.374 390.626C368.814 391.066 369.41 391.312 370.031 391.312H430.969C431.59 391.312 432.186 391.066 432.626 390.626C433.066 390.186 433.312 389.59 433.312 388.969C433.312 388.347 433.066 387.751 432.626 387.311C432.186 386.872 431.59 386.625 430.969 386.625ZM381.75 330.375H419.25V386.625H409.875V374.906C409.875 374.285 409.628 373.689 409.189 373.249C408.749 372.809 408.153 372.562 407.531 372.562H393.469C392.847 372.562 392.251 372.809 391.811 373.249C391.372 373.689 391.125 374.285 391.125 374.906V386.625H381.75V330.375ZM405.188 386.625H395.812V377.25H405.188V386.625ZM388.781 339.75C388.781 339.128 389.028 338.532 389.468 338.093C389.907 337.653 390.503 337.406 391.125 337.406H395.812C396.434 337.406 397.03 337.653 397.47 338.093C397.909 338.532 398.156 339.128 398.156 339.75C398.156 340.372 397.909 340.968 397.47 341.407C397.03 341.847 396.434 342.094 395.812 342.094H391.125C390.503 342.094 389.907 341.847 389.468 341.407C389.028 340.968 388.781 340.372 388.781 339.75ZM402.844 339.75C402.844 339.128 403.091 338.532 403.53 338.093C403.97 337.653 404.566 337.406 405.188 337.406H409.875C410.497 337.406 411.093 337.653 411.532 338.093C411.972 338.532 412.219 339.128 412.219 339.75C412.219 340.372 411.972 340.968 411.532 341.407C411.093 341.847 410.497 342.094 409.875 342.094H405.188C404.566 342.094 403.97 341.847 403.53 341.407C403.091 340.968 402.844 340.372 402.844 339.75ZM388.781 351.469C388.781 350.847 389.028 350.251 389.468 349.811C389.907 349.372 390.503 349.125 391.125 349.125H395.812C396.434 349.125 397.03 349.372 397.47 349.811C397.909 350.251 398.156 350.847 398.156 351.469C398.156 352.09 397.909 352.686 397.47 353.126C397.03 353.566 396.434 353.812 395.812 353.812H391.125C390.503 353.812 389.907 353.566 389.468 353.126C389.028 352.686 388.781 352.09 388.781 351.469ZM402.844 351.469C402.844 350.847 403.091 350.251 403.53 349.811C403.97 349.372 404.566 349.125 405.188 349.125H409.875C410.497 349.125 411.093 349.372 411.532 349.811C411.972 350.251 412.219 350.847 412.219 351.469C412.219 352.09 411.972 352.686 411.532 353.126C411.093 353.566 410.497 353.812 409.875 353.812H405.188C404.566 353.812 403.97 353.566 403.53 353.126C403.091 352.686 402.844 352.09 402.844 351.469ZM388.781 363.188C388.781 362.566 389.028 361.97 389.468 361.53C389.907 361.091 390.503 360.844 391.125 360.844H395.812C396.434 360.844 397.03 361.091 397.47 361.53C397.909 361.97 398.156 362.566 398.156 363.188C398.156 363.809 397.909 364.405 397.47 364.845C397.03 365.284 396.434 365.531 395.812 365.531H391.125C390.503 365.531 389.907 365.284 389.468 364.845C389.028 364.405 388.781 363.809 388.781 363.188ZM402.844 363.188C402.844 362.566 403.091 361.97 403.53 361.53C403.97 361.091 404.566 360.844 405.188 360.844H409.875C410.497 360.844 411.093 361.091 411.532 361.53C411.972 361.97 412.219 362.566 412.219 363.188C412.219 363.809 411.972 364.405 411.532 364.845C411.093 365.284 410.497 365.531 409.875 365.531H405.188C404.566 365.531 403.97 365.284 403.53 364.845C403.091 364.405 402.844 363.809 402.844 363.188Z" fill="#9DC8D0"/>
</g>
<defs>
<clipPath id="clip0_1037_26707">
<rect width="480" height="450" fill="white"/>
</clipPath>
</defs>
</svg>
