<svg width="480" height="450" viewBox="0 0 480 450" fill="none" xmlns="http://www.w3.org/2000/svg">
<g clip-path="url(#clip0_1034_16962)">
<rect width="480" height="450" fill="#E1F0F1"/>
<path d="M116.216 89.5795H111.966C111.845 88.8826 111.621 88.2652 111.295 87.7273C110.97 87.1818 110.564 86.7197 110.08 86.3409C109.595 85.9621 109.042 85.678 108.42 85.4886C107.807 85.2917 107.144 85.1932 106.432 85.1932C105.167 85.1932 104.045 85.5114 103.068 86.1477C102.091 86.7765 101.326 87.7008 100.773 88.9205C100.22 90.1326 99.9432 91.6136 99.9432 93.3636C99.9432 95.1439 100.22 96.6439 100.773 97.8636C101.333 99.0758 102.098 99.9924 103.068 100.614C104.045 101.227 105.163 101.534 106.42 101.534C107.117 101.534 107.769 101.443 108.375 101.261C108.989 101.072 109.538 100.795 110.023 100.432C110.515 100.068 110.928 99.6212 111.261 99.0909C111.602 98.5606 111.837 97.9545 111.966 97.2727L116.216 97.2955C116.057 98.4015 115.712 99.4394 115.182 100.409C114.659 101.379 113.973 102.235 113.125 102.977C112.277 103.712 111.284 104.288 110.148 104.705C109.011 105.114 107.75 105.318 106.364 105.318C104.318 105.318 102.492 104.845 100.886 103.898C99.2803 102.951 98.0152 101.583 97.0909 99.7955C96.1667 98.0076 95.7045 95.8636 95.7045 93.3636C95.7045 90.8561 96.1705 88.7121 97.1023 86.9318C98.0341 85.1439 99.303 83.7765 100.909 82.8295C102.515 81.8826 104.333 81.4091 106.364 81.4091C107.659 81.4091 108.864 81.5909 109.977 81.9545C111.091 82.3182 112.083 82.8523 112.955 83.5568C113.826 84.2538 114.542 85.1098 115.102 86.125C115.67 87.1326 116.042 88.2841 116.216 89.5795ZM124.009 94.7727V105H119.895V81.7273H123.918V90.5114H124.122C124.531 89.5265 125.164 88.75 126.02 88.1818C126.884 87.6061 127.982 87.3182 129.315 87.3182C130.527 87.3182 131.584 87.572 132.486 88.0795C133.387 88.5871 134.084 89.3295 134.577 90.3068C135.077 91.2841 135.327 92.4773 135.327 93.8864V105H131.213V94.5227C131.213 93.3485 130.91 92.4356 130.304 91.7841C129.705 91.125 128.865 90.7955 127.781 90.7955C127.054 90.7955 126.402 90.9545 125.827 91.2727C125.259 91.5833 124.812 92.0341 124.486 92.625C124.168 93.2159 124.009 93.9318 124.009 94.7727ZM147.247 105.341C145.497 105.341 143.986 104.977 142.713 104.25C141.448 103.515 140.474 102.477 139.793 101.136C139.111 99.7879 138.77 98.2008 138.77 96.375C138.77 94.5795 139.111 93.0038 139.793 91.6477C140.482 90.2841 141.444 89.2235 142.679 88.4659C143.914 87.7008 145.365 87.3182 147.031 87.3182C148.107 87.3182 149.122 87.4924 150.077 87.8409C151.039 88.1818 151.887 88.7121 152.622 89.4318C153.365 90.1515 153.948 91.0682 154.372 92.1818C154.796 93.2879 155.009 94.6061 155.009 96.1364V97.3977H140.702V94.625H151.065C151.058 93.8371 150.887 93.1364 150.554 92.5227C150.221 91.9015 149.755 91.4129 149.156 91.0568C148.565 90.7008 147.876 90.5227 147.088 90.5227C146.247 90.5227 145.509 90.7273 144.872 91.1364C144.236 91.5379 143.74 92.0682 143.384 92.7273C143.035 93.3788 142.857 94.0947 142.849 94.875V97.2955C142.849 98.3106 143.035 99.1818 143.406 99.9091C143.777 100.629 144.296 101.182 144.963 101.568C145.63 101.947 146.41 102.136 147.304 102.136C147.902 102.136 148.444 102.053 148.929 101.886C149.414 101.712 149.834 101.458 150.19 101.125C150.546 100.792 150.815 100.379 150.997 99.8864L154.838 100.318C154.596 101.333 154.134 102.22 153.452 102.977C152.777 103.727 151.914 104.311 150.861 104.727C149.808 105.136 148.603 105.341 147.247 105.341ZM166.102 105.341C164.36 105.341 162.864 104.958 161.614 104.193C160.371 103.428 159.413 102.371 158.739 101.023C158.072 99.6667 157.739 98.1061 157.739 96.3409C157.739 94.5682 158.08 93.0038 158.761 91.6477C159.443 90.2841 160.405 89.2235 161.648 88.4659C162.898 87.7008 164.375 87.3182 166.08 87.3182C167.496 87.3182 168.75 87.5795 169.841 88.1023C170.939 88.6174 171.814 89.3485 172.466 90.2955C173.117 91.2348 173.489 92.3333 173.58 93.5909H169.648C169.489 92.75 169.11 92.0492 168.511 91.4886C167.92 90.9205 167.129 90.6364 166.136 90.6364C165.295 90.6364 164.557 90.8636 163.92 91.3182C163.284 91.7652 162.788 92.4091 162.432 93.25C162.083 94.0909 161.909 95.0985 161.909 96.2727C161.909 97.4621 162.083 98.4848 162.432 99.3409C162.78 100.189 163.269 100.845 163.898 101.307C164.534 101.761 165.28 101.989 166.136 101.989C166.742 101.989 167.284 101.875 167.761 101.648C168.246 101.413 168.652 101.076 168.977 100.636C169.303 100.197 169.527 99.6629 169.648 99.0341H173.58C173.481 100.269 173.117 101.364 172.489 102.318C171.86 103.265 171.004 104.008 169.92 104.545C168.837 105.076 167.564 105.341 166.102 105.341ZM180.707 99.5227L180.696 94.5568H181.355L187.628 87.5455H192.435L184.719 96.1364H183.866L180.707 99.5227ZM176.957 105V81.7273H181.071V105H176.957ZM187.912 105L182.23 97.0568L185.003 94.1591L192.832 105H187.912ZM204.881 93.6136V97H194.403V93.6136H204.881ZM209.207 105V87.5455H213.321V105H209.207ZM211.276 85.0682C210.624 85.0682 210.063 84.8523 209.594 84.4205C209.124 83.9811 208.889 83.4545 208.889 82.8409C208.889 82.2197 209.124 81.6932 209.594 81.2614C210.063 80.822 210.624 80.6023 211.276 80.6023C211.935 80.6023 212.495 80.822 212.957 81.2614C213.427 81.6932 213.662 82.2197 213.662 82.8409C213.662 83.4545 213.427 83.9811 212.957 84.4205C212.495 84.8523 211.935 85.0682 211.276 85.0682ZM221.665 94.7727V105H217.551V87.5455H221.483V90.5114H221.688C222.089 89.5341 222.729 88.7576 223.608 88.1818C224.494 87.6061 225.589 87.3182 226.892 87.3182C228.097 87.3182 229.146 87.5758 230.04 88.0909C230.941 88.6061 231.638 89.3523 232.131 90.3295C232.631 91.3068 232.877 92.4924 232.869 93.8864V105H228.756V94.5227C228.756 93.3561 228.453 92.4432 227.847 91.7841C227.248 91.125 226.419 90.7955 225.358 90.7955C224.638 90.7955 223.998 90.9545 223.438 91.2727C222.884 91.5833 222.449 92.0341 222.131 92.625C221.82 93.2159 221.665 93.9318 221.665 94.7727ZM246.551 80.6364L239.051 108.5H235.449L242.949 80.6364H246.551ZM256.79 105.341C255.085 105.341 253.608 104.966 252.358 104.216C251.108 103.466 250.138 102.417 249.449 101.068C248.767 99.7197 248.426 98.1439 248.426 96.3409C248.426 94.5379 248.767 92.9583 249.449 91.6023C250.138 90.2462 251.108 89.1932 252.358 88.4432C253.608 87.6932 255.085 87.3182 256.79 87.3182C258.494 87.3182 259.972 87.6932 261.222 88.4432C262.472 89.1932 263.438 90.2462 264.119 91.6023C264.809 92.9583 265.153 94.5379 265.153 96.3409C265.153 98.1439 264.809 99.7197 264.119 101.068C263.438 102.417 262.472 103.466 261.222 104.216C259.972 104.966 258.494 105.341 256.79 105.341ZM256.812 102.045C257.737 102.045 258.509 101.792 259.131 101.284C259.752 100.769 260.214 100.08 260.517 99.2159C260.828 98.3523 260.983 97.3902 260.983 96.3295C260.983 95.2614 260.828 94.2955 260.517 93.4318C260.214 92.5606 259.752 91.8674 259.131 91.3523C258.509 90.8371 257.737 90.5795 256.812 90.5795C255.866 90.5795 255.078 90.8371 254.449 91.3523C253.828 91.8674 253.362 92.5606 253.051 93.4318C252.748 94.2955 252.597 95.2614 252.597 96.3295C252.597 97.3902 252.748 98.3523 253.051 99.2159C253.362 100.08 253.828 100.769 254.449 101.284C255.078 101.792 255.866 102.045 256.812 102.045ZM279.77 97.6591V87.5455H283.884V105H279.895V101.898H279.713C279.319 102.875 278.671 103.674 277.77 104.295C276.876 104.917 275.774 105.227 274.463 105.227C273.319 105.227 272.308 104.973 271.429 104.466C270.558 103.951 269.876 103.205 269.384 102.227C268.891 101.242 268.645 100.053 268.645 98.6591V87.5455H272.759V98.0227C272.759 99.1288 273.062 100.008 273.668 100.659C274.274 101.311 275.069 101.636 276.054 101.636C276.66 101.636 277.247 101.489 277.815 101.193C278.384 100.898 278.849 100.458 279.213 99.875C279.584 99.2841 279.77 98.5455 279.77 97.6591ZM296.83 87.5455V90.7273H286.795V87.5455H296.83ZM289.273 83.3636H293.386V99.75C293.386 100.303 293.47 100.727 293.636 101.023C293.811 101.311 294.038 101.508 294.318 101.614C294.598 101.72 294.909 101.773 295.25 101.773C295.508 101.773 295.742 101.754 295.955 101.716C296.174 101.678 296.341 101.644 296.455 101.614L297.148 104.83C296.928 104.905 296.614 104.989 296.205 105.08C295.803 105.17 295.311 105.223 294.727 105.239C293.697 105.269 292.769 105.114 291.943 104.773C291.117 104.424 290.462 103.886 289.977 103.159C289.5 102.432 289.265 101.523 289.273 100.432V83.3636ZM316.276 105H308.389V81.7273H316.435C318.745 81.7273 320.73 82.1932 322.389 83.125C324.056 84.0492 325.336 85.3788 326.23 87.1136C327.124 88.8485 327.571 90.9242 327.571 93.3409C327.571 95.7652 327.12 97.8485 326.219 99.5909C325.325 101.333 324.033 102.67 322.344 103.602C320.662 104.534 318.639 105 316.276 105ZM312.605 101.352H316.071C317.692 101.352 319.045 101.057 320.128 100.466C321.211 99.8674 322.026 98.9773 322.571 97.7955C323.116 96.6061 323.389 95.1212 323.389 93.3409C323.389 91.5606 323.116 90.0833 322.571 88.9091C322.026 87.7273 321.219 86.8447 320.151 86.2614C319.09 85.6705 317.772 85.375 316.196 85.375H312.605V101.352ZM336.418 105.352C335.312 105.352 334.315 105.155 333.429 104.761C332.55 104.36 331.853 103.769 331.338 102.989C330.83 102.208 330.577 101.246 330.577 100.102C330.577 99.1174 330.759 98.303 331.122 97.6591C331.486 97.0152 331.982 96.5 332.611 96.1136C333.24 95.7273 333.948 95.4356 334.736 95.2386C335.531 95.0341 336.353 94.8864 337.202 94.7955C338.224 94.6894 339.054 94.5947 339.69 94.5114C340.327 94.4205 340.789 94.2841 341.077 94.1023C341.372 93.9129 341.52 93.6212 341.52 93.2273V93.1591C341.52 92.303 341.266 91.6402 340.759 91.1705C340.251 90.7008 339.52 90.4659 338.565 90.4659C337.558 90.4659 336.759 90.6856 336.168 91.125C335.584 91.5644 335.19 92.0833 334.986 92.6818L331.145 92.1364C331.448 91.0758 331.948 90.1894 332.645 89.4773C333.342 88.7576 334.194 88.2197 335.202 87.8636C336.209 87.5 337.323 87.3182 338.543 87.3182C339.384 87.3182 340.221 87.4167 341.054 87.6136C341.887 87.8106 342.649 88.1364 343.338 88.5909C344.027 89.0379 344.58 89.6477 344.997 90.4205C345.421 91.1932 345.634 92.1591 345.634 93.3182V105H341.679V102.602H341.543C341.293 103.087 340.94 103.542 340.486 103.966C340.039 104.383 339.474 104.72 338.793 104.977C338.118 105.227 337.327 105.352 336.418 105.352ZM337.486 102.33C338.312 102.33 339.027 102.167 339.634 101.841C340.24 101.508 340.705 101.068 341.031 100.523C341.365 99.9773 341.531 99.3826 341.531 98.7386V96.6818C341.402 96.7879 341.183 96.8864 340.872 96.9773C340.569 97.0682 340.228 97.1477 339.849 97.2159C339.471 97.2841 339.096 97.3447 338.724 97.3977C338.353 97.4508 338.031 97.4962 337.759 97.5341C337.145 97.6174 336.596 97.7538 336.111 97.9432C335.626 98.1326 335.243 98.3977 334.963 98.7386C334.683 99.072 334.543 99.5038 334.543 100.034C334.543 100.792 334.819 101.364 335.372 101.75C335.925 102.136 336.63 102.33 337.486 102.33ZM358.486 87.5455V90.7273H348.452V87.5455H358.486ZM350.929 83.3636H355.043V99.75C355.043 100.303 355.126 100.727 355.293 101.023C355.467 101.311 355.694 101.508 355.974 101.614C356.255 101.72 356.565 101.773 356.906 101.773C357.164 101.773 357.399 101.754 357.611 101.716C357.83 101.678 357.997 101.644 358.111 101.614L358.804 104.83C358.584 104.905 358.27 104.989 357.861 105.08C357.459 105.17 356.967 105.223 356.384 105.239C355.353 105.269 354.425 105.114 353.599 104.773C352.774 104.424 352.118 103.886 351.634 103.159C351.156 102.432 350.921 101.523 350.929 100.432V83.3636ZM366.949 105.352C365.843 105.352 364.847 105.155 363.96 104.761C363.081 104.36 362.384 103.769 361.869 102.989C361.362 102.208 361.108 101.246 361.108 100.102C361.108 99.1174 361.29 98.303 361.653 97.6591C362.017 97.0152 362.513 96.5 363.142 96.1136C363.771 95.7273 364.479 95.4356 365.267 95.2386C366.063 95.0341 366.884 94.8864 367.733 94.7955C368.756 94.6894 369.585 94.5947 370.222 94.5114C370.858 94.4205 371.32 94.2841 371.608 94.1023C371.903 93.9129 372.051 93.6212 372.051 93.2273V93.1591C372.051 92.303 371.797 91.6402 371.29 91.1705C370.782 90.7008 370.051 90.4659 369.097 90.4659C368.089 90.4659 367.29 90.6856 366.699 91.125C366.116 91.5644 365.722 92.0833 365.517 92.6818L361.676 92.1364C361.979 91.0758 362.479 90.1894 363.176 89.4773C363.873 88.7576 364.725 88.2197 365.733 87.8636C366.741 87.5 367.854 87.3182 369.074 87.3182C369.915 87.3182 370.752 87.4167 371.585 87.6136C372.419 87.8106 373.18 88.1364 373.869 88.5909C374.559 89.0379 375.112 89.6477 375.528 90.4205C375.953 91.1932 376.165 92.1591 376.165 93.3182V105H372.21V102.602H372.074C371.824 103.087 371.472 103.542 371.017 103.966C370.57 104.383 370.006 104.72 369.324 104.977C368.65 105.227 367.858 105.352 366.949 105.352ZM368.017 102.33C368.843 102.33 369.559 102.167 370.165 101.841C370.771 101.508 371.237 101.068 371.562 100.523C371.896 99.9773 372.062 99.3826 372.062 98.7386V96.6818C371.934 96.7879 371.714 96.8864 371.403 96.9773C371.1 97.0682 370.759 97.1477 370.381 97.2159C370.002 97.2841 369.627 97.3447 369.256 97.3977C368.884 97.4508 368.563 97.4962 368.29 97.5341C367.676 97.6174 367.127 97.7538 366.642 97.9432C366.157 98.1326 365.775 98.3977 365.494 98.7386C365.214 99.072 365.074 99.5038 365.074 100.034C365.074 100.792 365.35 101.364 365.903 101.75C366.456 102.136 367.161 102.33 368.017 102.33Z" fill="black"/>
<path d="M216.333 266.125L234.468 224.673C234.795 223.924 235.274 223.251 235.875 222.696C236.476 222.141 237.185 221.717 237.957 221.451C238.73 221.184 239.55 221.08 240.365 221.146C241.179 221.211 241.972 221.445 242.692 221.833L275.5 239.5" stroke="#006064" stroke-width="8" stroke-linecap="round" stroke-linejoin="round"/>
<path d="M245.916 295.708V239.5H293.249V325.292H245.916V313.458" stroke="#006064" stroke-width="8" stroke-linecap="round" stroke-linejoin="round"/>
<path d="M180.833 334.167C207.458 334.167 209.736 318.437 217.309 317.343C226.252 316.047 235.361 315.381 243.263 313.458C250.584 311.67 257.763 309.341 264.74 306.491C265.825 306.054 266.72 305.249 267.27 304.216C268.935 301.019 271.92 293.963 266.391 293.072C259.208 291.919 236.985 300.391 225.587 298.85C214.188 297.312 218.194 289.608 221.785 287.295C231.539 281.02 242.958 283.875 242.958 283.875V257.25C242.958 257.25 199.571 268.344 183.791 287.295M263.666 266.125H293.25" stroke="#006064" stroke-width="8" stroke-linecap="round" stroke-linejoin="round"/>
</g>
<defs>
<clipPath id="clip0_1034_16962">
<rect width="480" height="450" fill="white"/>
</clipPath>
</defs>
</svg>
