<svg width="480" height="450" viewBox="0 0 480 450" fill="none" xmlns="http://www.w3.org/2000/svg">
<rect width="480" height="450" fill="#E1F0F1"/>
<path d="M159.943 88.125C159.837 87.1326 159.39 86.3598 158.602 85.8068C157.822 85.2538 156.807 84.9773 155.557 84.9773C154.678 84.9773 153.924 85.1098 153.295 85.375C152.667 85.6402 152.186 86 151.852 86.4545C151.519 86.9091 151.348 87.428 151.341 88.0114C151.341 88.4962 151.451 88.9167 151.67 89.2727C151.898 89.6288 152.205 89.9318 152.591 90.1818C152.977 90.4242 153.405 90.6288 153.875 90.7955C154.345 90.9621 154.818 91.1023 155.295 91.2159L157.477 91.7614C158.356 91.9659 159.201 92.2424 160.011 92.5909C160.83 92.9394 161.561 93.3788 162.205 93.9091C162.856 94.4394 163.371 95.0795 163.75 95.8295C164.129 96.5795 164.318 97.4583 164.318 98.4659C164.318 99.8295 163.97 101.03 163.273 102.068C162.576 103.098 161.568 103.905 160.25 104.489C158.939 105.064 157.352 105.352 155.489 105.352C153.678 105.352 152.106 105.072 150.773 104.511C149.447 103.951 148.409 103.133 147.659 102.057C146.917 100.981 146.515 99.6705 146.455 98.125H150.602C150.663 98.9356 150.913 99.6098 151.352 100.148C151.792 100.686 152.364 101.087 153.068 101.352C153.78 101.617 154.576 101.75 155.455 101.75C156.371 101.75 157.174 101.614 157.864 101.341C158.561 101.061 159.106 100.674 159.5 100.182C159.894 99.6818 160.095 99.0985 160.102 98.4318C160.095 97.8258 159.917 97.3258 159.568 96.9318C159.22 96.5303 158.731 96.197 158.102 95.9318C157.481 95.6591 156.754 95.4167 155.92 95.2045L153.273 94.5227C151.356 94.0303 149.841 93.2841 148.727 92.2841C147.621 91.2765 147.068 89.9394 147.068 88.2727C147.068 86.9015 147.439 85.7008 148.182 84.6705C148.932 83.6402 149.951 82.8409 151.239 82.2727C152.527 81.697 153.985 81.4091 155.614 81.4091C157.265 81.4091 158.712 81.697 159.955 82.2727C161.205 82.8409 162.186 83.6326 162.898 84.6477C163.61 85.6553 163.977 86.8144 164 88.125H159.943ZM175.622 105.341C173.872 105.341 172.361 104.977 171.088 104.25C169.823 103.515 168.849 102.477 168.168 101.136C167.486 99.7879 167.145 98.2008 167.145 96.375C167.145 94.5795 167.486 93.0038 168.168 91.6477C168.857 90.2841 169.819 89.2235 171.054 88.4659C172.289 87.7008 173.74 87.3182 175.406 87.3182C176.482 87.3182 177.497 87.4924 178.452 87.8409C179.414 88.1818 180.262 88.7121 180.997 89.4318C181.74 90.1515 182.323 91.0682 182.747 92.1818C183.171 93.2879 183.384 94.6061 183.384 96.1364V97.3977H169.077V94.625H179.44C179.433 93.8371 179.262 93.1364 178.929 92.5227C178.596 91.9015 178.13 91.4129 177.531 91.0568C176.94 90.7008 176.251 90.5227 175.463 90.5227C174.622 90.5227 173.884 90.7273 173.247 91.1364C172.611 91.5379 172.115 92.0682 171.759 92.7273C171.41 93.3788 171.232 94.0947 171.224 94.875V97.2955C171.224 98.3106 171.41 99.1818 171.781 99.9091C172.152 100.629 172.671 101.182 173.338 101.568C174.005 101.947 174.785 102.136 175.679 102.136C176.277 102.136 176.819 102.053 177.304 101.886C177.789 101.712 178.209 101.458 178.565 101.125C178.921 100.792 179.19 100.379 179.372 99.8864L183.213 100.318C182.971 101.333 182.509 102.22 181.827 102.977C181.152 103.727 180.289 104.311 179.236 104.727C178.183 105.136 176.978 105.341 175.622 105.341ZM190.977 94.7727V105H186.864V87.5455H190.795V90.5114H191C191.402 89.5341 192.042 88.7576 192.92 88.1818C193.807 87.6061 194.902 87.3182 196.205 87.3182C197.409 87.3182 198.458 87.5758 199.352 88.0909C200.254 88.6061 200.951 89.3523 201.443 90.3295C201.943 91.3068 202.189 92.4924 202.182 93.8864V105H198.068V94.5227C198.068 93.3561 197.765 92.4432 197.159 91.7841C196.561 91.125 195.731 90.7955 194.67 90.7955C193.951 90.7955 193.311 90.9545 192.75 91.2727C192.197 91.5833 191.761 92.0341 191.443 92.625C191.133 93.2159 190.977 93.9318 190.977 94.7727ZM220.159 92.1591L216.409 92.5682C216.303 92.1894 216.117 91.8333 215.852 91.5C215.595 91.1667 215.246 90.8977 214.807 90.6932C214.367 90.4886 213.83 90.3864 213.193 90.3864C212.337 90.3864 211.617 90.572 211.034 90.9432C210.458 91.3144 210.174 91.7955 210.182 92.3864C210.174 92.8939 210.36 93.3068 210.739 93.625C211.125 93.9432 211.761 94.2045 212.648 94.4091L215.625 95.0455C217.277 95.4015 218.504 95.9659 219.307 96.7386C220.117 97.5114 220.527 98.5227 220.534 99.7727C220.527 100.871 220.205 101.841 219.568 102.682C218.939 103.515 218.064 104.167 216.943 104.636C215.822 105.106 214.534 105.341 213.08 105.341C210.943 105.341 209.223 104.894 207.92 104C206.617 103.098 205.841 101.845 205.591 100.239L209.602 99.8523C209.784 100.64 210.17 101.235 210.761 101.636C211.352 102.038 212.121 102.239 213.068 102.239C214.045 102.239 214.83 102.038 215.42 101.636C216.019 101.235 216.318 100.739 216.318 100.148C216.318 99.6477 216.125 99.2348 215.739 98.9091C215.36 98.5833 214.769 98.3333 213.966 98.1591L210.989 97.5341C209.314 97.1856 208.076 96.5985 207.273 95.7727C206.47 94.9394 206.072 93.8864 206.08 92.6136C206.072 91.5379 206.364 90.6061 206.955 89.8182C207.553 89.0227 208.383 88.4091 209.443 87.9773C210.511 87.5379 211.742 87.3182 213.136 87.3182C215.182 87.3182 216.792 87.7538 217.966 88.625C219.148 89.4962 219.879 90.6742 220.159 92.1591ZM231.54 105.341C229.835 105.341 228.358 104.966 227.108 104.216C225.858 103.466 224.888 102.417 224.199 101.068C223.517 99.7197 223.176 98.1439 223.176 96.3409C223.176 94.5379 223.517 92.9583 224.199 91.6023C224.888 90.2462 225.858 89.1932 227.108 88.4432C228.358 87.6932 229.835 87.3182 231.54 87.3182C233.244 87.3182 234.722 87.6932 235.972 88.4432C237.222 89.1932 238.188 90.2462 238.869 91.6023C239.559 92.9583 239.903 94.5379 239.903 96.3409C239.903 98.1439 239.559 99.7197 238.869 101.068C238.188 102.417 237.222 103.466 235.972 104.216C234.722 104.966 233.244 105.341 231.54 105.341ZM231.562 102.045C232.487 102.045 233.259 101.792 233.881 101.284C234.502 100.769 234.964 100.08 235.267 99.2159C235.578 98.3523 235.733 97.3902 235.733 96.3295C235.733 95.2614 235.578 94.2955 235.267 93.4318C234.964 92.5606 234.502 91.8674 233.881 91.3523C233.259 90.8371 232.487 90.5795 231.562 90.5795C230.616 90.5795 229.828 90.8371 229.199 91.3523C228.578 91.8674 228.112 92.5606 227.801 93.4318C227.498 94.2955 227.347 95.2614 227.347 96.3295C227.347 97.3902 227.498 98.3523 227.801 99.2159C228.112 100.08 228.578 100.769 229.199 101.284C229.828 101.792 230.616 102.045 231.562 102.045ZM243.395 105V87.5455H247.384V90.4545H247.565C247.884 89.447 248.429 88.6705 249.202 88.125C249.982 87.572 250.872 87.2955 251.872 87.2955C252.099 87.2955 252.353 87.3068 252.634 87.3295C252.921 87.3447 253.16 87.3712 253.349 87.4091V91.1932C253.175 91.1326 252.899 91.0795 252.52 91.0341C252.149 90.9811 251.789 90.9545 251.44 90.9545C250.69 90.9545 250.016 91.1174 249.418 91.4432C248.827 91.7614 248.361 92.2045 248.02 92.7727C247.679 93.3409 247.509 93.9962 247.509 94.7386V105H243.395ZM272.088 105H264.202V81.7273H272.247C274.558 81.7273 276.543 82.1932 278.202 83.125C279.868 84.0492 281.149 85.3788 282.043 87.1136C282.937 88.8485 283.384 90.9242 283.384 93.3409C283.384 95.7652 282.933 97.8485 282.031 99.5909C281.137 101.333 279.846 102.67 278.156 103.602C276.474 104.534 274.452 105 272.088 105ZM268.418 101.352H271.884C273.505 101.352 274.857 101.057 275.94 100.466C277.024 99.8674 277.838 98.9773 278.384 97.7955C278.929 96.6061 279.202 95.1212 279.202 93.3409C279.202 91.5606 278.929 90.0833 278.384 88.9091C277.838 87.7273 277.031 86.8447 275.963 86.2614C274.902 85.6705 273.584 85.375 272.009 85.375H268.418V101.352ZM292.23 105.352C291.124 105.352 290.128 105.155 289.241 104.761C288.363 104.36 287.666 103.769 287.151 102.989C286.643 102.208 286.389 101.246 286.389 100.102C286.389 99.1174 286.571 98.303 286.935 97.6591C287.298 97.0152 287.795 96.5 288.423 96.1136C289.052 95.7273 289.76 95.4356 290.548 95.2386C291.344 95.0341 292.166 94.8864 293.014 94.7955C294.037 94.6894 294.866 94.5947 295.503 94.5114C296.139 94.4205 296.601 94.2841 296.889 94.1023C297.185 93.9129 297.332 93.6212 297.332 93.2273V93.1591C297.332 92.303 297.079 91.6402 296.571 91.1705C296.063 90.7008 295.332 90.4659 294.378 90.4659C293.37 90.4659 292.571 90.6856 291.98 91.125C291.397 91.5644 291.003 92.0833 290.798 92.6818L286.957 92.1364C287.26 91.0758 287.76 90.1894 288.457 89.4773C289.154 88.7576 290.007 88.2197 291.014 87.8636C292.022 87.5 293.135 87.3182 294.355 87.3182C295.196 87.3182 296.033 87.4167 296.866 87.6136C297.7 87.8106 298.461 88.1364 299.151 88.5909C299.84 89.0379 300.393 89.6477 300.81 90.4205C301.234 91.1932 301.446 92.1591 301.446 93.3182V105H297.491V102.602H297.355C297.105 103.087 296.753 103.542 296.298 103.966C295.851 104.383 295.287 104.72 294.605 104.977C293.931 105.227 293.139 105.352 292.23 105.352ZM293.298 102.33C294.124 102.33 294.84 102.167 295.446 101.841C296.052 101.508 296.518 101.068 296.844 100.523C297.177 99.9773 297.344 99.3826 297.344 98.7386V96.6818C297.215 96.7879 296.995 96.8864 296.685 96.9773C296.382 97.0682 296.041 97.1477 295.662 97.2159C295.283 97.2841 294.908 97.3447 294.537 97.3977C294.166 97.4508 293.844 97.4962 293.571 97.5341C292.957 97.6174 292.408 97.7538 291.923 97.9432C291.438 98.1326 291.056 98.3977 290.776 98.7386C290.495 99.072 290.355 99.5038 290.355 100.034C290.355 100.792 290.632 101.364 291.185 101.75C291.738 102.136 292.442 102.33 293.298 102.33ZM314.298 87.5455V90.7273H304.264V87.5455H314.298ZM306.741 83.3636H310.855V99.75C310.855 100.303 310.938 100.727 311.105 101.023C311.279 101.311 311.507 101.508 311.787 101.614C312.067 101.72 312.378 101.773 312.719 101.773C312.976 101.773 313.211 101.754 313.423 101.716C313.643 101.678 313.81 101.644 313.923 101.614L314.616 104.83C314.397 104.905 314.082 104.989 313.673 105.08C313.272 105.17 312.779 105.223 312.196 105.239C311.166 105.269 310.238 105.114 309.412 104.773C308.586 104.424 307.931 103.886 307.446 103.159C306.969 102.432 306.734 101.523 306.741 100.432V83.3636ZM322.761 105.352C321.655 105.352 320.659 105.155 319.773 104.761C318.894 104.36 318.197 103.769 317.682 102.989C317.174 102.208 316.92 101.246 316.92 100.102C316.92 99.1174 317.102 98.303 317.466 97.6591C317.83 97.0152 318.326 96.5 318.955 96.1136C319.583 95.7273 320.292 95.4356 321.08 95.2386C321.875 95.0341 322.697 94.8864 323.545 94.7955C324.568 94.6894 325.398 94.5947 326.034 94.5114C326.67 94.4205 327.133 94.2841 327.42 94.1023C327.716 93.9129 327.864 93.6212 327.864 93.2273V93.1591C327.864 92.303 327.61 91.6402 327.102 91.1705C326.595 90.7008 325.864 90.4659 324.909 90.4659C323.902 90.4659 323.102 90.6856 322.511 91.125C321.928 91.5644 321.534 92.0833 321.33 92.6818L317.489 92.1364C317.792 91.0758 318.292 90.1894 318.989 89.4773C319.686 88.7576 320.538 88.2197 321.545 87.8636C322.553 87.5 323.667 87.3182 324.886 87.3182C325.727 87.3182 326.564 87.4167 327.398 87.6136C328.231 87.8106 328.992 88.1364 329.682 88.5909C330.371 89.0379 330.924 89.6477 331.341 90.4205C331.765 91.1932 331.977 92.1591 331.977 93.3182V105H328.023V102.602H327.886C327.636 103.087 327.284 103.542 326.83 103.966C326.383 104.383 325.818 104.72 325.136 104.977C324.462 105.227 323.67 105.352 322.761 105.352ZM323.83 102.33C324.655 102.33 325.371 102.167 325.977 101.841C326.583 101.508 327.049 101.068 327.375 100.523C327.708 99.9773 327.875 99.3826 327.875 98.7386V96.6818C327.746 96.7879 327.527 96.8864 327.216 96.9773C326.913 97.0682 326.572 97.1477 326.193 97.2159C325.814 97.2841 325.439 97.3447 325.068 97.3977C324.697 97.4508 324.375 97.4962 324.102 97.5341C323.489 97.6174 322.939 97.7538 322.455 97.9432C321.97 98.1326 321.587 98.3977 321.307 98.7386C321.027 99.072 320.886 99.5038 320.886 100.034C320.886 100.792 321.163 101.364 321.716 101.75C322.269 102.136 322.973 102.33 323.83 102.33Z" fill="black"/>
<path d="M230.916 207.158C225.125 207.158 220.491 211.792 220.491 217.583C220.491 223.375 225.125 228.008 230.916 228.008C236.708 228.008 241.341 223.375 241.341 217.583C241.341 211.792 236.708 207.158 230.916 207.158ZM263.755 211.792C263.755 223.051 268.228 233.849 276.189 241.81C284.151 249.772 294.949 254.244 306.208 254.244V246.542C296.992 246.542 288.153 242.88 281.636 236.363C275.119 229.847 271.458 221.008 271.458 211.792H263.755ZM279.161 211.792C279.161 226.734 291.266 238.839 306.208 238.839V231.078C295.551 231.078 286.922 222.448 286.922 211.792H279.161ZM294.625 211.792C294.625 214.864 295.845 217.81 298.017 219.982C300.19 222.154 303.136 223.375 306.208 223.375V211.792H294.625ZM218.87 229.34C217.885 229.34 216.901 229.514 215.974 229.804L184.583 239.592V269.708H195.008V248.453L207.228 244.63L184.583 333.417H195.008L211.63 286.446L225.125 304.458V333.417H235.55V296.292L221.128 269.998L225.356 253.376L231.611 263.917H259.875V253.492H238.909L227.326 234.205C225.588 231.309 222.461 229.34 218.87 229.34Z" fill="#006064"/>
</svg>
