<svg width="480" height="450" viewBox="0 0 480 450" fill="none" xmlns="http://www.w3.org/2000/svg">
<g clip-path="url(#clip0_1034_16955)">
<rect width="480" height="450" fill="#E1F0F1"/>
<path d="M132.295 107V83.7273H141.205C142.886 83.7273 144.284 83.9924 145.398 84.5227C146.519 85.0455 147.356 85.7614 147.909 86.6705C148.47 87.5795 148.75 88.6098 148.75 89.7614C148.75 90.7083 148.568 91.5189 148.205 92.1932C147.841 92.8598 147.352 93.4015 146.739 93.8182C146.125 94.2348 145.439 94.5341 144.682 94.7159V94.9432C145.508 94.9886 146.299 95.2424 147.057 95.7045C147.822 96.1591 148.447 96.803 148.932 97.6364C149.417 98.4697 149.659 99.4773 149.659 100.659C149.659 101.864 149.367 102.947 148.784 103.909C148.201 104.864 147.322 105.617 146.148 106.17C144.973 106.723 143.496 107 141.716 107H132.295ZM136.511 103.477H141.045C142.576 103.477 143.678 103.186 144.352 102.602C145.034 102.011 145.375 101.254 145.375 100.33C145.375 99.6402 145.205 99.0189 144.864 98.4659C144.523 97.9053 144.038 97.4659 143.409 97.1477C142.78 96.822 142.03 96.6591 141.159 96.6591H136.511V103.477ZM136.511 93.625H140.682C141.409 93.625 142.064 93.4924 142.648 93.2273C143.231 92.9545 143.689 92.572 144.023 92.0795C144.364 91.5795 144.534 90.9886 144.534 90.3068C144.534 89.4053 144.216 88.6629 143.58 88.0795C142.951 87.4962 142.015 87.2045 140.773 87.2045H136.511V93.625ZM160.759 107.341C159.054 107.341 157.577 106.966 156.327 106.216C155.077 105.466 154.107 104.417 153.418 103.068C152.736 101.72 152.395 100.144 152.395 98.3409C152.395 96.5379 152.736 94.9583 153.418 93.6023C154.107 92.2462 155.077 91.1932 156.327 90.4432C157.577 89.6932 159.054 89.3182 160.759 89.3182C162.463 89.3182 163.94 89.6932 165.19 90.4432C166.44 91.1932 167.406 92.2462 168.088 93.6023C168.777 94.9583 169.122 96.5379 169.122 98.3409C169.122 100.144 168.777 101.72 168.088 103.068C167.406 104.417 166.44 105.466 165.19 106.216C163.94 106.966 162.463 107.341 160.759 107.341ZM160.781 104.045C161.705 104.045 162.478 103.792 163.099 103.284C163.721 102.769 164.183 102.08 164.486 101.216C164.796 100.352 164.952 99.3902 164.952 98.3295C164.952 97.2614 164.796 96.2955 164.486 95.4318C164.183 94.5606 163.721 93.8674 163.099 93.3523C162.478 92.8371 161.705 92.5795 160.781 92.5795C159.834 92.5795 159.046 92.8371 158.418 93.3523C157.796 93.8674 157.33 94.5606 157.02 95.4318C156.717 96.2955 156.565 97.2614 156.565 98.3295C156.565 99.3902 156.717 100.352 157.02 101.216C157.33 102.08 157.796 102.769 158.418 103.284C159.046 103.792 159.834 104.045 160.781 104.045ZM180.227 107.341C178.523 107.341 177.045 106.966 175.795 106.216C174.545 105.466 173.576 104.417 172.886 103.068C172.205 101.72 171.864 100.144 171.864 98.3409C171.864 96.5379 172.205 94.9583 172.886 93.6023C173.576 92.2462 174.545 91.1932 175.795 90.4432C177.045 89.6932 178.523 89.3182 180.227 89.3182C181.932 89.3182 183.409 89.6932 184.659 90.4432C185.909 91.1932 186.875 92.2462 187.557 93.6023C188.246 94.9583 188.591 96.5379 188.591 98.3409C188.591 100.144 188.246 101.72 187.557 103.068C186.875 104.417 185.909 105.466 184.659 106.216C183.409 106.966 181.932 107.341 180.227 107.341ZM180.25 104.045C181.174 104.045 181.947 103.792 182.568 103.284C183.189 102.769 183.652 102.08 183.955 101.216C184.265 100.352 184.42 99.3902 184.42 98.3295C184.42 97.2614 184.265 96.2955 183.955 95.4318C183.652 94.5606 183.189 93.8674 182.568 93.3523C181.947 92.8371 181.174 92.5795 180.25 92.5795C179.303 92.5795 178.515 92.8371 177.886 93.3523C177.265 93.8674 176.799 94.5606 176.489 95.4318C176.186 96.2955 176.034 97.2614 176.034 98.3295C176.034 99.3902 176.186 100.352 176.489 101.216C176.799 102.08 177.265 102.769 177.886 103.284C178.515 103.792 179.303 104.045 180.25 104.045ZM195.832 101.523L195.821 96.5568H196.48L202.753 89.5455H207.56L199.844 98.1364H198.991L195.832 101.523ZM192.082 107V83.7273H196.196V107H192.082ZM203.037 107L197.355 99.0568L200.128 96.1591L207.957 107H203.037ZM210.301 107V89.5455H214.415V107H210.301ZM212.369 87.0682C211.718 87.0682 211.157 86.8523 210.688 86.4205C210.218 85.9811 209.983 85.4545 209.983 84.8409C209.983 84.2197 210.218 83.6932 210.688 83.2614C211.157 82.822 211.718 82.6023 212.369 82.6023C213.028 82.6023 213.589 82.822 214.051 83.2614C214.521 83.6932 214.756 84.2197 214.756 84.8409C214.756 85.4545 214.521 85.9811 214.051 86.4205C213.589 86.8523 213.028 87.0682 212.369 87.0682ZM222.759 96.7727V107H218.645V89.5455H222.577V92.5114H222.781C223.183 91.5341 223.823 90.7576 224.702 90.1818C225.588 89.6061 226.683 89.3182 227.986 89.3182C229.19 89.3182 230.24 89.5758 231.134 90.0909C232.035 90.6061 232.732 91.3523 233.224 92.3295C233.724 93.3068 233.971 94.4924 233.963 95.8864V107H229.849V96.5227C229.849 95.3561 229.546 94.4432 228.94 93.7841C228.342 93.125 227.512 92.7955 226.452 92.7955C225.732 92.7955 225.092 92.9545 224.531 93.2727C223.978 93.5833 223.543 94.0341 223.224 94.625C222.914 95.2159 222.759 95.9318 222.759 96.7727ZM245.736 113.909C244.259 113.909 242.99 113.708 241.929 113.307C240.868 112.913 240.016 112.383 239.372 111.716C238.728 111.049 238.281 110.311 238.031 109.5L241.736 108.602C241.902 108.943 242.145 109.28 242.463 109.614C242.781 109.955 243.209 110.235 243.747 110.455C244.293 110.682 244.978 110.795 245.804 110.795C246.971 110.795 247.937 110.511 248.702 109.943C249.467 109.383 249.849 108.458 249.849 107.17V103.864H249.645C249.433 104.288 249.122 104.723 248.713 105.17C248.312 105.617 247.777 105.992 247.111 106.295C246.452 106.598 245.622 106.75 244.622 106.75C243.281 106.75 242.065 106.436 240.974 105.807C239.891 105.17 239.027 104.223 238.384 102.966C237.747 101.701 237.429 100.117 237.429 98.2159C237.429 96.2992 237.747 94.6818 238.384 93.3636C239.027 92.0379 239.895 91.0341 240.986 90.3523C242.077 89.6629 243.293 89.3182 244.634 89.3182C245.656 89.3182 246.497 89.4924 247.156 89.8409C247.823 90.1818 248.353 90.5947 248.747 91.0795C249.141 91.5568 249.44 92.0076 249.645 92.4318H249.872V89.5455H253.929V107.284C253.929 108.777 253.573 110.011 252.861 110.989C252.149 111.966 251.175 112.697 249.94 113.182C248.705 113.667 247.304 113.909 245.736 113.909ZM245.77 103.523C246.641 103.523 247.384 103.311 247.997 102.886C248.611 102.462 249.077 101.852 249.395 101.057C249.713 100.261 249.872 99.3068 249.872 98.1932C249.872 97.0947 249.713 96.1326 249.395 95.3068C249.084 94.4811 248.622 93.8409 248.009 93.3864C247.402 92.9242 246.656 92.6932 245.77 92.6932C244.853 92.6932 244.088 92.9318 243.474 93.4091C242.861 93.8864 242.399 94.5417 242.088 95.375C241.777 96.2008 241.622 97.1402 241.622 98.1932C241.622 99.2614 241.777 100.197 242.088 101C242.406 101.795 242.872 102.417 243.486 102.864C244.107 103.303 244.868 103.523 245.77 103.523ZM274.151 107H266.264V83.7273H274.31C276.62 83.7273 278.605 84.1932 280.264 85.125C281.931 86.0492 283.211 87.3788 284.105 89.1136C284.999 90.8485 285.446 92.9242 285.446 95.3409C285.446 97.7652 284.995 99.8485 284.094 101.591C283.2 103.333 281.908 104.67 280.219 105.602C278.537 106.534 276.514 107 274.151 107ZM270.48 103.352H273.946C275.567 103.352 276.92 103.057 278.003 102.466C279.086 101.867 279.901 100.977 280.446 99.7955C280.991 98.6061 281.264 97.1212 281.264 95.3409C281.264 93.5606 280.991 92.0833 280.446 90.9091C279.901 89.7273 279.094 88.8447 278.026 88.2614C276.965 87.6705 275.647 87.375 274.071 87.375H270.48V103.352ZM294.293 107.352C293.187 107.352 292.19 107.155 291.304 106.761C290.425 106.36 289.728 105.769 289.213 104.989C288.705 104.208 288.452 103.246 288.452 102.102C288.452 101.117 288.634 100.303 288.997 99.6591C289.361 99.0152 289.857 98.5 290.486 98.1136C291.115 97.7273 291.823 97.4356 292.611 97.2386C293.406 97.0341 294.228 96.8864 295.077 96.7955C296.099 96.6894 296.929 96.5947 297.565 96.5114C298.202 96.4205 298.664 96.2841 298.952 96.1023C299.247 95.9129 299.395 95.6212 299.395 95.2273V95.1591C299.395 94.303 299.141 93.6402 298.634 93.1705C298.126 92.7008 297.395 92.4659 296.44 92.4659C295.433 92.4659 294.634 92.6856 294.043 93.125C293.459 93.5644 293.065 94.0833 292.861 94.6818L289.02 94.1364C289.323 93.0758 289.823 92.1894 290.52 91.4773C291.217 90.7576 292.069 90.2197 293.077 89.8636C294.084 89.5 295.198 89.3182 296.418 89.3182C297.259 89.3182 298.096 89.4167 298.929 89.6136C299.762 89.8106 300.524 90.1364 301.213 90.5909C301.902 91.0379 302.455 91.6477 302.872 92.4205C303.296 93.1932 303.509 94.1591 303.509 95.3182V107H299.554V104.602H299.418C299.168 105.087 298.815 105.542 298.361 105.966C297.914 106.383 297.349 106.72 296.668 106.977C295.993 107.227 295.202 107.352 294.293 107.352ZM295.361 104.33C296.187 104.33 296.902 104.167 297.509 103.841C298.115 103.508 298.58 103.068 298.906 102.523C299.24 101.977 299.406 101.383 299.406 100.739V98.6818C299.277 98.7879 299.058 98.8864 298.747 98.9773C298.444 99.0682 298.103 99.1477 297.724 99.2159C297.346 99.2841 296.971 99.3447 296.599 99.3977C296.228 99.4508 295.906 99.4962 295.634 99.5341C295.02 99.6174 294.471 99.7538 293.986 99.9432C293.501 100.133 293.118 100.398 292.838 100.739C292.558 101.072 292.418 101.504 292.418 102.034C292.418 102.792 292.694 103.364 293.247 103.75C293.8 104.136 294.505 104.33 295.361 104.33ZM316.361 89.5455V92.7273H306.327V89.5455H316.361ZM308.804 85.3636H312.918V101.75C312.918 102.303 313.001 102.727 313.168 103.023C313.342 103.311 313.569 103.508 313.849 103.614C314.13 103.72 314.44 103.773 314.781 103.773C315.039 103.773 315.274 103.754 315.486 103.716C315.705 103.678 315.872 103.644 315.986 103.614L316.679 106.83C316.459 106.905 316.145 106.989 315.736 107.08C315.334 107.17 314.842 107.223 314.259 107.239C313.228 107.269 312.3 107.114 311.474 106.773C310.649 106.424 309.993 105.886 309.509 105.159C309.031 104.432 308.796 103.523 308.804 102.432V85.3636ZM324.824 107.352C323.718 107.352 322.722 107.155 321.835 106.761C320.956 106.36 320.259 105.769 319.744 104.989C319.237 104.208 318.983 103.246 318.983 102.102C318.983 101.117 319.165 100.303 319.528 99.6591C319.892 99.0152 320.388 98.5 321.017 98.1136C321.646 97.7273 322.354 97.4356 323.142 97.2386C323.938 97.0341 324.759 96.8864 325.608 96.7955C326.631 96.6894 327.46 96.5947 328.097 96.5114C328.733 96.4205 329.195 96.2841 329.483 96.1023C329.778 95.9129 329.926 95.6212 329.926 95.2273V95.1591C329.926 94.303 329.672 93.6402 329.165 93.1705C328.657 92.7008 327.926 92.4659 326.972 92.4659C325.964 92.4659 325.165 92.6856 324.574 93.125C323.991 93.5644 323.597 94.0833 323.392 94.6818L319.551 94.1364C319.854 93.0758 320.354 92.1894 321.051 91.4773C321.748 90.7576 322.6 90.2197 323.608 89.8636C324.616 89.5 325.729 89.3182 326.949 89.3182C327.79 89.3182 328.627 89.4167 329.46 89.6136C330.294 89.8106 331.055 90.1364 331.744 90.5909C332.434 91.0379 332.987 91.6477 333.403 92.4205C333.828 93.1932 334.04 94.1591 334.04 95.3182V107H330.085V104.602H329.949C329.699 105.087 329.347 105.542 328.892 105.966C328.445 106.383 327.881 106.72 327.199 106.977C326.525 107.227 325.733 107.352 324.824 107.352ZM325.892 104.33C326.718 104.33 327.434 104.167 328.04 103.841C328.646 103.508 329.112 103.068 329.438 102.523C329.771 101.977 329.938 101.383 329.938 100.739V98.6818C329.809 98.7879 329.589 98.8864 329.278 98.9773C328.975 99.0682 328.634 99.1477 328.256 99.2159C327.877 99.2841 327.502 99.3447 327.131 99.3977C326.759 99.4508 326.438 99.4962 326.165 99.5341C325.551 99.6174 325.002 99.7538 324.517 99.9432C324.032 100.133 323.65 100.398 323.369 100.739C323.089 101.072 322.949 101.504 322.949 102.034C322.949 102.792 323.225 103.364 323.778 103.75C324.331 104.136 325.036 104.33 325.892 104.33Z" fill="black"/>
<path fill-rule="evenodd" clip-rule="evenodd" d="M296.062 225.25H283.125V216.625H274.5V225.25H205.5V216.625H196.875V225.25H183.938L179.625 229.562V333.062L183.938 337.375H296.062L300.375 333.062V229.562L296.062 225.25ZM291.75 328.75H188.25V251.125H291.75V328.75ZM291.75 242.5H188.25V233.875H291.75V242.5ZM205.5 277H196.875V285.625H205.5V277ZM196.875 294.25H205.5V302.875H196.875V294.25ZM205.5 311.5H196.875V320.125H205.5V311.5ZM222.75 277H231.375V285.625H222.75V277ZM231.375 294.25H222.75V302.875H231.375V294.25ZM222.75 311.5H231.375V320.125H222.75V311.5ZM231.375 259.75H222.75V268.375H231.375V259.75ZM248.625 277H257.25V285.625H248.625V277ZM257.25 294.25H248.625V302.875H257.25V294.25ZM248.625 311.5H257.25V320.125H248.625V311.5ZM257.25 259.75H248.625V268.375H257.25V259.75ZM274.5 277H283.125V285.625H274.5V277ZM283.125 294.25H274.5V302.875H283.125V294.25ZM274.5 259.75H283.125V268.375H274.5V259.75Z" fill="#006064"/>
</g>
<defs>
<clipPath id="clip0_1034_16955">
<rect width="480" height="450" fill="white"/>
</clipPath>
</defs>
</svg>
