<svg width="480" height="450" viewBox="0 0 480 450" fill="none" xmlns="http://www.w3.org/2000/svg">
<g clip-path="url(#clip0_1037_26717)">
<rect width="480" height="450" fill="#E1F0F1"/>
<path d="M198.295 78V54.7273H213.205V58.2614H202.511V64.5795H212.182V68.1136H202.511V78H198.295ZM220.977 54.7273V78H216.864V54.7273H220.977ZM232.821 78.3409C231.116 78.3409 229.639 77.9659 228.389 77.2159C227.139 76.4659 226.17 75.4167 225.48 74.0682C224.798 72.7197 224.457 71.1439 224.457 69.3409C224.457 67.5379 224.798 65.9583 225.48 64.6023C226.17 63.2462 227.139 62.1932 228.389 61.4432C229.639 60.6932 231.116 60.3182 232.821 60.3182C234.526 60.3182 236.003 60.6932 237.253 61.4432C238.503 62.1932 239.469 63.2462 240.151 64.6023C240.84 65.9583 241.185 67.5379 241.185 69.3409C241.185 71.1439 240.84 72.7197 240.151 74.0682C239.469 75.4167 238.503 76.4659 237.253 77.2159C236.003 77.9659 234.526 78.3409 232.821 78.3409ZM232.844 75.0455C233.768 75.0455 234.541 74.7917 235.162 74.2841C235.783 73.7689 236.245 73.0795 236.548 72.2159C236.859 71.3523 237.014 70.3902 237.014 69.3295C237.014 68.2614 236.859 67.2955 236.548 66.4318C236.245 65.5606 235.783 64.8674 235.162 64.3523C234.541 63.8371 233.768 63.5795 232.844 63.5795C231.897 63.5795 231.109 63.8371 230.48 64.3523C229.859 64.8674 229.393 65.5606 229.082 66.4318C228.779 67.2955 228.628 68.2614 228.628 69.3295C228.628 70.3902 228.779 71.3523 229.082 72.2159C229.393 73.0795 229.859 73.7689 230.48 74.2841C231.109 74.7917 231.897 75.0455 232.844 75.0455ZM252.29 78.3409C250.585 78.3409 249.108 77.9659 247.858 77.2159C246.608 76.4659 245.638 75.4167 244.949 74.0682C244.267 72.7197 243.926 71.1439 243.926 69.3409C243.926 67.5379 244.267 65.9583 244.949 64.6023C245.638 63.2462 246.608 62.1932 247.858 61.4432C249.108 60.6932 250.585 60.3182 252.29 60.3182C253.994 60.3182 255.472 60.6932 256.722 61.4432C257.972 62.1932 258.938 63.2462 259.619 64.6023C260.309 65.9583 260.653 67.5379 260.653 69.3409C260.653 71.1439 260.309 72.7197 259.619 74.0682C258.938 75.4167 257.972 76.4659 256.722 77.2159C255.472 77.9659 253.994 78.3409 252.29 78.3409ZM252.312 75.0455C253.237 75.0455 254.009 74.7917 254.631 74.2841C255.252 73.7689 255.714 73.0795 256.017 72.2159C256.328 71.3523 256.483 70.3902 256.483 69.3295C256.483 68.2614 256.328 67.2955 256.017 66.4318C255.714 65.5606 255.252 64.8674 254.631 64.3523C254.009 63.8371 253.237 63.5795 252.312 63.5795C251.366 63.5795 250.578 63.8371 249.949 64.3523C249.328 64.8674 248.862 65.5606 248.551 66.4318C248.248 67.2955 248.097 68.2614 248.097 69.3295C248.097 70.3902 248.248 71.3523 248.551 72.2159C248.862 73.0795 249.328 73.7689 249.949 74.2841C250.578 74.7917 251.366 75.0455 252.312 75.0455ZM264.145 78V60.5455H268.134V63.4545H268.315C268.634 62.447 269.179 61.6705 269.952 61.125C270.732 60.572 271.622 60.2955 272.622 60.2955C272.849 60.2955 273.103 60.3068 273.384 60.3295C273.671 60.3447 273.91 60.3712 274.099 60.4091V64.1932C273.925 64.1326 273.649 64.0795 273.27 64.0341C272.899 63.9811 272.539 63.9545 272.19 63.9545C271.44 63.9545 270.766 64.1174 270.168 64.4432C269.577 64.7614 269.111 65.2045 268.77 65.7727C268.429 66.3409 268.259 66.9962 268.259 67.7386V78H264.145Z" fill="black"/>
<path d="M115.969 198.625H108.938V142.375H111.281C111.903 142.375 112.499 142.128 112.939 141.689C113.378 141.249 113.625 140.653 113.625 140.031C113.625 139.41 113.378 138.814 112.939 138.374C112.499 137.934 111.903 137.688 111.281 137.688H59.7188C59.0971 137.688 58.501 137.934 58.0615 138.374C57.6219 138.814 57.375 139.41 57.375 140.031C57.375 140.653 57.6219 141.249 58.0615 141.689C58.501 142.128 59.0971 142.375 59.7188 142.375H62.0625V198.625H55.0312C54.4096 198.625 53.8135 198.872 53.374 199.311C52.9344 199.751 52.6875 200.347 52.6875 200.969C52.6875 201.59 52.9344 202.186 53.374 202.626C53.8135 203.066 54.4096 203.312 55.0312 203.312H115.969C116.59 203.312 117.186 203.066 117.626 202.626C118.066 202.186 118.312 201.59 118.312 200.969C118.312 200.347 118.066 199.751 117.626 199.311C117.186 198.872 116.59 198.625 115.969 198.625ZM66.75 142.375H104.25V198.625H94.875V186.906C94.875 186.285 94.6281 185.689 94.1885 185.249C93.749 184.809 93.1529 184.562 92.5312 184.562H78.4688C77.8471 184.562 77.251 184.809 76.8115 185.249C76.3719 185.689 76.125 186.285 76.125 186.906V198.625H66.75V142.375ZM90.1875 198.625H80.8125V189.25H90.1875V198.625ZM73.7812 151.75C73.7812 151.128 74.0282 150.532 74.4677 150.093C74.9073 149.653 75.5034 149.406 76.125 149.406H80.8125C81.4341 149.406 82.0302 149.653 82.4698 150.093C82.9093 150.532 83.1562 151.128 83.1562 151.75C83.1562 152.372 82.9093 152.968 82.4698 153.407C82.0302 153.847 81.4341 154.094 80.8125 154.094H76.125C75.5034 154.094 74.9073 153.847 74.4677 153.407C74.0282 152.968 73.7812 152.372 73.7812 151.75ZM87.8438 151.75C87.8438 151.128 88.0907 150.532 88.5302 150.093C88.9698 149.653 89.5659 149.406 90.1875 149.406H94.875C95.4966 149.406 96.0927 149.653 96.5323 150.093C96.9718 150.532 97.2188 151.128 97.2188 151.75C97.2188 152.372 96.9718 152.968 96.5323 153.407C96.0927 153.847 95.4966 154.094 94.875 154.094H90.1875C89.5659 154.094 88.9698 153.847 88.5302 153.407C88.0907 152.968 87.8438 152.372 87.8438 151.75ZM73.7812 163.469C73.7812 162.847 74.0282 162.251 74.4677 161.811C74.9073 161.372 75.5034 161.125 76.125 161.125H80.8125C81.4341 161.125 82.0302 161.372 82.4698 161.811C82.9093 162.251 83.1562 162.847 83.1562 163.469C83.1562 164.09 82.9093 164.686 82.4698 165.126C82.0302 165.566 81.4341 165.812 80.8125 165.812H76.125C75.5034 165.812 74.9073 165.566 74.4677 165.126C74.0282 164.686 73.7812 164.09 73.7812 163.469ZM87.8438 163.469C87.8438 162.847 88.0907 162.251 88.5302 161.811C88.9698 161.372 89.5659 161.125 90.1875 161.125H94.875C95.4966 161.125 96.0927 161.372 96.5323 161.811C96.9718 162.251 97.2188 162.847 97.2188 163.469C97.2188 164.09 96.9718 164.686 96.5323 165.126C96.0927 165.566 95.4966 165.812 94.875 165.812H90.1875C89.5659 165.812 88.9698 165.566 88.5302 165.126C88.0907 164.686 87.8438 164.09 87.8438 163.469ZM73.7812 175.188C73.7812 174.566 74.0282 173.97 74.4677 173.53C74.9073 173.091 75.5034 172.844 76.125 172.844H80.8125C81.4341 172.844 82.0302 173.091 82.4698 173.53C82.9093 173.97 83.1562 174.566 83.1562 175.188C83.1562 175.809 82.9093 176.405 82.4698 176.845C82.0302 177.284 81.4341 177.531 80.8125 177.531H76.125C75.5034 177.531 74.9073 177.284 74.4677 176.845C74.0282 176.405 73.7812 175.809 73.7812 175.188ZM87.8438 175.188C87.8438 174.566 88.0907 173.97 88.5302 173.53C88.9698 173.091 89.5659 172.844 90.1875 172.844H94.875C95.4966 172.844 96.0927 173.091 96.5323 173.53C96.9718 173.97 97.2188 174.566 97.2188 175.188C97.2188 175.809 96.9718 176.405 96.5323 176.845C96.0927 177.284 95.4966 177.531 94.875 177.531H90.1875C89.5659 177.531 88.9698 177.284 88.5302 176.845C88.0907 176.405 87.8438 175.809 87.8438 175.188Z" fill="#9DC8D0"/>
<path d="M115.969 292.625H108.938V236.375H111.281C111.903 236.375 112.499 236.128 112.939 235.689C113.378 235.249 113.625 234.653 113.625 234.031C113.625 233.41 113.378 232.814 112.939 232.374C112.499 231.934 111.903 231.688 111.281 231.688H59.7188C59.0971 231.688 58.501 231.934 58.0615 232.374C57.6219 232.814 57.375 233.41 57.375 234.031C57.375 234.653 57.6219 235.249 58.0615 235.689C58.501 236.128 59.0971 236.375 59.7188 236.375H62.0625V292.625H55.0312C54.4096 292.625 53.8135 292.872 53.374 293.311C52.9344 293.751 52.6875 294.347 52.6875 294.969C52.6875 295.59 52.9344 296.186 53.374 296.626C53.8135 297.066 54.4096 297.312 55.0312 297.312H115.969C116.59 297.312 117.186 297.066 117.626 296.626C118.066 296.186 118.312 295.59 118.312 294.969C118.312 294.347 118.066 293.751 117.626 293.311C117.186 292.872 116.59 292.625 115.969 292.625ZM66.75 236.375H104.25V292.625H94.875V280.906C94.875 280.285 94.6281 279.689 94.1885 279.249C93.749 278.809 93.1529 278.562 92.5312 278.562H78.4688C77.8471 278.562 77.251 278.809 76.8115 279.249C76.3719 279.689 76.125 280.285 76.125 280.906V292.625H66.75V236.375ZM90.1875 292.625H80.8125V283.25H90.1875V292.625ZM73.7812 245.75C73.7812 245.128 74.0282 244.532 74.4677 244.093C74.9073 243.653 75.5034 243.406 76.125 243.406H80.8125C81.4341 243.406 82.0302 243.653 82.4698 244.093C82.9093 244.532 83.1562 245.128 83.1562 245.75C83.1562 246.372 82.9093 246.968 82.4698 247.407C82.0302 247.847 81.4341 248.094 80.8125 248.094H76.125C75.5034 248.094 74.9073 247.847 74.4677 247.407C74.0282 246.968 73.7812 246.372 73.7812 245.75ZM87.8438 245.75C87.8438 245.128 88.0907 244.532 88.5302 244.093C88.9698 243.653 89.5659 243.406 90.1875 243.406H94.875C95.4966 243.406 96.0927 243.653 96.5323 244.093C96.9718 244.532 97.2188 245.128 97.2188 245.75C97.2188 246.372 96.9718 246.968 96.5323 247.407C96.0927 247.847 95.4966 248.094 94.875 248.094H90.1875C89.5659 248.094 88.9698 247.847 88.5302 247.407C88.0907 246.968 87.8438 246.372 87.8438 245.75ZM73.7812 257.469C73.7812 256.847 74.0282 256.251 74.4677 255.811C74.9073 255.372 75.5034 255.125 76.125 255.125H80.8125C81.4341 255.125 82.0302 255.372 82.4698 255.811C82.9093 256.251 83.1562 256.847 83.1562 257.469C83.1562 258.09 82.9093 258.686 82.4698 259.126C82.0302 259.566 81.4341 259.812 80.8125 259.812H76.125C75.5034 259.812 74.9073 259.566 74.4677 259.126C74.0282 258.686 73.7812 258.09 73.7812 257.469ZM87.8438 257.469C87.8438 256.847 88.0907 256.251 88.5302 255.811C88.9698 255.372 89.5659 255.125 90.1875 255.125H94.875C95.4966 255.125 96.0927 255.372 96.5323 255.811C96.9718 256.251 97.2188 256.847 97.2188 257.469C97.2188 258.09 96.9718 258.686 96.5323 259.126C96.0927 259.566 95.4966 259.812 94.875 259.812H90.1875C89.5659 259.812 88.9698 259.566 88.5302 259.126C88.0907 258.686 87.8438 258.09 87.8438 257.469ZM73.7812 269.188C73.7812 268.566 74.0282 267.97 74.4677 267.53C74.9073 267.091 75.5034 266.844 76.125 266.844H80.8125C81.4341 266.844 82.0302 267.091 82.4698 267.53C82.9093 267.97 83.1562 268.566 83.1562 269.188C83.1562 269.809 82.9093 270.405 82.4698 270.845C82.0302 271.284 81.4341 271.531 80.8125 271.531H76.125C75.5034 271.531 74.9073 271.284 74.4677 270.845C74.0282 270.405 73.7812 269.809 73.7812 269.188ZM87.8438 269.188C87.8438 268.566 88.0907 267.97 88.5302 267.53C88.9698 267.091 89.5659 266.844 90.1875 266.844H94.875C95.4966 266.844 96.0927 267.091 96.5323 267.53C96.9718 267.97 97.2188 268.566 97.2188 269.188C97.2188 269.809 96.9718 270.405 96.5323 270.845C96.0927 271.284 95.4966 271.531 94.875 271.531H90.1875C89.5659 271.531 88.9698 271.284 88.5302 270.845C88.0907 270.405 87.8438 269.809 87.8438 269.188Z" fill="#9DC8D0"/>
<path d="M115.969 386.625H108.938V330.375H111.281C111.903 330.375 112.499 330.128 112.939 329.689C113.378 329.249 113.625 328.653 113.625 328.031C113.625 327.41 113.378 326.814 112.939 326.374C112.499 325.934 111.903 325.688 111.281 325.688H59.7188C59.0971 325.688 58.501 325.934 58.0615 326.374C57.6219 326.814 57.375 327.41 57.375 328.031C57.375 328.653 57.6219 329.249 58.0615 329.689C58.501 330.128 59.0971 330.375 59.7188 330.375H62.0625V386.625H55.0312C54.4096 386.625 53.8135 386.872 53.374 387.311C52.9344 387.751 52.6875 388.347 52.6875 388.969C52.6875 389.59 52.9344 390.186 53.374 390.626C53.8135 391.066 54.4096 391.312 55.0312 391.312H115.969C116.59 391.312 117.186 391.066 117.626 390.626C118.066 390.186 118.312 389.59 118.312 388.969C118.312 388.347 118.066 387.751 117.626 387.311C117.186 386.872 116.59 386.625 115.969 386.625ZM66.75 330.375H104.25V386.625H94.875V374.906C94.875 374.285 94.6281 373.689 94.1885 373.249C93.749 372.809 93.1529 372.562 92.5312 372.562H78.4688C77.8471 372.562 77.251 372.809 76.8115 373.249C76.3719 373.689 76.125 374.285 76.125 374.906V386.625H66.75V330.375ZM90.1875 386.625H80.8125V377.25H90.1875V386.625ZM73.7812 339.75C73.7812 339.128 74.0282 338.532 74.4677 338.093C74.9073 337.653 75.5034 337.406 76.125 337.406H80.8125C81.4341 337.406 82.0302 337.653 82.4698 338.093C82.9093 338.532 83.1562 339.128 83.1562 339.75C83.1562 340.372 82.9093 340.968 82.4698 341.407C82.0302 341.847 81.4341 342.094 80.8125 342.094H76.125C75.5034 342.094 74.9073 341.847 74.4677 341.407C74.0282 340.968 73.7812 340.372 73.7812 339.75ZM87.8438 339.75C87.8438 339.128 88.0907 338.532 88.5302 338.093C88.9698 337.653 89.5659 337.406 90.1875 337.406H94.875C95.4966 337.406 96.0927 337.653 96.5323 338.093C96.9718 338.532 97.2188 339.128 97.2188 339.75C97.2188 340.372 96.9718 340.968 96.5323 341.407C96.0927 341.847 95.4966 342.094 94.875 342.094H90.1875C89.5659 342.094 88.9698 341.847 88.5302 341.407C88.0907 340.968 87.8438 340.372 87.8438 339.75ZM73.7812 351.469C73.7812 350.847 74.0282 350.251 74.4677 349.811C74.9073 349.372 75.5034 349.125 76.125 349.125H80.8125C81.4341 349.125 82.0302 349.372 82.4698 349.811C82.9093 350.251 83.1562 350.847 83.1562 351.469C83.1562 352.09 82.9093 352.686 82.4698 353.126C82.0302 353.566 81.4341 353.812 80.8125 353.812H76.125C75.5034 353.812 74.9073 353.566 74.4677 353.126C74.0282 352.686 73.7812 352.09 73.7812 351.469ZM87.8438 351.469C87.8438 350.847 88.0907 350.251 88.5302 349.811C88.9698 349.372 89.5659 349.125 90.1875 349.125H94.875C95.4966 349.125 96.0927 349.372 96.5323 349.811C96.9718 350.251 97.2188 350.847 97.2188 351.469C97.2188 352.09 96.9718 352.686 96.5323 353.126C96.0927 353.566 95.4966 353.812 94.875 353.812H90.1875C89.5659 353.812 88.9698 353.566 88.5302 353.126C88.0907 352.686 87.8438 352.09 87.8438 351.469ZM73.7812 363.188C73.7812 362.566 74.0282 361.97 74.4677 361.53C74.9073 361.091 75.5034 360.844 76.125 360.844H80.8125C81.4341 360.844 82.0302 361.091 82.4698 361.53C82.9093 361.97 83.1562 362.566 83.1562 363.188C83.1562 363.809 82.9093 364.405 82.4698 364.845C82.0302 365.284 81.4341 365.531 80.8125 365.531H76.125C75.5034 365.531 74.9073 365.284 74.4677 364.845C74.0282 364.405 73.7812 363.809 73.7812 363.188ZM87.8438 363.188C87.8438 362.566 88.0907 361.97 88.5302 361.53C88.9698 361.091 89.5659 360.844 90.1875 360.844H94.875C95.4966 360.844 96.0927 361.091 96.5323 361.53C96.9718 361.97 97.2188 362.566 97.2188 363.188C97.2188 363.809 96.9718 364.405 96.5323 364.845C96.0927 365.284 95.4966 365.531 94.875 365.531H90.1875C89.5659 365.531 88.9698 365.284 88.5302 364.845C88.0907 364.405 87.8438 363.809 87.8438 363.188Z" fill="#9DC8D0"/>
<path d="M218.969 198.625H211.938V142.375H214.281C214.903 142.375 215.499 142.128 215.939 141.689C216.378 141.249 216.625 140.653 216.625 140.031C216.625 139.41 216.378 138.814 215.939 138.374C215.499 137.934 214.903 137.688 214.281 137.688H162.719C162.097 137.688 161.501 137.934 161.061 138.374C160.622 138.814 160.375 139.41 160.375 140.031C160.375 140.653 160.622 141.249 161.061 141.689C161.501 142.128 162.097 142.375 162.719 142.375H165.062V198.625H158.031C157.41 198.625 156.814 198.872 156.374 199.311C155.934 199.751 155.688 200.347 155.688 200.969C155.688 201.59 155.934 202.186 156.374 202.626C156.814 203.066 157.41 203.312 158.031 203.312H218.969C219.59 203.312 220.186 203.066 220.626 202.626C221.066 202.186 221.312 201.59 221.312 200.969C221.312 200.347 221.066 199.751 220.626 199.311C220.186 198.872 219.59 198.625 218.969 198.625ZM169.75 142.375H207.25V198.625H197.875V186.906C197.875 186.285 197.628 185.689 197.189 185.249C196.749 184.809 196.153 184.562 195.531 184.562H181.469C180.847 184.562 180.251 184.809 179.811 185.249C179.372 185.689 179.125 186.285 179.125 186.906V198.625H169.75V142.375ZM193.188 198.625H183.812V189.25H193.188V198.625ZM176.781 151.75C176.781 151.128 177.028 150.532 177.468 150.093C177.907 149.653 178.503 149.406 179.125 149.406H183.812C184.434 149.406 185.03 149.653 185.47 150.093C185.909 150.532 186.156 151.128 186.156 151.75C186.156 152.372 185.909 152.968 185.47 153.407C185.03 153.847 184.434 154.094 183.812 154.094H179.125C178.503 154.094 177.907 153.847 177.468 153.407C177.028 152.968 176.781 152.372 176.781 151.75ZM190.844 151.75C190.844 151.128 191.091 150.532 191.53 150.093C191.97 149.653 192.566 149.406 193.188 149.406H197.875C198.497 149.406 199.093 149.653 199.532 150.093C199.972 150.532 200.219 151.128 200.219 151.75C200.219 152.372 199.972 152.968 199.532 153.407C199.093 153.847 198.497 154.094 197.875 154.094H193.188C192.566 154.094 191.97 153.847 191.53 153.407C191.091 152.968 190.844 152.372 190.844 151.75ZM176.781 163.469C176.781 162.847 177.028 162.251 177.468 161.811C177.907 161.372 178.503 161.125 179.125 161.125H183.812C184.434 161.125 185.03 161.372 185.47 161.811C185.909 162.251 186.156 162.847 186.156 163.469C186.156 164.09 185.909 164.686 185.47 165.126C185.03 165.566 184.434 165.812 183.812 165.812H179.125C178.503 165.812 177.907 165.566 177.468 165.126C177.028 164.686 176.781 164.09 176.781 163.469ZM190.844 163.469C190.844 162.847 191.091 162.251 191.53 161.811C191.97 161.372 192.566 161.125 193.188 161.125H197.875C198.497 161.125 199.093 161.372 199.532 161.811C199.972 162.251 200.219 162.847 200.219 163.469C200.219 164.09 199.972 164.686 199.532 165.126C199.093 165.566 198.497 165.812 197.875 165.812H193.188C192.566 165.812 191.97 165.566 191.53 165.126C191.091 164.686 190.844 164.09 190.844 163.469ZM176.781 175.188C176.781 174.566 177.028 173.97 177.468 173.53C177.907 173.091 178.503 172.844 179.125 172.844H183.812C184.434 172.844 185.03 173.091 185.47 173.53C185.909 173.97 186.156 174.566 186.156 175.188C186.156 175.809 185.909 176.405 185.47 176.845C185.03 177.284 184.434 177.531 183.812 177.531H179.125C178.503 177.531 177.907 177.284 177.468 176.845C177.028 176.405 176.781 175.809 176.781 175.188ZM190.844 175.188C190.844 174.566 191.091 173.97 191.53 173.53C191.97 173.091 192.566 172.844 193.188 172.844H197.875C198.497 172.844 199.093 173.091 199.532 173.53C199.972 173.97 200.219 174.566 200.219 175.188C200.219 175.809 199.972 176.405 199.532 176.845C199.093 177.284 198.497 177.531 197.875 177.531H193.188C192.566 177.531 191.97 177.284 191.53 176.845C191.091 176.405 190.844 175.809 190.844 175.188Z" fill="#9DC8D0"/>
<path d="M218.969 292.625H211.938V236.375H214.281C214.903 236.375 215.499 236.128 215.939 235.689C216.378 235.249 216.625 234.653 216.625 234.031C216.625 233.41 216.378 232.814 215.939 232.374C215.499 231.934 214.903 231.688 214.281 231.688H162.719C162.097 231.688 161.501 231.934 161.061 232.374C160.622 232.814 160.375 233.41 160.375 234.031C160.375 234.653 160.622 235.249 161.061 235.689C161.501 236.128 162.097 236.375 162.719 236.375H165.062V292.625H158.031C157.41 292.625 156.814 292.872 156.374 293.311C155.934 293.751 155.688 294.347 155.688 294.969C155.688 295.59 155.934 296.186 156.374 296.626C156.814 297.066 157.41 297.312 158.031 297.312H218.969C219.59 297.312 220.186 297.066 220.626 296.626C221.066 296.186 221.312 295.59 221.312 294.969C221.312 294.347 221.066 293.751 220.626 293.311C220.186 292.872 219.59 292.625 218.969 292.625ZM169.75 236.375H207.25V292.625H197.875V280.906C197.875 280.285 197.628 279.689 197.189 279.249C196.749 278.809 196.153 278.562 195.531 278.562H181.469C180.847 278.562 180.251 278.809 179.811 279.249C179.372 279.689 179.125 280.285 179.125 280.906V292.625H169.75V236.375ZM193.188 292.625H183.812V283.25H193.188V292.625ZM176.781 245.75C176.781 245.128 177.028 244.532 177.468 244.093C177.907 243.653 178.503 243.406 179.125 243.406H183.812C184.434 243.406 185.03 243.653 185.47 244.093C185.909 244.532 186.156 245.128 186.156 245.75C186.156 246.372 185.909 246.968 185.47 247.407C185.03 247.847 184.434 248.094 183.812 248.094H179.125C178.503 248.094 177.907 247.847 177.468 247.407C177.028 246.968 176.781 246.372 176.781 245.75ZM190.844 245.75C190.844 245.128 191.091 244.532 191.53 244.093C191.97 243.653 192.566 243.406 193.188 243.406H197.875C198.497 243.406 199.093 243.653 199.532 244.093C199.972 244.532 200.219 245.128 200.219 245.75C200.219 246.372 199.972 246.968 199.532 247.407C199.093 247.847 198.497 248.094 197.875 248.094H193.188C192.566 248.094 191.97 247.847 191.53 247.407C191.091 246.968 190.844 246.372 190.844 245.75ZM176.781 257.469C176.781 256.847 177.028 256.251 177.468 255.811C177.907 255.372 178.503 255.125 179.125 255.125H183.812C184.434 255.125 185.03 255.372 185.47 255.811C185.909 256.251 186.156 256.847 186.156 257.469C186.156 258.09 185.909 258.686 185.47 259.126C185.03 259.566 184.434 259.812 183.812 259.812H179.125C178.503 259.812 177.907 259.566 177.468 259.126C177.028 258.686 176.781 258.09 176.781 257.469ZM190.844 257.469C190.844 256.847 191.091 256.251 191.53 255.811C191.97 255.372 192.566 255.125 193.188 255.125H197.875C198.497 255.125 199.093 255.372 199.532 255.811C199.972 256.251 200.219 256.847 200.219 257.469C200.219 258.09 199.972 258.686 199.532 259.126C199.093 259.566 198.497 259.812 197.875 259.812H193.188C192.566 259.812 191.97 259.566 191.53 259.126C191.091 258.686 190.844 258.09 190.844 257.469ZM176.781 269.188C176.781 268.566 177.028 267.97 177.468 267.53C177.907 267.091 178.503 266.844 179.125 266.844H183.812C184.434 266.844 185.03 267.091 185.47 267.53C185.909 267.97 186.156 268.566 186.156 269.188C186.156 269.809 185.909 270.405 185.47 270.845C185.03 271.284 184.434 271.531 183.812 271.531H179.125C178.503 271.531 177.907 271.284 177.468 270.845C177.028 270.405 176.781 269.809 176.781 269.188ZM190.844 269.188C190.844 268.566 191.091 267.97 191.53 267.53C191.97 267.091 192.566 266.844 193.188 266.844H197.875C198.497 266.844 199.093 267.091 199.532 267.53C199.972 267.97 200.219 268.566 200.219 269.188C200.219 269.809 199.972 270.405 199.532 270.845C199.093 271.284 198.497 271.531 197.875 271.531H193.188C192.566 271.531 191.97 271.284 191.53 270.845C191.091 270.405 190.844 269.809 190.844 269.188Z" fill="#9DC8D0"/>
<path d="M218.969 386.625H211.938V330.375H214.281C214.903 330.375 215.499 330.128 215.939 329.689C216.378 329.249 216.625 328.653 216.625 328.031C216.625 327.41 216.378 326.814 215.939 326.374C215.499 325.934 214.903 325.688 214.281 325.688H162.719C162.097 325.688 161.501 325.934 161.061 326.374C160.622 326.814 160.375 327.41 160.375 328.031C160.375 328.653 160.622 329.249 161.061 329.689C161.501 330.128 162.097 330.375 162.719 330.375H165.062V386.625H158.031C157.41 386.625 156.814 386.872 156.374 387.311C155.934 387.751 155.688 388.347 155.688 388.969C155.688 389.59 155.934 390.186 156.374 390.626C156.814 391.066 157.41 391.312 158.031 391.312H218.969C219.59 391.312 220.186 391.066 220.626 390.626C221.066 390.186 221.312 389.59 221.312 388.969C221.312 388.347 221.066 387.751 220.626 387.311C220.186 386.872 219.59 386.625 218.969 386.625ZM169.75 330.375H207.25V386.625H197.875V374.906C197.875 374.285 197.628 373.689 197.189 373.249C196.749 372.809 196.153 372.562 195.531 372.562H181.469C180.847 372.562 180.251 372.809 179.811 373.249C179.372 373.689 179.125 374.285 179.125 374.906V386.625H169.75V330.375ZM193.188 386.625H183.812V377.25H193.188V386.625ZM176.781 339.75C176.781 339.128 177.028 338.532 177.468 338.093C177.907 337.653 178.503 337.406 179.125 337.406H183.812C184.434 337.406 185.03 337.653 185.47 338.093C185.909 338.532 186.156 339.128 186.156 339.75C186.156 340.372 185.909 340.968 185.47 341.407C185.03 341.847 184.434 342.094 183.812 342.094H179.125C178.503 342.094 177.907 341.847 177.468 341.407C177.028 340.968 176.781 340.372 176.781 339.75ZM190.844 339.75C190.844 339.128 191.091 338.532 191.53 338.093C191.97 337.653 192.566 337.406 193.188 337.406H197.875C198.497 337.406 199.093 337.653 199.532 338.093C199.972 338.532 200.219 339.128 200.219 339.75C200.219 340.372 199.972 340.968 199.532 341.407C199.093 341.847 198.497 342.094 197.875 342.094H193.188C192.566 342.094 191.97 341.847 191.53 341.407C191.091 340.968 190.844 340.372 190.844 339.75ZM176.781 351.469C176.781 350.847 177.028 350.251 177.468 349.811C177.907 349.372 178.503 349.125 179.125 349.125H183.812C184.434 349.125 185.03 349.372 185.47 349.811C185.909 350.251 186.156 350.847 186.156 351.469C186.156 352.09 185.909 352.686 185.47 353.126C185.03 353.566 184.434 353.812 183.812 353.812H179.125C178.503 353.812 177.907 353.566 177.468 353.126C177.028 352.686 176.781 352.09 176.781 351.469ZM190.844 351.469C190.844 350.847 191.091 350.251 191.53 349.811C191.97 349.372 192.566 349.125 193.188 349.125H197.875C198.497 349.125 199.093 349.372 199.532 349.811C199.972 350.251 200.219 350.847 200.219 351.469C200.219 352.09 199.972 352.686 199.532 353.126C199.093 353.566 198.497 353.812 197.875 353.812H193.188C192.566 353.812 191.97 353.566 191.53 353.126C191.091 352.686 190.844 352.09 190.844 351.469ZM176.781 363.188C176.781 362.566 177.028 361.97 177.468 361.53C177.907 361.091 178.503 360.844 179.125 360.844H183.812C184.434 360.844 185.03 361.091 185.47 361.53C185.909 361.97 186.156 362.566 186.156 363.188C186.156 363.809 185.909 364.405 185.47 364.845C185.03 365.284 184.434 365.531 183.812 365.531H179.125C178.503 365.531 177.907 365.284 177.468 364.845C177.028 364.405 176.781 363.809 176.781 363.188ZM190.844 363.188C190.844 362.566 191.091 361.97 191.53 361.53C191.97 361.091 192.566 360.844 193.188 360.844H197.875C198.497 360.844 199.093 361.091 199.532 361.53C199.972 361.97 200.219 362.566 200.219 363.188C200.219 363.809 199.972 364.405 199.532 364.845C199.093 365.284 198.497 365.531 197.875 365.531H193.188C192.566 365.531 191.97 365.284 191.53 364.845C191.091 364.405 190.844 363.809 190.844 363.188Z" fill="#9DC8D0"/>
<path d="M321.969 198.625H314.938V142.375H317.281C317.903 142.375 318.499 142.128 318.939 141.689C319.378 141.249 319.625 140.653 319.625 140.031C319.625 139.41 319.378 138.814 318.939 138.374C318.499 137.934 317.903 137.688 317.281 137.688H265.719C265.097 137.688 264.501 137.934 264.061 138.374C263.622 138.814 263.375 139.41 263.375 140.031C263.375 140.653 263.622 141.249 264.061 141.689C264.501 142.128 265.097 142.375 265.719 142.375H268.062V198.625H261.031C260.41 198.625 259.814 198.872 259.374 199.311C258.934 199.751 258.688 200.347 258.688 200.969C258.688 201.59 258.934 202.186 259.374 202.626C259.814 203.066 260.41 203.312 261.031 203.312H321.969C322.59 203.312 323.186 203.066 323.626 202.626C324.066 202.186 324.312 201.59 324.312 200.969C324.312 200.347 324.066 199.751 323.626 199.311C323.186 198.872 322.59 198.625 321.969 198.625ZM272.75 142.375H310.25V198.625H300.875V186.906C300.875 186.285 300.628 185.689 300.189 185.249C299.749 184.809 299.153 184.562 298.531 184.562H284.469C283.847 184.562 283.251 184.809 282.811 185.249C282.372 185.689 282.125 186.285 282.125 186.906V198.625H272.75V142.375ZM296.188 198.625H286.812V189.25H296.188V198.625ZM279.781 151.75C279.781 151.128 280.028 150.532 280.468 150.093C280.907 149.653 281.503 149.406 282.125 149.406H286.812C287.434 149.406 288.03 149.653 288.47 150.093C288.909 150.532 289.156 151.128 289.156 151.75C289.156 152.372 288.909 152.968 288.47 153.407C288.03 153.847 287.434 154.094 286.812 154.094H282.125C281.503 154.094 280.907 153.847 280.468 153.407C280.028 152.968 279.781 152.372 279.781 151.75ZM293.844 151.75C293.844 151.128 294.091 150.532 294.53 150.093C294.97 149.653 295.566 149.406 296.188 149.406H300.875C301.497 149.406 302.093 149.653 302.532 150.093C302.972 150.532 303.219 151.128 303.219 151.75C303.219 152.372 302.972 152.968 302.532 153.407C302.093 153.847 301.497 154.094 300.875 154.094H296.188C295.566 154.094 294.97 153.847 294.53 153.407C294.091 152.968 293.844 152.372 293.844 151.75ZM279.781 163.469C279.781 162.847 280.028 162.251 280.468 161.811C280.907 161.372 281.503 161.125 282.125 161.125H286.812C287.434 161.125 288.03 161.372 288.47 161.811C288.909 162.251 289.156 162.847 289.156 163.469C289.156 164.09 288.909 164.686 288.47 165.126C288.03 165.566 287.434 165.812 286.812 165.812H282.125C281.503 165.812 280.907 165.566 280.468 165.126C280.028 164.686 279.781 164.09 279.781 163.469ZM293.844 163.469C293.844 162.847 294.091 162.251 294.53 161.811C294.97 161.372 295.566 161.125 296.188 161.125H300.875C301.497 161.125 302.093 161.372 302.532 161.811C302.972 162.251 303.219 162.847 303.219 163.469C303.219 164.09 302.972 164.686 302.532 165.126C302.093 165.566 301.497 165.812 300.875 165.812H296.188C295.566 165.812 294.97 165.566 294.53 165.126C294.091 164.686 293.844 164.09 293.844 163.469ZM279.781 175.188C279.781 174.566 280.028 173.97 280.468 173.53C280.907 173.091 281.503 172.844 282.125 172.844H286.812C287.434 172.844 288.03 173.091 288.47 173.53C288.909 173.97 289.156 174.566 289.156 175.188C289.156 175.809 288.909 176.405 288.47 176.845C288.03 177.284 287.434 177.531 286.812 177.531H282.125C281.503 177.531 280.907 177.284 280.468 176.845C280.028 176.405 279.781 175.809 279.781 175.188ZM293.844 175.188C293.844 174.566 294.091 173.97 294.53 173.53C294.97 173.091 295.566 172.844 296.188 172.844H300.875C301.497 172.844 302.093 173.091 302.532 173.53C302.972 173.97 303.219 174.566 303.219 175.188C303.219 175.809 302.972 176.405 302.532 176.845C302.093 177.284 301.497 177.531 300.875 177.531H296.188C295.566 177.531 294.97 177.284 294.53 176.845C294.091 176.405 293.844 175.809 293.844 175.188Z" fill="#9DC8D0"/>
<rect x="280" y="161" width="9" height="5" rx="2.5" fill="#006064"/>
<rect x="294" y="161" width="9" height="5" rx="2.5" fill="#006064"/>
<path d="M321.969 292.625H314.938V236.375H317.281C317.903 236.375 318.499 236.128 318.939 235.689C319.378 235.249 319.625 234.653 319.625 234.031C319.625 233.41 319.378 232.814 318.939 232.374C318.499 231.934 317.903 231.688 317.281 231.688H265.719C265.097 231.688 264.501 231.934 264.061 232.374C263.622 232.814 263.375 233.41 263.375 234.031C263.375 234.653 263.622 235.249 264.061 235.689C264.501 236.128 265.097 236.375 265.719 236.375H268.062V292.625H261.031C260.41 292.625 259.814 292.872 259.374 293.311C258.934 293.751 258.688 294.347 258.688 294.969C258.688 295.59 258.934 296.186 259.374 296.626C259.814 297.066 260.41 297.312 261.031 297.312H321.969C322.59 297.312 323.186 297.066 323.626 296.626C324.066 296.186 324.312 295.59 324.312 294.969C324.312 294.347 324.066 293.751 323.626 293.311C323.186 292.872 322.59 292.625 321.969 292.625ZM272.75 236.375H310.25V292.625H300.875V280.906C300.875 280.285 300.628 279.689 300.189 279.249C299.749 278.809 299.153 278.562 298.531 278.562H284.469C283.847 278.562 283.251 278.809 282.811 279.249C282.372 279.689 282.125 280.285 282.125 280.906V292.625H272.75V236.375ZM296.188 292.625H286.812V283.25H296.188V292.625ZM279.781 245.75C279.781 245.128 280.028 244.532 280.468 244.093C280.907 243.653 281.503 243.406 282.125 243.406H286.812C287.434 243.406 288.03 243.653 288.47 244.093C288.909 244.532 289.156 245.128 289.156 245.75C289.156 246.372 288.909 246.968 288.47 247.407C288.03 247.847 287.434 248.094 286.812 248.094H282.125C281.503 248.094 280.907 247.847 280.468 247.407C280.028 246.968 279.781 246.372 279.781 245.75ZM293.844 245.75C293.844 245.128 294.091 244.532 294.53 244.093C294.97 243.653 295.566 243.406 296.188 243.406H300.875C301.497 243.406 302.093 243.653 302.532 244.093C302.972 244.532 303.219 245.128 303.219 245.75C303.219 246.372 302.972 246.968 302.532 247.407C302.093 247.847 301.497 248.094 300.875 248.094H296.188C295.566 248.094 294.97 247.847 294.53 247.407C294.091 246.968 293.844 246.372 293.844 245.75ZM279.781 257.469C279.781 256.847 280.028 256.251 280.468 255.811C280.907 255.372 281.503 255.125 282.125 255.125H286.812C287.434 255.125 288.03 255.372 288.47 255.811C288.909 256.251 289.156 256.847 289.156 257.469C289.156 258.09 288.909 258.686 288.47 259.126C288.03 259.566 287.434 259.812 286.812 259.812H282.125C281.503 259.812 280.907 259.566 280.468 259.126C280.028 258.686 279.781 258.09 279.781 257.469ZM293.844 257.469C293.844 256.847 294.091 256.251 294.53 255.811C294.97 255.372 295.566 255.125 296.188 255.125H300.875C301.497 255.125 302.093 255.372 302.532 255.811C302.972 256.251 303.219 256.847 303.219 257.469C303.219 258.09 302.972 258.686 302.532 259.126C302.093 259.566 301.497 259.812 300.875 259.812H296.188C295.566 259.812 294.97 259.566 294.53 259.126C294.091 258.686 293.844 258.09 293.844 257.469ZM279.781 269.188C279.781 268.566 280.028 267.97 280.468 267.53C280.907 267.091 281.503 266.844 282.125 266.844H286.812C287.434 266.844 288.03 267.091 288.47 267.53C288.909 267.97 289.156 268.566 289.156 269.188C289.156 269.809 288.909 270.405 288.47 270.845C288.03 271.284 287.434 271.531 286.812 271.531H282.125C281.503 271.531 280.907 271.284 280.468 270.845C280.028 270.405 279.781 269.809 279.781 269.188ZM293.844 269.188C293.844 268.566 294.091 267.97 294.53 267.53C294.97 267.091 295.566 266.844 296.188 266.844H300.875C301.497 266.844 302.093 267.091 302.532 267.53C302.972 267.97 303.219 268.566 303.219 269.188C303.219 269.809 302.972 270.405 302.532 270.845C302.093 271.284 301.497 271.531 300.875 271.531H296.188C295.566 271.531 294.97 271.284 294.53 270.845C294.091 270.405 293.844 269.809 293.844 269.188Z" fill="#9DC8D0"/>
<path d="M321.969 386.625H314.938V330.375H317.281C317.903 330.375 318.499 330.128 318.939 329.689C319.378 329.249 319.625 328.653 319.625 328.031C319.625 327.41 319.378 326.814 318.939 326.374C318.499 325.934 317.903 325.688 317.281 325.688H265.719C265.097 325.688 264.501 325.934 264.061 326.374C263.622 326.814 263.375 327.41 263.375 328.031C263.375 328.653 263.622 329.249 264.061 329.689C264.501 330.128 265.097 330.375 265.719 330.375H268.062V386.625H261.031C260.41 386.625 259.814 386.872 259.374 387.311C258.934 387.751 258.688 388.347 258.688 388.969C258.688 389.59 258.934 390.186 259.374 390.626C259.814 391.066 260.41 391.312 261.031 391.312H321.969C322.59 391.312 323.186 391.066 323.626 390.626C324.066 390.186 324.312 389.59 324.312 388.969C324.312 388.347 324.066 387.751 323.626 387.311C323.186 386.872 322.59 386.625 321.969 386.625ZM272.75 330.375H310.25V386.625H300.875V374.906C300.875 374.285 300.628 373.689 300.189 373.249C299.749 372.809 299.153 372.562 298.531 372.562H284.469C283.847 372.562 283.251 372.809 282.811 373.249C282.372 373.689 282.125 374.285 282.125 374.906V386.625H272.75V330.375ZM296.188 386.625H286.812V377.25H296.188V386.625ZM279.781 339.75C279.781 339.128 280.028 338.532 280.468 338.093C280.907 337.653 281.503 337.406 282.125 337.406H286.812C287.434 337.406 288.03 337.653 288.47 338.093C288.909 338.532 289.156 339.128 289.156 339.75C289.156 340.372 288.909 340.968 288.47 341.407C288.03 341.847 287.434 342.094 286.812 342.094H282.125C281.503 342.094 280.907 341.847 280.468 341.407C280.028 340.968 279.781 340.372 279.781 339.75ZM293.844 339.75C293.844 339.128 294.091 338.532 294.53 338.093C294.97 337.653 295.566 337.406 296.188 337.406H300.875C301.497 337.406 302.093 337.653 302.532 338.093C302.972 338.532 303.219 339.128 303.219 339.75C303.219 340.372 302.972 340.968 302.532 341.407C302.093 341.847 301.497 342.094 300.875 342.094H296.188C295.566 342.094 294.97 341.847 294.53 341.407C294.091 340.968 293.844 340.372 293.844 339.75ZM279.781 351.469C279.781 350.847 280.028 350.251 280.468 349.811C280.907 349.372 281.503 349.125 282.125 349.125H286.812C287.434 349.125 288.03 349.372 288.47 349.811C288.909 350.251 289.156 350.847 289.156 351.469C289.156 352.09 288.909 352.686 288.47 353.126C288.03 353.566 287.434 353.812 286.812 353.812H282.125C281.503 353.812 280.907 353.566 280.468 353.126C280.028 352.686 279.781 352.09 279.781 351.469ZM293.844 351.469C293.844 350.847 294.091 350.251 294.53 349.811C294.97 349.372 295.566 349.125 296.188 349.125H300.875C301.497 349.125 302.093 349.372 302.532 349.811C302.972 350.251 303.219 350.847 303.219 351.469C303.219 352.09 302.972 352.686 302.532 353.126C302.093 353.566 301.497 353.812 300.875 353.812H296.188C295.566 353.812 294.97 353.566 294.53 353.126C294.091 352.686 293.844 352.09 293.844 351.469ZM279.781 363.188C279.781 362.566 280.028 361.97 280.468 361.53C280.907 361.091 281.503 360.844 282.125 360.844H286.812C287.434 360.844 288.03 361.091 288.47 361.53C288.909 361.97 289.156 362.566 289.156 363.188C289.156 363.809 288.909 364.405 288.47 364.845C288.03 365.284 287.434 365.531 286.812 365.531H282.125C281.503 365.531 280.907 365.284 280.468 364.845C280.028 364.405 279.781 363.809 279.781 363.188ZM293.844 363.188C293.844 362.566 294.091 361.97 294.53 361.53C294.97 361.091 295.566 360.844 296.188 360.844H300.875C301.497 360.844 302.093 361.091 302.532 361.53C302.972 361.97 303.219 362.566 303.219 363.188C303.219 363.809 302.972 364.405 302.532 364.845C302.093 365.284 301.497 365.531 300.875 365.531H296.188C295.566 365.531 294.97 365.284 294.53 364.845C294.091 364.405 293.844 363.809 293.844 363.188Z" fill="#9DC8D0"/>
<path d="M424.969 198.625H417.938V142.375H420.281C420.903 142.375 421.499 142.128 421.939 141.689C422.378 141.249 422.625 140.653 422.625 140.031C422.625 139.41 422.378 138.814 421.939 138.374C421.499 137.934 420.903 137.688 420.281 137.688H368.719C368.097 137.688 367.501 137.934 367.061 138.374C366.622 138.814 366.375 139.41 366.375 140.031C366.375 140.653 366.622 141.249 367.061 141.689C367.501 142.128 368.097 142.375 368.719 142.375H371.062V198.625H364.031C363.41 198.625 362.814 198.872 362.374 199.311C361.934 199.751 361.688 200.347 361.688 200.969C361.688 201.59 361.934 202.186 362.374 202.626C362.814 203.066 363.41 203.312 364.031 203.312H424.969C425.59 203.312 426.186 203.066 426.626 202.626C427.066 202.186 427.312 201.59 427.312 200.969C427.312 200.347 427.066 199.751 426.626 199.311C426.186 198.872 425.59 198.625 424.969 198.625ZM375.75 142.375H413.25V198.625H403.875V186.906C403.875 186.285 403.628 185.689 403.189 185.249C402.749 184.809 402.153 184.562 401.531 184.562H387.469C386.847 184.562 386.251 184.809 385.811 185.249C385.372 185.689 385.125 186.285 385.125 186.906V198.625H375.75V142.375ZM399.188 198.625H389.812V189.25H399.188V198.625ZM382.781 151.75C382.781 151.128 383.028 150.532 383.468 150.093C383.907 149.653 384.503 149.406 385.125 149.406H389.812C390.434 149.406 391.03 149.653 391.47 150.093C391.909 150.532 392.156 151.128 392.156 151.75C392.156 152.372 391.909 152.968 391.47 153.407C391.03 153.847 390.434 154.094 389.812 154.094H385.125C384.503 154.094 383.907 153.847 383.468 153.407C383.028 152.968 382.781 152.372 382.781 151.75ZM396.844 151.75C396.844 151.128 397.091 150.532 397.53 150.093C397.97 149.653 398.566 149.406 399.188 149.406H403.875C404.497 149.406 405.093 149.653 405.532 150.093C405.972 150.532 406.219 151.128 406.219 151.75C406.219 152.372 405.972 152.968 405.532 153.407C405.093 153.847 404.497 154.094 403.875 154.094H399.188C398.566 154.094 397.97 153.847 397.53 153.407C397.091 152.968 396.844 152.372 396.844 151.75ZM382.781 163.469C382.781 162.847 383.028 162.251 383.468 161.811C383.907 161.372 384.503 161.125 385.125 161.125H389.812C390.434 161.125 391.03 161.372 391.47 161.811C391.909 162.251 392.156 162.847 392.156 163.469C392.156 164.09 391.909 164.686 391.47 165.126C391.03 165.566 390.434 165.812 389.812 165.812H385.125C384.503 165.812 383.907 165.566 383.468 165.126C383.028 164.686 382.781 164.09 382.781 163.469ZM396.844 163.469C396.844 162.847 397.091 162.251 397.53 161.811C397.97 161.372 398.566 161.125 399.188 161.125H403.875C404.497 161.125 405.093 161.372 405.532 161.811C405.972 162.251 406.219 162.847 406.219 163.469C406.219 164.09 405.972 164.686 405.532 165.126C405.093 165.566 404.497 165.812 403.875 165.812H399.188C398.566 165.812 397.97 165.566 397.53 165.126C397.091 164.686 396.844 164.09 396.844 163.469ZM382.781 175.188C382.781 174.566 383.028 173.97 383.468 173.53C383.907 173.091 384.503 172.844 385.125 172.844H389.812C390.434 172.844 391.03 173.091 391.47 173.53C391.909 173.97 392.156 174.566 392.156 175.188C392.156 175.809 391.909 176.405 391.47 176.845C391.03 177.284 390.434 177.531 389.812 177.531H385.125C384.503 177.531 383.907 177.284 383.468 176.845C383.028 176.405 382.781 175.809 382.781 175.188ZM396.844 175.188C396.844 174.566 397.091 173.97 397.53 173.53C397.97 173.091 398.566 172.844 399.188 172.844H403.875C404.497 172.844 405.093 173.091 405.532 173.53C405.972 173.97 406.219 174.566 406.219 175.188C406.219 175.809 405.972 176.405 405.532 176.845C405.093 177.284 404.497 177.531 403.875 177.531H399.188C398.566 177.531 397.97 177.284 397.53 176.845C397.091 176.405 396.844 175.809 396.844 175.188Z" fill="#9DC8D0"/>
<path d="M424.969 292.625H417.938V236.375H420.281C420.903 236.375 421.499 236.128 421.939 235.689C422.378 235.249 422.625 234.653 422.625 234.031C422.625 233.41 422.378 232.814 421.939 232.374C421.499 231.934 420.903 231.688 420.281 231.688H368.719C368.097 231.688 367.501 231.934 367.061 232.374C366.622 232.814 366.375 233.41 366.375 234.031C366.375 234.653 366.622 235.249 367.061 235.689C367.501 236.128 368.097 236.375 368.719 236.375H371.062V292.625H364.031C363.41 292.625 362.814 292.872 362.374 293.311C361.934 293.751 361.688 294.347 361.688 294.969C361.688 295.59 361.934 296.186 362.374 296.626C362.814 297.066 363.41 297.312 364.031 297.312H424.969C425.59 297.312 426.186 297.066 426.626 296.626C427.066 296.186 427.312 295.59 427.312 294.969C427.312 294.347 427.066 293.751 426.626 293.311C426.186 292.872 425.59 292.625 424.969 292.625ZM375.75 236.375H413.25V292.625H403.875V280.906C403.875 280.285 403.628 279.689 403.189 279.249C402.749 278.809 402.153 278.562 401.531 278.562H387.469C386.847 278.562 386.251 278.809 385.811 279.249C385.372 279.689 385.125 280.285 385.125 280.906V292.625H375.75V236.375ZM399.188 292.625H389.812V283.25H399.188V292.625ZM382.781 245.75C382.781 245.128 383.028 244.532 383.468 244.093C383.907 243.653 384.503 243.406 385.125 243.406H389.812C390.434 243.406 391.03 243.653 391.47 244.093C391.909 244.532 392.156 245.128 392.156 245.75C392.156 246.372 391.909 246.968 391.47 247.407C391.03 247.847 390.434 248.094 389.812 248.094H385.125C384.503 248.094 383.907 247.847 383.468 247.407C383.028 246.968 382.781 246.372 382.781 245.75ZM396.844 245.75C396.844 245.128 397.091 244.532 397.53 244.093C397.97 243.653 398.566 243.406 399.188 243.406H403.875C404.497 243.406 405.093 243.653 405.532 244.093C405.972 244.532 406.219 245.128 406.219 245.75C406.219 246.372 405.972 246.968 405.532 247.407C405.093 247.847 404.497 248.094 403.875 248.094H399.188C398.566 248.094 397.97 247.847 397.53 247.407C397.091 246.968 396.844 246.372 396.844 245.75ZM382.781 257.469C382.781 256.847 383.028 256.251 383.468 255.811C383.907 255.372 384.503 255.125 385.125 255.125H389.812C390.434 255.125 391.03 255.372 391.47 255.811C391.909 256.251 392.156 256.847 392.156 257.469C392.156 258.09 391.909 258.686 391.47 259.126C391.03 259.566 390.434 259.812 389.812 259.812H385.125C384.503 259.812 383.907 259.566 383.468 259.126C383.028 258.686 382.781 258.09 382.781 257.469ZM396.844 257.469C396.844 256.847 397.091 256.251 397.53 255.811C397.97 255.372 398.566 255.125 399.188 255.125H403.875C404.497 255.125 405.093 255.372 405.532 255.811C405.972 256.251 406.219 256.847 406.219 257.469C406.219 258.09 405.972 258.686 405.532 259.126C405.093 259.566 404.497 259.812 403.875 259.812H399.188C398.566 259.812 397.97 259.566 397.53 259.126C397.091 258.686 396.844 258.09 396.844 257.469ZM382.781 269.188C382.781 268.566 383.028 267.97 383.468 267.53C383.907 267.091 384.503 266.844 385.125 266.844H389.812C390.434 266.844 391.03 267.091 391.47 267.53C391.909 267.97 392.156 268.566 392.156 269.188C392.156 269.809 391.909 270.405 391.47 270.845C391.03 271.284 390.434 271.531 389.812 271.531H385.125C384.503 271.531 383.907 271.284 383.468 270.845C383.028 270.405 382.781 269.809 382.781 269.188ZM396.844 269.188C396.844 268.566 397.091 267.97 397.53 267.53C397.97 267.091 398.566 266.844 399.188 266.844H403.875C404.497 266.844 405.093 267.091 405.532 267.53C405.972 267.97 406.219 268.566 406.219 269.188C406.219 269.809 405.972 270.405 405.532 270.845C405.093 271.284 404.497 271.531 403.875 271.531H399.188C398.566 271.531 397.97 271.284 397.53 270.845C397.091 270.405 396.844 269.809 396.844 269.188Z" fill="#9DC8D0"/>
<path d="M424.969 386.625H417.938V330.375H420.281C420.903 330.375 421.499 330.128 421.939 329.689C422.378 329.249 422.625 328.653 422.625 328.031C422.625 327.41 422.378 326.814 421.939 326.374C421.499 325.934 420.903 325.688 420.281 325.688H368.719C368.097 325.688 367.501 325.934 367.061 326.374C366.622 326.814 366.375 327.41 366.375 328.031C366.375 328.653 366.622 329.249 367.061 329.689C367.501 330.128 368.097 330.375 368.719 330.375H371.062V386.625H364.031C363.41 386.625 362.814 386.872 362.374 387.311C361.934 387.751 361.688 388.347 361.688 388.969C361.688 389.59 361.934 390.186 362.374 390.626C362.814 391.066 363.41 391.312 364.031 391.312H424.969C425.59 391.312 426.186 391.066 426.626 390.626C427.066 390.186 427.312 389.59 427.312 388.969C427.312 388.347 427.066 387.751 426.626 387.311C426.186 386.872 425.59 386.625 424.969 386.625ZM375.75 330.375H413.25V386.625H403.875V374.906C403.875 374.285 403.628 373.689 403.189 373.249C402.749 372.809 402.153 372.562 401.531 372.562H387.469C386.847 372.562 386.251 372.809 385.811 373.249C385.372 373.689 385.125 374.285 385.125 374.906V386.625H375.75V330.375ZM399.188 386.625H389.812V377.25H399.188V386.625ZM382.781 339.75C382.781 339.128 383.028 338.532 383.468 338.093C383.907 337.653 384.503 337.406 385.125 337.406H389.812C390.434 337.406 391.03 337.653 391.47 338.093C391.909 338.532 392.156 339.128 392.156 339.75C392.156 340.372 391.909 340.968 391.47 341.407C391.03 341.847 390.434 342.094 389.812 342.094H385.125C384.503 342.094 383.907 341.847 383.468 341.407C383.028 340.968 382.781 340.372 382.781 339.75ZM396.844 339.75C396.844 339.128 397.091 338.532 397.53 338.093C397.97 337.653 398.566 337.406 399.188 337.406H403.875C404.497 337.406 405.093 337.653 405.532 338.093C405.972 338.532 406.219 339.128 406.219 339.75C406.219 340.372 405.972 340.968 405.532 341.407C405.093 341.847 404.497 342.094 403.875 342.094H399.188C398.566 342.094 397.97 341.847 397.53 341.407C397.091 340.968 396.844 340.372 396.844 339.75ZM382.781 351.469C382.781 350.847 383.028 350.251 383.468 349.811C383.907 349.372 384.503 349.125 385.125 349.125H389.812C390.434 349.125 391.03 349.372 391.47 349.811C391.909 350.251 392.156 350.847 392.156 351.469C392.156 352.09 391.909 352.686 391.47 353.126C391.03 353.566 390.434 353.812 389.812 353.812H385.125C384.503 353.812 383.907 353.566 383.468 353.126C383.028 352.686 382.781 352.09 382.781 351.469ZM396.844 351.469C396.844 350.847 397.091 350.251 397.53 349.811C397.97 349.372 398.566 349.125 399.188 349.125H403.875C404.497 349.125 405.093 349.372 405.532 349.811C405.972 350.251 406.219 350.847 406.219 351.469C406.219 352.09 405.972 352.686 405.532 353.126C405.093 353.566 404.497 353.812 403.875 353.812H399.188C398.566 353.812 397.97 353.566 397.53 353.126C397.091 352.686 396.844 352.09 396.844 351.469ZM382.781 363.188C382.781 362.566 383.028 361.97 383.468 361.53C383.907 361.091 384.503 360.844 385.125 360.844H389.812C390.434 360.844 391.03 361.091 391.47 361.53C391.909 361.97 392.156 362.566 392.156 363.188C392.156 363.809 391.909 364.405 391.47 364.845C391.03 365.284 390.434 365.531 389.812 365.531H385.125C384.503 365.531 383.907 365.284 383.468 364.845C383.028 364.405 382.781 363.809 382.781 363.188ZM396.844 363.188C396.844 362.566 397.091 361.97 397.53 361.53C397.97 361.091 398.566 360.844 399.188 360.844H403.875C404.497 360.844 405.093 361.091 405.532 361.53C405.972 361.97 406.219 362.566 406.219 363.188C406.219 363.809 405.972 364.405 405.532 364.845C405.093 365.284 404.497 365.531 403.875 365.531H399.188C398.566 365.531 397.97 365.284 397.53 364.845C397.091 364.405 396.844 363.809 396.844 363.188Z" fill="#9DC8D0"/>
</g>
<defs>
<clipPath id="clip0_1037_26717">
<rect width="480" height="450" fill="white"/>
</clipPath>
</defs>
</svg>
