<svg width="480" height="450" viewBox="0 0 480 450" fill="none" xmlns="http://www.w3.org/2000/svg">
<rect width="480" height="450" fill="#E1F0F1"/>
<path d="M174.295 78V54.7273H183.023C184.811 54.7273 186.311 55.0606 187.523 55.7273C188.742 56.3939 189.663 57.3106 190.284 58.4773C190.913 59.6364 191.227 60.9545 191.227 62.4318C191.227 63.9242 190.913 65.25 190.284 66.4091C189.655 67.5682 188.727 68.4811 187.5 69.1477C186.273 69.8068 184.761 70.1364 182.966 70.1364H177.182V66.6705H182.398C183.443 66.6705 184.299 66.4886 184.966 66.125C185.633 65.7614 186.125 65.2614 186.443 64.625C186.769 63.9886 186.932 63.2576 186.932 62.4318C186.932 61.6061 186.769 60.8788 186.443 60.25C186.125 59.6212 185.629 59.1326 184.955 58.7841C184.288 58.428 183.428 58.25 182.375 58.25H178.511V78H174.295ZM202.071 78.3409C200.366 78.3409 198.889 77.9659 197.639 77.2159C196.389 76.4659 195.42 75.4167 194.73 74.0682C194.048 72.7197 193.707 71.1439 193.707 69.3409C193.707 67.5379 194.048 65.9583 194.73 64.6023C195.42 63.2462 196.389 62.1932 197.639 61.4432C198.889 60.6932 200.366 60.3182 202.071 60.3182C203.776 60.3182 205.253 60.6932 206.503 61.4432C207.753 62.1932 208.719 63.2462 209.401 64.6023C210.09 65.9583 210.435 67.5379 210.435 69.3409C210.435 71.1439 210.09 72.7197 209.401 74.0682C208.719 75.4167 207.753 76.4659 206.503 77.2159C205.253 77.9659 203.776 78.3409 202.071 78.3409ZM202.094 75.0455C203.018 75.0455 203.791 74.7917 204.412 74.2841C205.033 73.7689 205.495 73.0795 205.798 72.2159C206.109 71.3523 206.264 70.3902 206.264 69.3295C206.264 68.2614 206.109 67.2955 205.798 66.4318C205.495 65.5606 205.033 64.8674 204.412 64.3523C203.791 63.8371 203.018 63.5795 202.094 63.5795C201.147 63.5795 200.359 63.8371 199.73 64.3523C199.109 64.8674 198.643 65.5606 198.332 66.4318C198.029 67.2955 197.878 68.2614 197.878 69.3295C197.878 70.3902 198.029 71.3523 198.332 72.2159C198.643 73.0795 199.109 73.7689 199.73 74.2841C200.359 74.7917 201.147 75.0455 202.094 75.0455ZM213.926 78V60.5455H217.915V63.4545H218.097C218.415 62.447 218.96 61.6705 219.733 61.125C220.513 60.572 221.403 60.2955 222.403 60.2955C222.631 60.2955 222.884 60.3068 223.165 60.3295C223.453 60.3447 223.691 60.3712 223.881 60.4091V64.1932C223.706 64.1326 223.43 64.0795 223.051 64.0341C222.68 63.9811 222.32 63.9545 221.972 63.9545C221.222 63.9545 220.547 64.1174 219.949 64.4432C219.358 64.7614 218.892 65.2045 218.551 65.7727C218.21 66.3409 218.04 66.9962 218.04 67.7386V78H213.926ZM236.267 60.5455V63.7273H226.233V60.5455H236.267ZM228.71 56.3636H232.824V72.75C232.824 73.303 232.907 73.7273 233.074 74.0227C233.248 74.3106 233.475 74.5076 233.756 74.6136C234.036 74.7197 234.347 74.7727 234.688 74.7727C234.945 74.7727 235.18 74.7538 235.392 74.7159C235.612 74.678 235.778 74.6439 235.892 74.6136L236.585 77.8295C236.366 77.9053 236.051 77.9886 235.642 78.0795C235.241 78.1705 234.748 78.2235 234.165 78.2386C233.134 78.2689 232.206 78.1136 231.381 77.7727C230.555 77.4242 229.9 76.8864 229.415 76.1591C228.938 75.4318 228.703 74.5227 228.71 73.4318V56.3636ZM248.548 60.5455V63.7273H238.23V60.5455H248.548ZM240.81 78V58.8977C240.81 57.7235 241.052 56.7462 241.537 55.9659C242.029 55.1856 242.688 54.6023 243.514 54.2159C244.34 53.8295 245.257 53.6364 246.264 53.6364C246.976 53.6364 247.609 53.6932 248.162 53.8068C248.715 53.9205 249.124 54.0227 249.389 54.1136L248.571 57.2955C248.397 57.2424 248.177 57.1894 247.912 57.1364C247.647 57.0758 247.351 57.0455 247.026 57.0455C246.26 57.0455 245.719 57.2311 245.401 57.6023C245.09 57.9659 244.935 58.4886 244.935 59.1705V78H240.81ZM258.727 78.3409C257.023 78.3409 255.545 77.9659 254.295 77.2159C253.045 76.4659 252.076 75.4167 251.386 74.0682C250.705 72.7197 250.364 71.1439 250.364 69.3409C250.364 67.5379 250.705 65.9583 251.386 64.6023C252.076 63.2462 253.045 62.1932 254.295 61.4432C255.545 60.6932 257.023 60.3182 258.727 60.3182C260.432 60.3182 261.909 60.6932 263.159 61.4432C264.409 62.1932 265.375 63.2462 266.057 64.6023C266.746 65.9583 267.091 67.5379 267.091 69.3409C267.091 71.1439 266.746 72.7197 266.057 74.0682C265.375 75.4167 264.409 76.4659 263.159 77.2159C261.909 77.9659 260.432 78.3409 258.727 78.3409ZM258.75 75.0455C259.674 75.0455 260.447 74.7917 261.068 74.2841C261.689 73.7689 262.152 73.0795 262.455 72.2159C262.765 71.3523 262.92 70.3902 262.92 69.3295C262.92 68.2614 262.765 67.2955 262.455 66.4318C262.152 65.5606 261.689 64.8674 261.068 64.3523C260.447 63.8371 259.674 63.5795 258.75 63.5795C257.803 63.5795 257.015 63.8371 256.386 64.3523C255.765 64.8674 255.299 65.5606 254.989 66.4318C254.686 67.2955 254.534 68.2614 254.534 69.3295C254.534 70.3902 254.686 71.3523 254.989 72.2159C255.299 73.0795 255.765 73.7689 256.386 74.2841C257.015 74.7917 257.803 75.0455 258.75 75.0455ZM274.696 54.7273V78H270.582V54.7273H274.696ZM278.926 78V60.5455H283.04V78H278.926ZM280.994 58.0682C280.343 58.0682 279.782 57.8523 279.312 57.4205C278.843 56.9811 278.608 56.4545 278.608 55.8409C278.608 55.2197 278.843 54.6932 279.312 54.2614C279.782 53.822 280.343 53.6023 280.994 53.6023C281.653 53.6023 282.214 53.822 282.676 54.2614C283.146 54.6932 283.381 55.2197 283.381 55.8409C283.381 56.4545 283.146 56.9811 282.676 57.4205C282.214 57.8523 281.653 58.0682 280.994 58.0682ZM294.884 78.3409C293.179 78.3409 291.702 77.9659 290.452 77.2159C289.202 76.4659 288.232 75.4167 287.543 74.0682C286.861 72.7197 286.52 71.1439 286.52 69.3409C286.52 67.5379 286.861 65.9583 287.543 64.6023C288.232 63.2462 289.202 62.1932 290.452 61.4432C291.702 60.6932 293.179 60.3182 294.884 60.3182C296.588 60.3182 298.065 60.6932 299.315 61.4432C300.565 62.1932 301.531 63.2462 302.213 64.6023C302.902 65.9583 303.247 67.5379 303.247 69.3409C303.247 71.1439 302.902 72.7197 302.213 74.0682C301.531 75.4167 300.565 76.4659 299.315 77.2159C298.065 77.9659 296.588 78.3409 294.884 78.3409ZM294.906 75.0455C295.83 75.0455 296.603 74.7917 297.224 74.2841C297.846 73.7689 298.308 73.0795 298.611 72.2159C298.921 71.3523 299.077 70.3902 299.077 69.3295C299.077 68.2614 298.921 67.2955 298.611 66.4318C298.308 65.5606 297.846 64.8674 297.224 64.3523C296.603 63.8371 295.83 63.5795 294.906 63.5795C293.959 63.5795 293.171 63.8371 292.543 64.3523C291.921 64.8674 291.455 65.5606 291.145 66.4318C290.842 67.2955 290.69 68.2614 290.69 69.3295C290.69 70.3902 290.842 71.3523 291.145 72.2159C291.455 73.0795 291.921 73.7689 292.543 74.2841C293.171 74.7917 293.959 75.0455 294.906 75.0455Z" fill="black"/>
<path d="M124.969 198.625H117.938V142.375H120.281C120.903 142.375 121.499 142.128 121.939 141.689C122.378 141.249 122.625 140.653 122.625 140.031C122.625 139.41 122.378 138.814 121.939 138.374C121.499 137.934 120.903 137.688 120.281 137.688H68.7188C68.0971 137.688 67.501 137.934 67.0615 138.374C66.6219 138.814 66.375 139.41 66.375 140.031C66.375 140.653 66.6219 141.249 67.0615 141.689C67.501 142.128 68.0971 142.375 68.7188 142.375H71.0625V198.625H64.0312C63.4096 198.625 62.8135 198.872 62.374 199.311C61.9344 199.751 61.6875 200.347 61.6875 200.969C61.6875 201.59 61.9344 202.186 62.374 202.626C62.8135 203.066 63.4096 203.312 64.0312 203.312H124.969C125.59 203.312 126.186 203.066 126.626 202.626C127.066 202.186 127.312 201.59 127.312 200.969C127.312 200.347 127.066 199.751 126.626 199.311C126.186 198.872 125.59 198.625 124.969 198.625ZM75.75 142.375H113.25V198.625H103.875V186.906C103.875 186.285 103.628 185.689 103.189 185.249C102.749 184.809 102.153 184.562 101.531 184.562H87.4688C86.8471 184.562 86.251 184.809 85.8115 185.249C85.3719 185.689 85.125 186.285 85.125 186.906V198.625H75.75V142.375ZM99.1875 198.625H89.8125V189.25H99.1875V198.625ZM82.7812 151.75C82.7812 151.128 83.0282 150.532 83.4677 150.093C83.9073 149.653 84.5034 149.406 85.125 149.406H89.8125C90.4341 149.406 91.0302 149.653 91.4698 150.093C91.9093 150.532 92.1562 151.128 92.1562 151.75C92.1562 152.372 91.9093 152.968 91.4698 153.407C91.0302 153.847 90.4341 154.094 89.8125 154.094H85.125C84.5034 154.094 83.9073 153.847 83.4677 153.407C83.0282 152.968 82.7812 152.372 82.7812 151.75ZM96.8438 151.75C96.8438 151.128 97.0907 150.532 97.5302 150.093C97.9698 149.653 98.5659 149.406 99.1875 149.406H103.875C104.497 149.406 105.093 149.653 105.532 150.093C105.972 150.532 106.219 151.128 106.219 151.75C106.219 152.372 105.972 152.968 105.532 153.407C105.093 153.847 104.497 154.094 103.875 154.094H99.1875C98.5659 154.094 97.9698 153.847 97.5302 153.407C97.0907 152.968 96.8438 152.372 96.8438 151.75ZM82.7812 163.469C82.7812 162.847 83.0282 162.251 83.4677 161.811C83.9073 161.372 84.5034 161.125 85.125 161.125H89.8125C90.4341 161.125 91.0302 161.372 91.4698 161.811C91.9093 162.251 92.1562 162.847 92.1562 163.469C92.1562 164.09 91.9093 164.686 91.4698 165.126C91.0302 165.566 90.4341 165.812 89.8125 165.812H85.125C84.5034 165.812 83.9073 165.566 83.4677 165.126C83.0282 164.686 82.7812 164.09 82.7812 163.469ZM96.8438 163.469C96.8438 162.847 97.0907 162.251 97.5302 161.811C97.9698 161.372 98.5659 161.125 99.1875 161.125H103.875C104.497 161.125 105.093 161.372 105.532 161.811C105.972 162.251 106.219 162.847 106.219 163.469C106.219 164.09 105.972 164.686 105.532 165.126C105.093 165.566 104.497 165.812 103.875 165.812H99.1875C98.5659 165.812 97.9698 165.566 97.5302 165.126C97.0907 164.686 96.8438 164.09 96.8438 163.469ZM82.7812 175.188C82.7812 174.566 83.0282 173.97 83.4677 173.53C83.9073 173.091 84.5034 172.844 85.125 172.844H89.8125C90.4341 172.844 91.0302 173.091 91.4698 173.53C91.9093 173.97 92.1562 174.566 92.1562 175.188C92.1562 175.809 91.9093 176.405 91.4698 176.845C91.0302 177.284 90.4341 177.531 89.8125 177.531H85.125C84.5034 177.531 83.9073 177.284 83.4677 176.845C83.0282 176.405 82.7812 175.809 82.7812 175.188ZM96.8438 175.188C96.8438 174.566 97.0907 173.97 97.5302 173.53C97.9698 173.091 98.5659 172.844 99.1875 172.844H103.875C104.497 172.844 105.093 173.091 105.532 173.53C105.972 173.97 106.219 174.566 106.219 175.188C106.219 175.809 105.972 176.405 105.532 176.845C105.093 177.284 104.497 177.531 103.875 177.531H99.1875C98.5659 177.531 97.9698 177.284 97.5302 176.845C97.0907 176.405 96.8438 175.809 96.8438 175.188Z" fill="#006064"/>
<path d="M124.969 290.625H117.938V234.375H120.281C120.903 234.375 121.499 234.128 121.939 233.689C122.378 233.249 122.625 232.653 122.625 232.031C122.625 231.41 122.378 230.814 121.939 230.374C121.499 229.934 120.903 229.688 120.281 229.688H68.7188C68.0971 229.688 67.501 229.934 67.0615 230.374C66.6219 230.814 66.375 231.41 66.375 232.031C66.375 232.653 66.6219 233.249 67.0615 233.689C67.501 234.128 68.0971 234.375 68.7188 234.375H71.0625V290.625H64.0312C63.4096 290.625 62.8135 290.872 62.374 291.311C61.9344 291.751 61.6875 292.347 61.6875 292.969C61.6875 293.59 61.9344 294.186 62.374 294.626C62.8135 295.066 63.4096 295.312 64.0312 295.312H124.969C125.59 295.312 126.186 295.066 126.626 294.626C127.066 294.186 127.312 293.59 127.312 292.969C127.312 292.347 127.066 291.751 126.626 291.311C126.186 290.872 125.59 290.625 124.969 290.625ZM75.75 234.375H113.25V290.625H103.875V278.906C103.875 278.285 103.628 277.689 103.189 277.249C102.749 276.809 102.153 276.562 101.531 276.562H87.4688C86.8471 276.562 86.251 276.809 85.8115 277.249C85.3719 277.689 85.125 278.285 85.125 278.906V290.625H75.75V234.375ZM99.1875 290.625H89.8125V281.25H99.1875V290.625ZM82.7812 243.75C82.7812 243.128 83.0282 242.532 83.4677 242.093C83.9073 241.653 84.5034 241.406 85.125 241.406H89.8125C90.4341 241.406 91.0302 241.653 91.4698 242.093C91.9093 242.532 92.1562 243.128 92.1562 243.75C92.1562 244.372 91.9093 244.968 91.4698 245.407C91.0302 245.847 90.4341 246.094 89.8125 246.094H85.125C84.5034 246.094 83.9073 245.847 83.4677 245.407C83.0282 244.968 82.7812 244.372 82.7812 243.75ZM96.8438 243.75C96.8438 243.128 97.0907 242.532 97.5302 242.093C97.9698 241.653 98.5659 241.406 99.1875 241.406H103.875C104.497 241.406 105.093 241.653 105.532 242.093C105.972 242.532 106.219 243.128 106.219 243.75C106.219 244.372 105.972 244.968 105.532 245.407C105.093 245.847 104.497 246.094 103.875 246.094H99.1875C98.5659 246.094 97.9698 245.847 97.5302 245.407C97.0907 244.968 96.8438 244.372 96.8438 243.75ZM82.7812 255.469C82.7812 254.847 83.0282 254.251 83.4677 253.811C83.9073 253.372 84.5034 253.125 85.125 253.125H89.8125C90.4341 253.125 91.0302 253.372 91.4698 253.811C91.9093 254.251 92.1562 254.847 92.1562 255.469C92.1562 256.09 91.9093 256.686 91.4698 257.126C91.0302 257.566 90.4341 257.812 89.8125 257.812H85.125C84.5034 257.812 83.9073 257.566 83.4677 257.126C83.0282 256.686 82.7812 256.09 82.7812 255.469ZM96.8438 255.469C96.8438 254.847 97.0907 254.251 97.5302 253.811C97.9698 253.372 98.5659 253.125 99.1875 253.125H103.875C104.497 253.125 105.093 253.372 105.532 253.811C105.972 254.251 106.219 254.847 106.219 255.469C106.219 256.09 105.972 256.686 105.532 257.126C105.093 257.566 104.497 257.812 103.875 257.812H99.1875C98.5659 257.812 97.9698 257.566 97.5302 257.126C97.0907 256.686 96.8438 256.09 96.8438 255.469ZM82.7812 267.188C82.7812 266.566 83.0282 265.97 83.4677 265.53C83.9073 265.091 84.5034 264.844 85.125 264.844H89.8125C90.4341 264.844 91.0302 265.091 91.4698 265.53C91.9093 265.97 92.1562 266.566 92.1562 267.188C92.1562 267.809 91.9093 268.405 91.4698 268.845C91.0302 269.284 90.4341 269.531 89.8125 269.531H85.125C84.5034 269.531 83.9073 269.284 83.4677 268.845C83.0282 268.405 82.7812 267.809 82.7812 267.188ZM96.8438 267.188C96.8438 266.566 97.0907 265.97 97.5302 265.53C97.9698 265.091 98.5659 264.844 99.1875 264.844H103.875C104.497 264.844 105.093 265.091 105.532 265.53C105.972 265.97 106.219 266.566 106.219 267.188C106.219 267.809 105.972 268.405 105.532 268.845C105.093 269.284 104.497 269.531 103.875 269.531H99.1875C98.5659 269.531 97.9698 269.284 97.5302 268.845C97.0907 268.405 96.8438 267.809 96.8438 267.188Z" fill="#006064"/>
<path d="M124.969 382.625H117.938V326.375H120.281C120.903 326.375 121.499 326.128 121.939 325.689C122.378 325.249 122.625 324.653 122.625 324.031C122.625 323.41 122.378 322.814 121.939 322.374C121.499 321.934 120.903 321.688 120.281 321.688H68.7188C68.0971 321.688 67.501 321.934 67.0615 322.374C66.6219 322.814 66.375 323.41 66.375 324.031C66.375 324.653 66.6219 325.249 67.0615 325.689C67.501 326.128 68.0971 326.375 68.7188 326.375H71.0625V382.625H64.0312C63.4096 382.625 62.8135 382.872 62.374 383.311C61.9344 383.751 61.6875 384.347 61.6875 384.969C61.6875 385.59 61.9344 386.186 62.374 386.626C62.8135 387.066 63.4096 387.312 64.0312 387.312H124.969C125.59 387.312 126.186 387.066 126.626 386.626C127.066 386.186 127.312 385.59 127.312 384.969C127.312 384.347 127.066 383.751 126.626 383.311C126.186 382.872 125.59 382.625 124.969 382.625ZM75.75 326.375H113.25V382.625H103.875V370.906C103.875 370.285 103.628 369.689 103.189 369.249C102.749 368.809 102.153 368.562 101.531 368.562H87.4688C86.8471 368.562 86.251 368.809 85.8115 369.249C85.3719 369.689 85.125 370.285 85.125 370.906V382.625H75.75V326.375ZM99.1875 382.625H89.8125V373.25H99.1875V382.625ZM82.7812 335.75C82.7812 335.128 83.0282 334.532 83.4677 334.093C83.9073 333.653 84.5034 333.406 85.125 333.406H89.8125C90.4341 333.406 91.0302 333.653 91.4698 334.093C91.9093 334.532 92.1562 335.128 92.1562 335.75C92.1562 336.372 91.9093 336.968 91.4698 337.407C91.0302 337.847 90.4341 338.094 89.8125 338.094H85.125C84.5034 338.094 83.9073 337.847 83.4677 337.407C83.0282 336.968 82.7812 336.372 82.7812 335.75ZM96.8438 335.75C96.8438 335.128 97.0907 334.532 97.5302 334.093C97.9698 333.653 98.5659 333.406 99.1875 333.406H103.875C104.497 333.406 105.093 333.653 105.532 334.093C105.972 334.532 106.219 335.128 106.219 335.75C106.219 336.372 105.972 336.968 105.532 337.407C105.093 337.847 104.497 338.094 103.875 338.094H99.1875C98.5659 338.094 97.9698 337.847 97.5302 337.407C97.0907 336.968 96.8438 336.372 96.8438 335.75ZM82.7812 347.469C82.7812 346.847 83.0282 346.251 83.4677 345.811C83.9073 345.372 84.5034 345.125 85.125 345.125H89.8125C90.4341 345.125 91.0302 345.372 91.4698 345.811C91.9093 346.251 92.1562 346.847 92.1562 347.469C92.1562 348.09 91.9093 348.686 91.4698 349.126C91.0302 349.566 90.4341 349.812 89.8125 349.812H85.125C84.5034 349.812 83.9073 349.566 83.4677 349.126C83.0282 348.686 82.7812 348.09 82.7812 347.469ZM96.8438 347.469C96.8438 346.847 97.0907 346.251 97.5302 345.811C97.9698 345.372 98.5659 345.125 99.1875 345.125H103.875C104.497 345.125 105.093 345.372 105.532 345.811C105.972 346.251 106.219 346.847 106.219 347.469C106.219 348.09 105.972 348.686 105.532 349.126C105.093 349.566 104.497 349.812 103.875 349.812H99.1875C98.5659 349.812 97.9698 349.566 97.5302 349.126C97.0907 348.686 96.8438 348.09 96.8438 347.469ZM82.7812 359.188C82.7812 358.566 83.0282 357.97 83.4677 357.53C83.9073 357.091 84.5034 356.844 85.125 356.844H89.8125C90.4341 356.844 91.0302 357.091 91.4698 357.53C91.9093 357.97 92.1562 358.566 92.1562 359.188C92.1562 359.809 91.9093 360.405 91.4698 360.845C91.0302 361.284 90.4341 361.531 89.8125 361.531H85.125C84.5034 361.531 83.9073 361.284 83.4677 360.845C83.0282 360.405 82.7812 359.809 82.7812 359.188ZM96.8438 359.188C96.8438 358.566 97.0907 357.97 97.5302 357.53C97.9698 357.091 98.5659 356.844 99.1875 356.844H103.875C104.497 356.844 105.093 357.091 105.532 357.53C105.972 357.97 106.219 358.566 106.219 359.188C106.219 359.809 105.972 360.405 105.532 360.845C105.093 361.284 104.497 361.531 103.875 361.531H99.1875C98.5659 361.531 97.9698 361.284 97.5302 360.845C97.0907 360.405 96.8438 359.809 96.8438 359.188Z" fill="#006064"/>
<path d="M221.969 198.625H214.938V142.375H217.281C217.903 142.375 218.499 142.128 218.939 141.689C219.378 141.249 219.625 140.653 219.625 140.031C219.625 139.41 219.378 138.814 218.939 138.374C218.499 137.934 217.903 137.688 217.281 137.688H165.719C165.097 137.688 164.501 137.934 164.061 138.374C163.622 138.814 163.375 139.41 163.375 140.031C163.375 140.653 163.622 141.249 164.061 141.689C164.501 142.128 165.097 142.375 165.719 142.375H168.062V198.625H161.031C160.41 198.625 159.814 198.872 159.374 199.311C158.934 199.751 158.688 200.347 158.688 200.969C158.688 201.59 158.934 202.186 159.374 202.626C159.814 203.066 160.41 203.312 161.031 203.312H221.969C222.59 203.312 223.186 203.066 223.626 202.626C224.066 202.186 224.312 201.59 224.312 200.969C224.312 200.347 224.066 199.751 223.626 199.311C223.186 198.872 222.59 198.625 221.969 198.625ZM172.75 142.375H210.25V198.625H200.875V186.906C200.875 186.285 200.628 185.689 200.189 185.249C199.749 184.809 199.153 184.562 198.531 184.562H184.469C183.847 184.562 183.251 184.809 182.811 185.249C182.372 185.689 182.125 186.285 182.125 186.906V198.625H172.75V142.375ZM196.188 198.625H186.812V189.25H196.188V198.625ZM179.781 151.75C179.781 151.128 180.028 150.532 180.468 150.093C180.907 149.653 181.503 149.406 182.125 149.406H186.812C187.434 149.406 188.03 149.653 188.47 150.093C188.909 150.532 189.156 151.128 189.156 151.75C189.156 152.372 188.909 152.968 188.47 153.407C188.03 153.847 187.434 154.094 186.812 154.094H182.125C181.503 154.094 180.907 153.847 180.468 153.407C180.028 152.968 179.781 152.372 179.781 151.75ZM193.844 151.75C193.844 151.128 194.091 150.532 194.53 150.093C194.97 149.653 195.566 149.406 196.188 149.406H200.875C201.497 149.406 202.093 149.653 202.532 150.093C202.972 150.532 203.219 151.128 203.219 151.75C203.219 152.372 202.972 152.968 202.532 153.407C202.093 153.847 201.497 154.094 200.875 154.094H196.188C195.566 154.094 194.97 153.847 194.53 153.407C194.091 152.968 193.844 152.372 193.844 151.75ZM179.781 163.469C179.781 162.847 180.028 162.251 180.468 161.811C180.907 161.372 181.503 161.125 182.125 161.125H186.812C187.434 161.125 188.03 161.372 188.47 161.811C188.909 162.251 189.156 162.847 189.156 163.469C189.156 164.09 188.909 164.686 188.47 165.126C188.03 165.566 187.434 165.812 186.812 165.812H182.125C181.503 165.812 180.907 165.566 180.468 165.126C180.028 164.686 179.781 164.09 179.781 163.469ZM193.844 163.469C193.844 162.847 194.091 162.251 194.53 161.811C194.97 161.372 195.566 161.125 196.188 161.125H200.875C201.497 161.125 202.093 161.372 202.532 161.811C202.972 162.251 203.219 162.847 203.219 163.469C203.219 164.09 202.972 164.686 202.532 165.126C202.093 165.566 201.497 165.812 200.875 165.812H196.188C195.566 165.812 194.97 165.566 194.53 165.126C194.091 164.686 193.844 164.09 193.844 163.469ZM179.781 175.188C179.781 174.566 180.028 173.97 180.468 173.53C180.907 173.091 181.503 172.844 182.125 172.844H186.812C187.434 172.844 188.03 173.091 188.47 173.53C188.909 173.97 189.156 174.566 189.156 175.188C189.156 175.809 188.909 176.405 188.47 176.845C188.03 177.284 187.434 177.531 186.812 177.531H182.125C181.503 177.531 180.907 177.284 180.468 176.845C180.028 176.405 179.781 175.809 179.781 175.188ZM193.844 175.188C193.844 174.566 194.091 173.97 194.53 173.53C194.97 173.091 195.566 172.844 196.188 172.844H200.875C201.497 172.844 202.093 173.091 202.532 173.53C202.972 173.97 203.219 174.566 203.219 175.188C203.219 175.809 202.972 176.405 202.532 176.845C202.093 177.284 201.497 177.531 200.875 177.531H196.188C195.566 177.531 194.97 177.284 194.53 176.845C194.091 176.405 193.844 175.809 193.844 175.188Z" fill="#006064"/>
<path d="M221.969 290.625H214.938V234.375H217.281C217.903 234.375 218.499 234.128 218.939 233.689C219.378 233.249 219.625 232.653 219.625 232.031C219.625 231.41 219.378 230.814 218.939 230.374C218.499 229.934 217.903 229.688 217.281 229.688H165.719C165.097 229.688 164.501 229.934 164.061 230.374C163.622 230.814 163.375 231.41 163.375 232.031C163.375 232.653 163.622 233.249 164.061 233.689C164.501 234.128 165.097 234.375 165.719 234.375H168.062V290.625H161.031C160.41 290.625 159.814 290.872 159.374 291.311C158.934 291.751 158.688 292.347 158.688 292.969C158.688 293.59 158.934 294.186 159.374 294.626C159.814 295.066 160.41 295.312 161.031 295.312H221.969C222.59 295.312 223.186 295.066 223.626 294.626C224.066 294.186 224.312 293.59 224.312 292.969C224.312 292.347 224.066 291.751 223.626 291.311C223.186 290.872 222.59 290.625 221.969 290.625ZM172.75 234.375H210.25V290.625H200.875V278.906C200.875 278.285 200.628 277.689 200.189 277.249C199.749 276.809 199.153 276.562 198.531 276.562H184.469C183.847 276.562 183.251 276.809 182.811 277.249C182.372 277.689 182.125 278.285 182.125 278.906V290.625H172.75V234.375ZM196.188 290.625H186.812V281.25H196.188V290.625ZM179.781 243.75C179.781 243.128 180.028 242.532 180.468 242.093C180.907 241.653 181.503 241.406 182.125 241.406H186.812C187.434 241.406 188.03 241.653 188.47 242.093C188.909 242.532 189.156 243.128 189.156 243.75C189.156 244.372 188.909 244.968 188.47 245.407C188.03 245.847 187.434 246.094 186.812 246.094H182.125C181.503 246.094 180.907 245.847 180.468 245.407C180.028 244.968 179.781 244.372 179.781 243.75ZM193.844 243.75C193.844 243.128 194.091 242.532 194.53 242.093C194.97 241.653 195.566 241.406 196.188 241.406H200.875C201.497 241.406 202.093 241.653 202.532 242.093C202.972 242.532 203.219 243.128 203.219 243.75C203.219 244.372 202.972 244.968 202.532 245.407C202.093 245.847 201.497 246.094 200.875 246.094H196.188C195.566 246.094 194.97 245.847 194.53 245.407C194.091 244.968 193.844 244.372 193.844 243.75ZM179.781 255.469C179.781 254.847 180.028 254.251 180.468 253.811C180.907 253.372 181.503 253.125 182.125 253.125H186.812C187.434 253.125 188.03 253.372 188.47 253.811C188.909 254.251 189.156 254.847 189.156 255.469C189.156 256.09 188.909 256.686 188.47 257.126C188.03 257.566 187.434 257.812 186.812 257.812H182.125C181.503 257.812 180.907 257.566 180.468 257.126C180.028 256.686 179.781 256.09 179.781 255.469ZM193.844 255.469C193.844 254.847 194.091 254.251 194.53 253.811C194.97 253.372 195.566 253.125 196.188 253.125H200.875C201.497 253.125 202.093 253.372 202.532 253.811C202.972 254.251 203.219 254.847 203.219 255.469C203.219 256.09 202.972 256.686 202.532 257.126C202.093 257.566 201.497 257.812 200.875 257.812H196.188C195.566 257.812 194.97 257.566 194.53 257.126C194.091 256.686 193.844 256.09 193.844 255.469ZM179.781 267.188C179.781 266.566 180.028 265.97 180.468 265.53C180.907 265.091 181.503 264.844 182.125 264.844H186.812C187.434 264.844 188.03 265.091 188.47 265.53C188.909 265.97 189.156 266.566 189.156 267.188C189.156 267.809 188.909 268.405 188.47 268.845C188.03 269.284 187.434 269.531 186.812 269.531H182.125C181.503 269.531 180.907 269.284 180.468 268.845C180.028 268.405 179.781 267.809 179.781 267.188ZM193.844 267.188C193.844 266.566 194.091 265.97 194.53 265.53C194.97 265.091 195.566 264.844 196.188 264.844H200.875C201.497 264.844 202.093 265.091 202.532 265.53C202.972 265.97 203.219 266.566 203.219 267.188C203.219 267.809 202.972 268.405 202.532 268.845C202.093 269.284 201.497 269.531 200.875 269.531H196.188C195.566 269.531 194.97 269.284 194.53 268.845C194.091 268.405 193.844 267.809 193.844 267.188Z" fill="#006064"/>
<path d="M221.969 382.625H214.938V326.375H217.281C217.903 326.375 218.499 326.128 218.939 325.689C219.378 325.249 219.625 324.653 219.625 324.031C219.625 323.41 219.378 322.814 218.939 322.374C218.499 321.934 217.903 321.688 217.281 321.688H165.719C165.097 321.688 164.501 321.934 164.061 322.374C163.622 322.814 163.375 323.41 163.375 324.031C163.375 324.653 163.622 325.249 164.061 325.689C164.501 326.128 165.097 326.375 165.719 326.375H168.062V382.625H161.031C160.41 382.625 159.814 382.872 159.374 383.311C158.934 383.751 158.688 384.347 158.688 384.969C158.688 385.59 158.934 386.186 159.374 386.626C159.814 387.066 160.41 387.312 161.031 387.312H221.969C222.59 387.312 223.186 387.066 223.626 386.626C224.066 386.186 224.312 385.59 224.312 384.969C224.312 384.347 224.066 383.751 223.626 383.311C223.186 382.872 222.59 382.625 221.969 382.625ZM172.75 326.375H210.25V382.625H200.875V370.906C200.875 370.285 200.628 369.689 200.189 369.249C199.749 368.809 199.153 368.562 198.531 368.562H184.469C183.847 368.562 183.251 368.809 182.811 369.249C182.372 369.689 182.125 370.285 182.125 370.906V382.625H172.75V326.375ZM196.188 382.625H186.812V373.25H196.188V382.625ZM179.781 335.75C179.781 335.128 180.028 334.532 180.468 334.093C180.907 333.653 181.503 333.406 182.125 333.406H186.812C187.434 333.406 188.03 333.653 188.47 334.093C188.909 334.532 189.156 335.128 189.156 335.75C189.156 336.372 188.909 336.968 188.47 337.407C188.03 337.847 187.434 338.094 186.812 338.094H182.125C181.503 338.094 180.907 337.847 180.468 337.407C180.028 336.968 179.781 336.372 179.781 335.75ZM193.844 335.75C193.844 335.128 194.091 334.532 194.53 334.093C194.97 333.653 195.566 333.406 196.188 333.406H200.875C201.497 333.406 202.093 333.653 202.532 334.093C202.972 334.532 203.219 335.128 203.219 335.75C203.219 336.372 202.972 336.968 202.532 337.407C202.093 337.847 201.497 338.094 200.875 338.094H196.188C195.566 338.094 194.97 337.847 194.53 337.407C194.091 336.968 193.844 336.372 193.844 335.75ZM179.781 347.469C179.781 346.847 180.028 346.251 180.468 345.811C180.907 345.372 181.503 345.125 182.125 345.125H186.812C187.434 345.125 188.03 345.372 188.47 345.811C188.909 346.251 189.156 346.847 189.156 347.469C189.156 348.09 188.909 348.686 188.47 349.126C188.03 349.566 187.434 349.812 186.812 349.812H182.125C181.503 349.812 180.907 349.566 180.468 349.126C180.028 348.686 179.781 348.09 179.781 347.469ZM193.844 347.469C193.844 346.847 194.091 346.251 194.53 345.811C194.97 345.372 195.566 345.125 196.188 345.125H200.875C201.497 345.125 202.093 345.372 202.532 345.811C202.972 346.251 203.219 346.847 203.219 347.469C203.219 348.09 202.972 348.686 202.532 349.126C202.093 349.566 201.497 349.812 200.875 349.812H196.188C195.566 349.812 194.97 349.566 194.53 349.126C194.091 348.686 193.844 348.09 193.844 347.469ZM179.781 359.188C179.781 358.566 180.028 357.97 180.468 357.53C180.907 357.091 181.503 356.844 182.125 356.844H186.812C187.434 356.844 188.03 357.091 188.47 357.53C188.909 357.97 189.156 358.566 189.156 359.188C189.156 359.809 188.909 360.405 188.47 360.845C188.03 361.284 187.434 361.531 186.812 361.531H182.125C181.503 361.531 180.907 361.284 180.468 360.845C180.028 360.405 179.781 359.809 179.781 359.188ZM193.844 359.188C193.844 358.566 194.091 357.97 194.53 357.53C194.97 357.091 195.566 356.844 196.188 356.844H200.875C201.497 356.844 202.093 357.091 202.532 357.53C202.972 357.97 203.219 358.566 203.219 359.188C203.219 359.809 202.972 360.405 202.532 360.845C202.093 361.284 201.497 361.531 200.875 361.531H196.188C195.566 361.531 194.97 361.284 194.53 360.845C194.091 360.405 193.844 359.809 193.844 359.188Z" fill="#006064"/>
<path d="M318.969 198.625H311.938V142.375H314.281C314.903 142.375 315.499 142.128 315.939 141.689C316.378 141.249 316.625 140.653 316.625 140.031C316.625 139.41 316.378 138.814 315.939 138.374C315.499 137.934 314.903 137.688 314.281 137.688H262.719C262.097 137.688 261.501 137.934 261.061 138.374C260.622 138.814 260.375 139.41 260.375 140.031C260.375 140.653 260.622 141.249 261.061 141.689C261.501 142.128 262.097 142.375 262.719 142.375H265.062V198.625H258.031C257.41 198.625 256.814 198.872 256.374 199.311C255.934 199.751 255.688 200.347 255.688 200.969C255.688 201.59 255.934 202.186 256.374 202.626C256.814 203.066 257.41 203.312 258.031 203.312H318.969C319.59 203.312 320.186 203.066 320.626 202.626C321.066 202.186 321.312 201.59 321.312 200.969C321.312 200.347 321.066 199.751 320.626 199.311C320.186 198.872 319.59 198.625 318.969 198.625ZM269.75 142.375H307.25V198.625H297.875V186.906C297.875 186.285 297.628 185.689 297.189 185.249C296.749 184.809 296.153 184.562 295.531 184.562H281.469C280.847 184.562 280.251 184.809 279.811 185.249C279.372 185.689 279.125 186.285 279.125 186.906V198.625H269.75V142.375ZM293.188 198.625H283.812V189.25H293.188V198.625ZM276.781 151.75C276.781 151.128 277.028 150.532 277.468 150.093C277.907 149.653 278.503 149.406 279.125 149.406H283.812C284.434 149.406 285.03 149.653 285.47 150.093C285.909 150.532 286.156 151.128 286.156 151.75C286.156 152.372 285.909 152.968 285.47 153.407C285.03 153.847 284.434 154.094 283.812 154.094H279.125C278.503 154.094 277.907 153.847 277.468 153.407C277.028 152.968 276.781 152.372 276.781 151.75ZM290.844 151.75C290.844 151.128 291.091 150.532 291.53 150.093C291.97 149.653 292.566 149.406 293.188 149.406H297.875C298.497 149.406 299.093 149.653 299.532 150.093C299.972 150.532 300.219 151.128 300.219 151.75C300.219 152.372 299.972 152.968 299.532 153.407C299.093 153.847 298.497 154.094 297.875 154.094H293.188C292.566 154.094 291.97 153.847 291.53 153.407C291.091 152.968 290.844 152.372 290.844 151.75ZM276.781 163.469C276.781 162.847 277.028 162.251 277.468 161.811C277.907 161.372 278.503 161.125 279.125 161.125H283.812C284.434 161.125 285.03 161.372 285.47 161.811C285.909 162.251 286.156 162.847 286.156 163.469C286.156 164.09 285.909 164.686 285.47 165.126C285.03 165.566 284.434 165.812 283.812 165.812H279.125C278.503 165.812 277.907 165.566 277.468 165.126C277.028 164.686 276.781 164.09 276.781 163.469ZM290.844 163.469C290.844 162.847 291.091 162.251 291.53 161.811C291.97 161.372 292.566 161.125 293.188 161.125H297.875C298.497 161.125 299.093 161.372 299.532 161.811C299.972 162.251 300.219 162.847 300.219 163.469C300.219 164.09 299.972 164.686 299.532 165.126C299.093 165.566 298.497 165.812 297.875 165.812H293.188C292.566 165.812 291.97 165.566 291.53 165.126C291.091 164.686 290.844 164.09 290.844 163.469ZM276.781 175.188C276.781 174.566 277.028 173.97 277.468 173.53C277.907 173.091 278.503 172.844 279.125 172.844H283.812C284.434 172.844 285.03 173.091 285.47 173.53C285.909 173.97 286.156 174.566 286.156 175.188C286.156 175.809 285.909 176.405 285.47 176.845C285.03 177.284 284.434 177.531 283.812 177.531H279.125C278.503 177.531 277.907 177.284 277.468 176.845C277.028 176.405 276.781 175.809 276.781 175.188ZM290.844 175.188C290.844 174.566 291.091 173.97 291.53 173.53C291.97 173.091 292.566 172.844 293.188 172.844H297.875C298.497 172.844 299.093 173.091 299.532 173.53C299.972 173.97 300.219 174.566 300.219 175.188C300.219 175.809 299.972 176.405 299.532 176.845C299.093 177.284 298.497 177.531 297.875 177.531H293.188C292.566 177.531 291.97 177.284 291.53 176.845C291.091 176.405 290.844 175.809 290.844 175.188Z" fill="#006064"/>
<path d="M318.969 290.625H311.938V234.375H314.281C314.903 234.375 315.499 234.128 315.939 233.689C316.378 233.249 316.625 232.653 316.625 232.031C316.625 231.41 316.378 230.814 315.939 230.374C315.499 229.934 314.903 229.688 314.281 229.688H262.719C262.097 229.688 261.501 229.934 261.061 230.374C260.622 230.814 260.375 231.41 260.375 232.031C260.375 232.653 260.622 233.249 261.061 233.689C261.501 234.128 262.097 234.375 262.719 234.375H265.062V290.625H258.031C257.41 290.625 256.814 290.872 256.374 291.311C255.934 291.751 255.688 292.347 255.688 292.969C255.688 293.59 255.934 294.186 256.374 294.626C256.814 295.066 257.41 295.312 258.031 295.312H318.969C319.59 295.312 320.186 295.066 320.626 294.626C321.066 294.186 321.312 293.59 321.312 292.969C321.312 292.347 321.066 291.751 320.626 291.311C320.186 290.872 319.59 290.625 318.969 290.625ZM269.75 234.375H307.25V290.625H297.875V278.906C297.875 278.285 297.628 277.689 297.189 277.249C296.749 276.809 296.153 276.562 295.531 276.562H281.469C280.847 276.562 280.251 276.809 279.811 277.249C279.372 277.689 279.125 278.285 279.125 278.906V290.625H269.75V234.375ZM293.188 290.625H283.812V281.25H293.188V290.625ZM276.781 243.75C276.781 243.128 277.028 242.532 277.468 242.093C277.907 241.653 278.503 241.406 279.125 241.406H283.812C284.434 241.406 285.03 241.653 285.47 242.093C285.909 242.532 286.156 243.128 286.156 243.75C286.156 244.372 285.909 244.968 285.47 245.407C285.03 245.847 284.434 246.094 283.812 246.094H279.125C278.503 246.094 277.907 245.847 277.468 245.407C277.028 244.968 276.781 244.372 276.781 243.75ZM290.844 243.75C290.844 243.128 291.091 242.532 291.53 242.093C291.97 241.653 292.566 241.406 293.188 241.406H297.875C298.497 241.406 299.093 241.653 299.532 242.093C299.972 242.532 300.219 243.128 300.219 243.75C300.219 244.372 299.972 244.968 299.532 245.407C299.093 245.847 298.497 246.094 297.875 246.094H293.188C292.566 246.094 291.97 245.847 291.53 245.407C291.091 244.968 290.844 244.372 290.844 243.75ZM276.781 255.469C276.781 254.847 277.028 254.251 277.468 253.811C277.907 253.372 278.503 253.125 279.125 253.125H283.812C284.434 253.125 285.03 253.372 285.47 253.811C285.909 254.251 286.156 254.847 286.156 255.469C286.156 256.09 285.909 256.686 285.47 257.126C285.03 257.566 284.434 257.812 283.812 257.812H279.125C278.503 257.812 277.907 257.566 277.468 257.126C277.028 256.686 276.781 256.09 276.781 255.469ZM290.844 255.469C290.844 254.847 291.091 254.251 291.53 253.811C291.97 253.372 292.566 253.125 293.188 253.125H297.875C298.497 253.125 299.093 253.372 299.532 253.811C299.972 254.251 300.219 254.847 300.219 255.469C300.219 256.09 299.972 256.686 299.532 257.126C299.093 257.566 298.497 257.812 297.875 257.812H293.188C292.566 257.812 291.97 257.566 291.53 257.126C291.091 256.686 290.844 256.09 290.844 255.469ZM276.781 267.188C276.781 266.566 277.028 265.97 277.468 265.53C277.907 265.091 278.503 264.844 279.125 264.844H283.812C284.434 264.844 285.03 265.091 285.47 265.53C285.909 265.97 286.156 266.566 286.156 267.188C286.156 267.809 285.909 268.405 285.47 268.845C285.03 269.284 284.434 269.531 283.812 269.531H279.125C278.503 269.531 277.907 269.284 277.468 268.845C277.028 268.405 276.781 267.809 276.781 267.188ZM290.844 267.188C290.844 266.566 291.091 265.97 291.53 265.53C291.97 265.091 292.566 264.844 293.188 264.844H297.875C298.497 264.844 299.093 265.091 299.532 265.53C299.972 265.97 300.219 266.566 300.219 267.188C300.219 267.809 299.972 268.405 299.532 268.845C299.093 269.284 298.497 269.531 297.875 269.531H293.188C292.566 269.531 291.97 269.284 291.53 268.845C291.091 268.405 290.844 267.809 290.844 267.188Z" fill="#006064"/>
<path d="M318.969 382.625H311.938V326.375H314.281C314.903 326.375 315.499 326.128 315.939 325.689C316.378 325.249 316.625 324.653 316.625 324.031C316.625 323.41 316.378 322.814 315.939 322.374C315.499 321.934 314.903 321.688 314.281 321.688H262.719C262.097 321.688 261.501 321.934 261.061 322.374C260.622 322.814 260.375 323.41 260.375 324.031C260.375 324.653 260.622 325.249 261.061 325.689C261.501 326.128 262.097 326.375 262.719 326.375H265.062V382.625H258.031C257.41 382.625 256.814 382.872 256.374 383.311C255.934 383.751 255.688 384.347 255.688 384.969C255.688 385.59 255.934 386.186 256.374 386.626C256.814 387.066 257.41 387.312 258.031 387.312H318.969C319.59 387.312 320.186 387.066 320.626 386.626C321.066 386.186 321.312 385.59 321.312 384.969C321.312 384.347 321.066 383.751 320.626 383.311C320.186 382.872 319.59 382.625 318.969 382.625ZM269.75 326.375H307.25V382.625H297.875V370.906C297.875 370.285 297.628 369.689 297.189 369.249C296.749 368.809 296.153 368.562 295.531 368.562H281.469C280.847 368.562 280.251 368.809 279.811 369.249C279.372 369.689 279.125 370.285 279.125 370.906V382.625H269.75V326.375ZM293.188 382.625H283.812V373.25H293.188V382.625ZM276.781 335.75C276.781 335.128 277.028 334.532 277.468 334.093C277.907 333.653 278.503 333.406 279.125 333.406H283.812C284.434 333.406 285.03 333.653 285.47 334.093C285.909 334.532 286.156 335.128 286.156 335.75C286.156 336.372 285.909 336.968 285.47 337.407C285.03 337.847 284.434 338.094 283.812 338.094H279.125C278.503 338.094 277.907 337.847 277.468 337.407C277.028 336.968 276.781 336.372 276.781 335.75ZM290.844 335.75C290.844 335.128 291.091 334.532 291.53 334.093C291.97 333.653 292.566 333.406 293.188 333.406H297.875C298.497 333.406 299.093 333.653 299.532 334.093C299.972 334.532 300.219 335.128 300.219 335.75C300.219 336.372 299.972 336.968 299.532 337.407C299.093 337.847 298.497 338.094 297.875 338.094H293.188C292.566 338.094 291.97 337.847 291.53 337.407C291.091 336.968 290.844 336.372 290.844 335.75ZM276.781 347.469C276.781 346.847 277.028 346.251 277.468 345.811C277.907 345.372 278.503 345.125 279.125 345.125H283.812C284.434 345.125 285.03 345.372 285.47 345.811C285.909 346.251 286.156 346.847 286.156 347.469C286.156 348.09 285.909 348.686 285.47 349.126C285.03 349.566 284.434 349.812 283.812 349.812H279.125C278.503 349.812 277.907 349.566 277.468 349.126C277.028 348.686 276.781 348.09 276.781 347.469ZM290.844 347.469C290.844 346.847 291.091 346.251 291.53 345.811C291.97 345.372 292.566 345.125 293.188 345.125H297.875C298.497 345.125 299.093 345.372 299.532 345.811C299.972 346.251 300.219 346.847 300.219 347.469C300.219 348.09 299.972 348.686 299.532 349.126C299.093 349.566 298.497 349.812 297.875 349.812H293.188C292.566 349.812 291.97 349.566 291.53 349.126C291.091 348.686 290.844 348.09 290.844 347.469ZM276.781 359.188C276.781 358.566 277.028 357.97 277.468 357.53C277.907 357.091 278.503 356.844 279.125 356.844H283.812C284.434 356.844 285.03 357.091 285.47 357.53C285.909 357.97 286.156 358.566 286.156 359.188C286.156 359.809 285.909 360.405 285.47 360.845C285.03 361.284 284.434 361.531 283.812 361.531H279.125C278.503 361.531 277.907 361.284 277.468 360.845C277.028 360.405 276.781 359.809 276.781 359.188ZM290.844 359.188C290.844 358.566 291.091 357.97 291.53 357.53C291.97 357.091 292.566 356.844 293.188 356.844H297.875C298.497 356.844 299.093 357.091 299.532 357.53C299.972 357.97 300.219 358.566 300.219 359.188C300.219 359.809 299.972 360.405 299.532 360.845C299.093 361.284 298.497 361.531 297.875 361.531H293.188C292.566 361.531 291.97 361.284 291.53 360.845C291.091 360.405 290.844 359.809 290.844 359.188Z" fill="#006064"/>
<path d="M415.969 198.625H408.938V142.375H411.281C411.903 142.375 412.499 142.128 412.939 141.689C413.378 141.249 413.625 140.653 413.625 140.031C413.625 139.41 413.378 138.814 412.939 138.374C412.499 137.934 411.903 137.688 411.281 137.688H359.719C359.097 137.688 358.501 137.934 358.061 138.374C357.622 138.814 357.375 139.41 357.375 140.031C357.375 140.653 357.622 141.249 358.061 141.689C358.501 142.128 359.097 142.375 359.719 142.375H362.062V198.625H355.031C354.41 198.625 353.814 198.872 353.374 199.311C352.934 199.751 352.688 200.347 352.688 200.969C352.688 201.59 352.934 202.186 353.374 202.626C353.814 203.066 354.41 203.312 355.031 203.312H415.969C416.59 203.312 417.186 203.066 417.626 202.626C418.066 202.186 418.312 201.59 418.312 200.969C418.312 200.347 418.066 199.751 417.626 199.311C417.186 198.872 416.59 198.625 415.969 198.625ZM366.75 142.375H404.25V198.625H394.875V186.906C394.875 186.285 394.628 185.689 394.189 185.249C393.749 184.809 393.153 184.562 392.531 184.562H378.469C377.847 184.562 377.251 184.809 376.811 185.249C376.372 185.689 376.125 186.285 376.125 186.906V198.625H366.75V142.375ZM390.188 198.625H380.812V189.25H390.188V198.625ZM373.781 151.75C373.781 151.128 374.028 150.532 374.468 150.093C374.907 149.653 375.503 149.406 376.125 149.406H380.812C381.434 149.406 382.03 149.653 382.47 150.093C382.909 150.532 383.156 151.128 383.156 151.75C383.156 152.372 382.909 152.968 382.47 153.407C382.03 153.847 381.434 154.094 380.812 154.094H376.125C375.503 154.094 374.907 153.847 374.468 153.407C374.028 152.968 373.781 152.372 373.781 151.75ZM387.844 151.75C387.844 151.128 388.091 150.532 388.53 150.093C388.97 149.653 389.566 149.406 390.188 149.406H394.875C395.497 149.406 396.093 149.653 396.532 150.093C396.972 150.532 397.219 151.128 397.219 151.75C397.219 152.372 396.972 152.968 396.532 153.407C396.093 153.847 395.497 154.094 394.875 154.094H390.188C389.566 154.094 388.97 153.847 388.53 153.407C388.091 152.968 387.844 152.372 387.844 151.75ZM373.781 163.469C373.781 162.847 374.028 162.251 374.468 161.811C374.907 161.372 375.503 161.125 376.125 161.125H380.812C381.434 161.125 382.03 161.372 382.47 161.811C382.909 162.251 383.156 162.847 383.156 163.469C383.156 164.09 382.909 164.686 382.47 165.126C382.03 165.566 381.434 165.812 380.812 165.812H376.125C375.503 165.812 374.907 165.566 374.468 165.126C374.028 164.686 373.781 164.09 373.781 163.469ZM387.844 163.469C387.844 162.847 388.091 162.251 388.53 161.811C388.97 161.372 389.566 161.125 390.188 161.125H394.875C395.497 161.125 396.093 161.372 396.532 161.811C396.972 162.251 397.219 162.847 397.219 163.469C397.219 164.09 396.972 164.686 396.532 165.126C396.093 165.566 395.497 165.812 394.875 165.812H390.188C389.566 165.812 388.97 165.566 388.53 165.126C388.091 164.686 387.844 164.09 387.844 163.469ZM373.781 175.188C373.781 174.566 374.028 173.97 374.468 173.53C374.907 173.091 375.503 172.844 376.125 172.844H380.812C381.434 172.844 382.03 173.091 382.47 173.53C382.909 173.97 383.156 174.566 383.156 175.188C383.156 175.809 382.909 176.405 382.47 176.845C382.03 177.284 381.434 177.531 380.812 177.531H376.125C375.503 177.531 374.907 177.284 374.468 176.845C374.028 176.405 373.781 175.809 373.781 175.188ZM387.844 175.188C387.844 174.566 388.091 173.97 388.53 173.53C388.97 173.091 389.566 172.844 390.188 172.844H394.875C395.497 172.844 396.093 173.091 396.532 173.53C396.972 173.97 397.219 174.566 397.219 175.188C397.219 175.809 396.972 176.405 396.532 176.845C396.093 177.284 395.497 177.531 394.875 177.531H390.188C389.566 177.531 388.97 177.284 388.53 176.845C388.091 176.405 387.844 175.809 387.844 175.188Z" fill="#006064"/>
<path d="M415.969 290.625H408.938V234.375H411.281C411.903 234.375 412.499 234.128 412.939 233.689C413.378 233.249 413.625 232.653 413.625 232.031C413.625 231.41 413.378 230.814 412.939 230.374C412.499 229.934 411.903 229.688 411.281 229.688H359.719C359.097 229.688 358.501 229.934 358.061 230.374C357.622 230.814 357.375 231.41 357.375 232.031C357.375 232.653 357.622 233.249 358.061 233.689C358.501 234.128 359.097 234.375 359.719 234.375H362.062V290.625H355.031C354.41 290.625 353.814 290.872 353.374 291.311C352.934 291.751 352.688 292.347 352.688 292.969C352.688 293.59 352.934 294.186 353.374 294.626C353.814 295.066 354.41 295.312 355.031 295.312H415.969C416.59 295.312 417.186 295.066 417.626 294.626C418.066 294.186 418.312 293.59 418.312 292.969C418.312 292.347 418.066 291.751 417.626 291.311C417.186 290.872 416.59 290.625 415.969 290.625ZM366.75 234.375H404.25V290.625H394.875V278.906C394.875 278.285 394.628 277.689 394.189 277.249C393.749 276.809 393.153 276.562 392.531 276.562H378.469C377.847 276.562 377.251 276.809 376.811 277.249C376.372 277.689 376.125 278.285 376.125 278.906V290.625H366.75V234.375ZM390.188 290.625H380.812V281.25H390.188V290.625ZM373.781 243.75C373.781 243.128 374.028 242.532 374.468 242.093C374.907 241.653 375.503 241.406 376.125 241.406H380.812C381.434 241.406 382.03 241.653 382.47 242.093C382.909 242.532 383.156 243.128 383.156 243.75C383.156 244.372 382.909 244.968 382.47 245.407C382.03 245.847 381.434 246.094 380.812 246.094H376.125C375.503 246.094 374.907 245.847 374.468 245.407C374.028 244.968 373.781 244.372 373.781 243.75ZM387.844 243.75C387.844 243.128 388.091 242.532 388.53 242.093C388.97 241.653 389.566 241.406 390.188 241.406H394.875C395.497 241.406 396.093 241.653 396.532 242.093C396.972 242.532 397.219 243.128 397.219 243.75C397.219 244.372 396.972 244.968 396.532 245.407C396.093 245.847 395.497 246.094 394.875 246.094H390.188C389.566 246.094 388.97 245.847 388.53 245.407C388.091 244.968 387.844 244.372 387.844 243.75ZM373.781 255.469C373.781 254.847 374.028 254.251 374.468 253.811C374.907 253.372 375.503 253.125 376.125 253.125H380.812C381.434 253.125 382.03 253.372 382.47 253.811C382.909 254.251 383.156 254.847 383.156 255.469C383.156 256.09 382.909 256.686 382.47 257.126C382.03 257.566 381.434 257.812 380.812 257.812H376.125C375.503 257.812 374.907 257.566 374.468 257.126C374.028 256.686 373.781 256.09 373.781 255.469ZM387.844 255.469C387.844 254.847 388.091 254.251 388.53 253.811C388.97 253.372 389.566 253.125 390.188 253.125H394.875C395.497 253.125 396.093 253.372 396.532 253.811C396.972 254.251 397.219 254.847 397.219 255.469C397.219 256.09 396.972 256.686 396.532 257.126C396.093 257.566 395.497 257.812 394.875 257.812H390.188C389.566 257.812 388.97 257.566 388.53 257.126C388.091 256.686 387.844 256.09 387.844 255.469ZM373.781 267.188C373.781 266.566 374.028 265.97 374.468 265.53C374.907 265.091 375.503 264.844 376.125 264.844H380.812C381.434 264.844 382.03 265.091 382.47 265.53C382.909 265.97 383.156 266.566 383.156 267.188C383.156 267.809 382.909 268.405 382.47 268.845C382.03 269.284 381.434 269.531 380.812 269.531H376.125C375.503 269.531 374.907 269.284 374.468 268.845C374.028 268.405 373.781 267.809 373.781 267.188ZM387.844 267.188C387.844 266.566 388.091 265.97 388.53 265.53C388.97 265.091 389.566 264.844 390.188 264.844H394.875C395.497 264.844 396.093 265.091 396.532 265.53C396.972 265.97 397.219 266.566 397.219 267.188C397.219 267.809 396.972 268.405 396.532 268.845C396.093 269.284 395.497 269.531 394.875 269.531H390.188C389.566 269.531 388.97 269.284 388.53 268.845C388.091 268.405 387.844 267.809 387.844 267.188Z" fill="#006064"/>
<path d="M415.969 382.625H408.938V326.375H411.281C411.903 326.375 412.499 326.128 412.939 325.689C413.378 325.249 413.625 324.653 413.625 324.031C413.625 323.41 413.378 322.814 412.939 322.374C412.499 321.934 411.903 321.688 411.281 321.688H359.719C359.097 321.688 358.501 321.934 358.061 322.374C357.622 322.814 357.375 323.41 357.375 324.031C357.375 324.653 357.622 325.249 358.061 325.689C358.501 326.128 359.097 326.375 359.719 326.375H362.062V382.625H355.031C354.41 382.625 353.814 382.872 353.374 383.311C352.934 383.751 352.688 384.347 352.688 384.969C352.688 385.59 352.934 386.186 353.374 386.626C353.814 387.066 354.41 387.312 355.031 387.312H415.969C416.59 387.312 417.186 387.066 417.626 386.626C418.066 386.186 418.312 385.59 418.312 384.969C418.312 384.347 418.066 383.751 417.626 383.311C417.186 382.872 416.59 382.625 415.969 382.625ZM366.75 326.375H404.25V382.625H394.875V370.906C394.875 370.285 394.628 369.689 394.189 369.249C393.749 368.809 393.153 368.562 392.531 368.562H378.469C377.847 368.562 377.251 368.809 376.811 369.249C376.372 369.689 376.125 370.285 376.125 370.906V382.625H366.75V326.375ZM390.188 382.625H380.812V373.25H390.188V382.625ZM373.781 335.75C373.781 335.128 374.028 334.532 374.468 334.093C374.907 333.653 375.503 333.406 376.125 333.406H380.812C381.434 333.406 382.03 333.653 382.47 334.093C382.909 334.532 383.156 335.128 383.156 335.75C383.156 336.372 382.909 336.968 382.47 337.407C382.03 337.847 381.434 338.094 380.812 338.094H376.125C375.503 338.094 374.907 337.847 374.468 337.407C374.028 336.968 373.781 336.372 373.781 335.75ZM387.844 335.75C387.844 335.128 388.091 334.532 388.53 334.093C388.97 333.653 389.566 333.406 390.188 333.406H394.875C395.497 333.406 396.093 333.653 396.532 334.093C396.972 334.532 397.219 335.128 397.219 335.75C397.219 336.372 396.972 336.968 396.532 337.407C396.093 337.847 395.497 338.094 394.875 338.094H390.188C389.566 338.094 388.97 337.847 388.53 337.407C388.091 336.968 387.844 336.372 387.844 335.75ZM373.781 347.469C373.781 346.847 374.028 346.251 374.468 345.811C374.907 345.372 375.503 345.125 376.125 345.125H380.812C381.434 345.125 382.03 345.372 382.47 345.811C382.909 346.251 383.156 346.847 383.156 347.469C383.156 348.09 382.909 348.686 382.47 349.126C382.03 349.566 381.434 349.812 380.812 349.812H376.125C375.503 349.812 374.907 349.566 374.468 349.126C374.028 348.686 373.781 348.09 373.781 347.469ZM387.844 347.469C387.844 346.847 388.091 346.251 388.53 345.811C388.97 345.372 389.566 345.125 390.188 345.125H394.875C395.497 345.125 396.093 345.372 396.532 345.811C396.972 346.251 397.219 346.847 397.219 347.469C397.219 348.09 396.972 348.686 396.532 349.126C396.093 349.566 395.497 349.812 394.875 349.812H390.188C389.566 349.812 388.97 349.566 388.53 349.126C388.091 348.686 387.844 348.09 387.844 347.469ZM373.781 359.188C373.781 358.566 374.028 357.97 374.468 357.53C374.907 357.091 375.503 356.844 376.125 356.844H380.812C381.434 356.844 382.03 357.091 382.47 357.53C382.909 357.97 383.156 358.566 383.156 359.188C383.156 359.809 382.909 360.405 382.47 360.845C382.03 361.284 381.434 361.531 380.812 361.531H376.125C375.503 361.531 374.907 361.284 374.468 360.845C374.028 360.405 373.781 359.809 373.781 359.188ZM387.844 359.188C387.844 358.566 388.091 357.97 388.53 357.53C388.97 357.091 389.566 356.844 390.188 356.844H394.875C395.497 356.844 396.093 357.091 396.532 357.53C396.972 357.97 397.219 358.566 397.219 359.188C397.219 359.809 396.972 360.405 396.532 360.845C396.093 361.284 395.497 361.531 394.875 361.531H390.188C389.566 361.531 388.97 361.284 388.53 360.845C388.091 360.405 387.844 359.809 387.844 359.188Z" fill="#006064"/>
</svg>
