<svg width="34" height="34" viewBox="0 0 34 34" fill="none" xmlns="http://www.w3.org/2000/svg">
<path d="M10.636 23.3639C10.4485 23.1764 10.3431 22.922 10.3431 22.6568C10.3431 22.3916 10.4485 22.1372 10.636 21.9497L20.2428 12.343L12.7573 12.3444C12.6259 12.3444 12.4957 12.3185 12.3742 12.2682C12.2527 12.2178 12.1423 12.1441 12.0493 12.0511C11.9564 11.9581 11.8826 11.8478 11.8323 11.7263C11.782 11.6048 11.7561 11.4746 11.7561 11.3431C11.7561 11.2116 11.782 11.0814 11.8323 10.9599C11.8826 10.8385 11.9564 10.7281 12.0493 10.6351C12.1423 10.5421 12.2527 10.4684 12.3742 10.4181C12.4957 10.3677 12.6259 10.3418 12.7573 10.3418H22.6568C22.7884 10.3417 22.9186 10.3675 23.0402 10.4177C23.1618 10.468 23.2722 10.5417 23.3652 10.6347C23.4582 10.7277 23.532 10.8382 23.5822 10.9597C23.6325 11.0813 23.6583 11.2116 23.6581 11.3431V21.2426C23.6581 21.5082 23.5526 21.7628 23.3648 21.9506C23.1771 22.1384 22.9224 22.2439 22.6568 22.2439C22.3913 22.2439 22.1366 22.1384 21.9488 21.9506C21.7611 21.7628 21.6556 21.5082 21.6556 21.2426L21.657 13.7572L12.0502 23.3639C11.8627 23.5515 11.6083 23.6568 11.3431 23.6568C11.0779 23.6568 10.8236 23.5515 10.636 23.3639Z" fill="black"/>
</svg>
