<svg width="711" height="318" viewBox="0 0 711 318" fill="none" xmlns="http://www.w3.org/2000/svg">
<rect width="710.756" height="318" fill="#F9DFAE"/>
<path d="M155.116 158.147C154.276 157.163 134.265 134.108 109.067 134.108C103.819 134.108 98.3819 135.136 92.9008 137.161C92.2229 137.41 91.873 138.167 92.1267 138.849C92.3803 139.527 93.1327 139.877 93.815 139.623C94.4361 139.396 95.0528 139.182 95.6739 138.976C89.2224 143.306 84.971 150.664 84.971 159C84.971 167.315 89.2049 174.658 95.6258 178.993C80.5051 173.998 68.8186 162.258 65.7831 158.995C67.9656 156.642 74.6227 149.885 83.7948 144.448C84.4203 144.081 84.6259 143.272 84.2541 142.65C83.8823 142.025 83.0775 141.824 82.4564 142.191C70.8438 149.076 63.3338 157.775 63.0192 158.143C62.5993 158.633 62.5993 159.359 63.0192 159.848C63.859 160.833 83.8695 183.892 109.068 183.892C117.308 183.892 125.877 181.395 134.546 176.465C135.176 176.107 135.399 175.306 135.04 174.676C134.681 174.046 133.876 173.823 133.251 174.182C129.621 176.247 126.017 177.861 122.456 179.028C128.912 174.698 133.168 167.337 133.168 159C133.168 150.685 128.934 143.337 122.509 139.007C137.629 144.002 149.316 155.742 152.351 159.004C150.864 160.61 147.295 164.266 142.274 168.141C141.701 168.583 141.596 169.41 142.038 169.983C142.296 170.32 142.685 170.495 143.079 170.495C143.359 170.495 143.643 170.407 143.879 170.219C150.786 164.887 154.941 160.054 155.116 159.853C155.535 159.363 155.536 158.637 155.116 158.147ZM130.544 159C130.544 170.84 120.908 180.476 109.067 180.476C97.2269 180.476 87.5911 170.84 87.5911 159C87.5911 147.156 97.2269 137.524 109.067 137.524C120.908 137.524 130.544 147.16 130.544 159Z" fill="#C71C02"/>
<path d="M94.6664 159.164C94.6664 166.968 101.167 173.317 109.162 173.317C117.157 173.317 123.662 166.968 123.662 159.164C123.662 151.361 117.157 145.012 109.162 145.012C101.171 145.012 94.6664 151.361 94.6664 159.164ZM121.036 159.164C121.036 165.552 115.71 170.75 109.166 170.75C102.622 170.75 97.3011 165.552 97.3011 159.164C97.3011 152.777 102.622 147.579 109.166 147.579C115.71 147.579 121.036 152.777 121.036 159.164Z" fill="#C71C02"/>
<path d="M238.846 116.473C255.211 116.473 268.522 129.95 268.522 146.52C268.522 149.731 268.026 152.89 267.043 155.908C266.829 156.575 266.125 156.931 265.466 156.71C264.808 156.493 264.456 155.78 264.674 155.114C265.575 152.348 266.026 149.457 266.026 146.509C266.026 131.336 253.832 118.989 238.846 118.989C223.86 118.989 211.666 131.336 211.666 146.509C211.666 154.301 214.954 161.765 220.689 166.986C221.284 167.535 221.914 168.055 222.607 168.572C226.311 171.63 228.43 176.146 228.43 180.972C228.43 181.603 228.395 182.241 228.314 182.89C228.233 183.521 228.187 184.166 228.187 184.808C228.187 192.646 234.485 199.022 242.226 199.022C248.932 199.022 252.093 192.899 253.561 187.762C253.751 187.089 254.445 186.704 255.11 186.896C255.775 187.089 256.156 187.791 255.965 188.465C253.522 197.022 248.773 201.549 242.233 201.549C233.112 201.549 225.694 194.039 225.694 184.804C225.694 184.048 225.747 183.289 225.839 182.569C225.902 182.041 225.93 181.5 225.93 180.972C225.93 176.912 224.145 173.099 221.065 170.561C220.361 170.023 219.667 169.456 219.02 168.854C212.764 163.161 209.177 155.01 209.177 146.498C209.177 129.928 222.488 116.451 238.853 116.451L238.846 116.473Z" fill="#C71C02"/>
<path d="M222.797 147.611C222.078 147.639 221.502 147.113 221.477 146.418C221.459 146.019 221.449 145.613 221.459 145.218C221.531 140.476 223.472 136.04 226.904 132.734C230.336 129.427 234.86 127.674 239.639 127.73C244.419 127.801 248.889 129.727 252.222 133.133C255.554 136.538 257.339 141.026 257.265 145.769C257.236 147.565 256.909 149.417 256.29 151.288C256.144 151.711 254.825 155.48 251.838 155.649C249.498 155.758 247.357 153.687 245.255 149.227C244.134 146.852 242.762 145.677 241.204 145.73C238.9 145.811 236.051 148.574 234.714 152.018C233.775 154.449 233.849 156.507 234.913 157.53C236.214 158.786 237.573 159.672 238.892 160.529C242.499 162.879 245.902 165.099 245.685 173.639C245.585 177.605 247.022 179.285 248.281 179.521C249.43 179.736 250.568 178.879 251.105 177.397C252.062 174.75 252.015 169.185 252.015 169.132C252.015 168.437 252.57 167.876 253.264 167.869H253.282C253.975 167.869 254.537 168.42 254.548 169.108C254.548 169.351 254.601 175.177 253.491 178.258C252.645 180.597 250.724 182.069 248.64 182.069C248.367 182.069 248.093 182.041 247.822 181.998C245.475 181.564 243.025 179.126 243.171 173.589C243.352 166.444 240.905 164.852 237.516 162.64C236.168 161.765 234.65 160.77 233.163 159.344C231.314 157.566 231.022 154.573 232.363 151.133C233.846 147.311 237.335 143.373 241.129 143.239C242.95 143.211 245.582 143.98 247.556 148.179C249.778 152.904 251.269 153.176 251.699 153.165C252.627 153.112 253.555 151.556 253.904 150.519C254.441 148.892 254.722 147.287 254.75 145.741C254.814 141.665 253.274 137.808 250.415 134.883C247.556 131.957 243.715 130.313 239.607 130.249C235.51 130.186 231.613 131.714 228.664 134.551C225.716 137.388 224.058 141.199 223.994 145.275C223.994 145.627 223.994 145.97 224.012 146.312C224.048 147.007 223.511 147.596 222.81 147.621L222.797 147.611Z" fill="#C71C02"/>
<path d="M385.788 150.486C386.156 152.411 385.664 154.466 384.394 156.285C383.001 158.292 380.847 159.725 378.777 160.03C376.379 160.383 374.473 160.468 372.779 160.529C368.843 160.684 365.736 160.81 358.541 164.107C357.404 164.627 355.386 165.147 353.404 165.147C351.867 165.147 350.349 164.834 349.284 163.973C348.844 163.62 348.772 162.966 349.12 162.519C349.468 162.073 350.113 161.987 350.553 162.353C352.039 163.559 355.843 163.072 357.696 162.219C365.252 158.759 368.694 158.621 372.691 158.454C374.405 158.381 376.186 158.308 378.472 157.975C379.978 157.747 381.651 156.614 382.716 155.083C383.661 153.731 384.03 152.245 383.761 150.884C383.649 150.324 384.018 149.771 384.57 149.666C385.131 149.552 385.672 149.917 385.788 150.486ZM406.163 159.063C405.763 164.18 403.673 168.107 400.282 169.992C399.237 170.573 398.14 170.938 397.011 171.178C397.707 174.118 396.59 177.757 394.869 179.674C392.963 181.786 390.176 183.219 386.577 183.946C384.959 184.267 383.121 184.478 381.228 184.478C380.715 184.478 380.203 184.458 379.69 184.426C379.77 185.766 379.71 187.13 379.65 188.564C379.57 190.363 379.474 192.223 379.662 194.25C379.694 194.542 379.59 194.83 379.394 195.05C379.186 195.265 378.917 195.391 378.621 195.391H372.471C372.019 195.391 371.63 195.098 371.498 194.664C369.212 187.366 365.06 184.539 361.4 182.041C358.49 180.068 355.751 178.183 354.534 174.504C353.889 174.557 353.233 174.597 352.588 174.597C351.327 174.597 350.066 174.492 348.816 174.256C344.728 173.476 340.617 170.597 339.295 166.719C333.954 167.77 328.613 165.451 325.233 160.562C322.066 155.989 321.378 149.592 323.452 143.887C325.257 138.895 329.109 134.27 334.294 130.878C338.486 128.133 343.643 126.066 350.057 124.527C358.197 122.581 365.76 122.114 372.535 123.134C373.929 123.341 375.262 123.613 376.555 123.934H376.595C376.615 123.934 376.635 123.954 376.655 123.954C398.844 129.453 406.247 150.206 406.247 157.236C406.247 157.63 406.235 158.016 406.215 158.401C406.263 158.629 406.256 158.856 406.163 159.063ZM377.616 184.202C374.541 183.735 371.618 182.622 369.568 180.502C367.57 178.435 366.761 175.678 367.17 172.478C365.948 172.664 364.731 172.863 363.51 173.079C362.917 173.192 362.321 173.306 361.716 173.42C360.047 173.741 358.353 174.065 356.643 174.281C357.709 176.994 359.851 178.48 362.537 180.312C366.165 182.785 370.657 185.843 373.207 193.307H377.511C377.431 191.594 377.499 190.002 377.571 188.462C377.655 186.96 377.72 185.534 377.616 184.202ZM394.948 171.499C393.022 171.665 391.044 171.572 389.086 171.466L388.39 171.425C382.016 171.105 375.617 171.352 369.295 172.173C368.795 174.999 369.367 177.31 371.037 179.044C374.336 182.464 381.019 182.955 386.176 181.903C389.331 181.27 391.741 180.043 393.351 178.265C394.704 176.758 395.573 173.712 394.948 171.499ZM404.133 158.742C403.272 157.069 401.747 155.737 399.981 155.144C398.095 154.51 395.933 154.717 394.199 155.684C393.707 155.964 393.082 155.777 392.806 155.278C392.53 154.778 392.714 154.145 393.206 153.865C395.432 152.618 398.207 152.358 400.625 153.166C401.887 153.592 403.044 154.311 404.017 155.225C403.32 150.473 400.305 142.551 393.827 135.959C393.551 137.039 392.966 138.071 392.125 138.924C390.824 140.244 388.926 141.109 386.928 141.316H386.824C386.3 141.316 385.859 140.922 385.811 140.382C385.751 139.809 386.172 139.301 386.732 139.236C388.282 139.082 389.715 138.424 390.688 137.437C391.589 136.524 392.049 135.338 391.969 134.172C388.145 130.781 383.277 127.914 377.211 126.229C376.687 128.454 375.706 130.428 374.373 132.06C374.353 132.207 374.313 132.341 374.241 132.475C373.492 133.742 373.32 135.261 373.76 136.633C374.213 138.039 375.278 139.265 376.703 140C377.203 140.26 377.412 140.885 377.143 141.405C376.959 141.771 376.599 141.966 376.231 141.966C376.078 141.966 375.914 141.925 375.77 141.852C373.864 140.865 372.427 139.2 371.814 137.279C371.546 136.438 371.446 135.565 371.498 134.692C370.041 135.671 368.371 136.365 366.549 136.731C366.489 136.743 366.417 136.751 366.353 136.751C365.873 136.751 365.44 136.41 365.348 135.91C365.236 135.35 365.604 134.798 366.157 134.692C370.729 133.786 374.132 130.399 375.23 125.741C374.257 125.522 373.272 125.327 372.247 125.169C366.721 124.348 360.636 124.555 354.114 125.782C355.159 127.228 355.435 129.254 355.067 130.919C354.626 132.873 353.549 134.497 352.516 136.065L352.036 136.804C351.043 138.343 350.038 140.162 350.17 142.002C350.21 142.575 349.79 143.074 349.225 143.115H349.145C348.612 143.115 348.16 142.701 348.12 142.148C347.936 139.695 349.125 137.49 350.314 135.663L350.807 134.903C351.791 133.425 352.712 132.032 353.061 130.452C353.409 128.925 352.957 126.992 351.655 126.281C351.275 126.363 350.907 126.436 350.526 126.529C344.336 128.007 339.384 129.989 335.395 132.6C331.019 135.472 327.688 139.245 325.882 143.351C327.083 143.391 328.373 143.403 329.45 143.03C330.311 142.729 331.027 142.189 331.796 141.604C332.349 141.19 332.913 140.764 333.558 140.398C334.747 139.732 336.132 139.326 337.566 139.224C338.15 139.192 338.623 139.618 338.663 140.191C338.703 140.764 338.274 141.263 337.71 141.304C336.573 141.385 335.476 141.71 334.555 142.23C334.022 142.53 333.542 142.896 333.017 143.29C332.169 143.935 331.276 144.601 330.127 145.003C329.07 145.377 327.924 145.47 326.847 145.47C326.303 145.47 325.782 145.45 325.298 145.43C325.238 145.43 325.194 145.397 325.134 145.389C323.628 150.267 324.273 155.546 326.908 159.363C329.85 163.615 334.287 165.569 338.879 164.675C338.859 164.375 338.847 164.062 338.867 163.741C338.959 161.629 339.812 159.635 341.286 157.93C341.718 157.243 341.706 156.577 341.47 155.278C341.214 153.885 340.313 152.472 339.06 151.505C338.607 151.152 338.527 150.506 338.863 150.051C339.212 149.592 339.848 149.511 340.297 149.852C341.966 151.152 343.127 152.991 343.476 154.904C343.536 155.225 343.58 155.538 343.62 155.85C346.058 154.145 350.755 151.871 357.077 150.538C357.281 147.606 359.115 144.8 361.793 143.5C362.306 143.253 362.923 143.468 363.155 143.988C363.399 144.508 363.187 145.133 362.674 145.369C360.82 146.262 359.507 148.122 359.191 150.128C363.159 149.462 367.659 149.182 372.576 149.629C373.141 149.681 373.561 150.189 373.509 150.762C373.457 151.334 372.957 151.761 372.392 151.708C370.73 151.554 369.133 151.489 367.603 151.489C352.945 151.489 344.449 157.788 344.357 157.861C343.804 158.287 343.312 158.746 342.879 159.233C342.775 159.388 342.663 159.534 342.531 159.692C342.511 159.713 342.479 159.725 342.459 159.745C341.514 160.992 340.974 162.385 340.91 163.831C340.725 168.042 344.978 171.388 349.189 172.201C353.137 172.96 357.309 172.148 361.338 171.368C361.942 171.254 362.547 171.141 363.143 171.027C371.487 169.48 380.016 168.915 388.499 169.342L389.208 169.382C392.743 169.569 396.403 169.768 399.306 168.164C402.977 166.133 403.918 161.621 404.134 158.742L404.133 158.742Z" fill="#C71C02"/>
<path d="M469.121 180.906V198.821C469.121 199.605 469.681 200.165 470.464 200.165H495.994C496.778 200.165 497.338 199.605 497.338 198.821V182.585H509.207C513.35 182.585 516.709 179.226 516.709 175.083V162.99H520.74C522.195 162.99 523.539 162.206 524.211 160.863C524.883 159.519 524.771 158.063 523.987 156.832L516.709 145.859C516.597 138.021 513.126 130.406 507.303 125.144C501.257 119.657 493.419 117.194 485.245 117.978C472.144 119.321 461.507 129.959 460.163 143.059C459.491 149.33 460.835 155.376 463.97 160.751C467.329 166.573 469.121 173.516 469.121 180.906ZM462.738 143.507C463.97 131.638 473.6 122.009 485.469 120.777C492.859 119.993 500.025 122.232 505.512 127.271C510.886 132.198 514.021 139.14 514.021 146.418C514.021 146.642 514.133 146.978 514.245 147.202L521.747 158.399C522.083 158.959 521.971 159.519 521.859 159.743C521.747 159.967 521.412 160.415 520.74 160.415H515.477C514.693 160.415 514.133 160.975 514.133 161.759V175.083C514.133 177.771 511.894 180.01 509.207 180.01H495.994C495.21 180.01 494.65 180.57 494.65 181.354V197.59H471.808V180.906C471.808 173.068 469.905 165.678 466.209 159.631C463.298 154.704 462.178 149.218 462.738 143.507Z" fill="#C71C02"/>
<path d="M539.775 150.225C539.215 150.785 539.215 151.569 539.775 152.129C544.366 156.72 546.941 162.878 546.941 169.373C546.941 175.867 544.366 182.025 539.775 186.616C539.215 187.176 539.215 187.96 539.775 188.52C539.999 188.744 540.335 188.856 540.671 188.856C541.007 188.856 541.343 188.744 541.567 188.52C546.717 183.369 549.517 176.651 549.517 169.373C549.517 162.094 546.717 155.376 541.567 150.225C541.119 149.777 540.223 149.777 539.775 150.225Z" fill="#C71C02"/>
<path d="M539.775 169.484C539.775 174.187 537.983 178.554 534.736 181.801C534.176 182.361 534.176 183.145 534.736 183.705C534.96 183.929 535.296 184.041 535.632 184.041C535.968 184.041 536.304 183.929 536.528 183.705C540.335 179.898 542.35 174.859 542.35 169.484C542.35 164.11 540.223 159.071 536.528 155.264C535.968 154.704 535.184 154.704 534.624 155.264C534.064 155.824 534.064 156.608 534.624 157.168C537.983 160.415 539.775 164.782 539.775 169.484Z" fill="#C71C02"/>
<path d="M529.81 178.666C530.033 178.89 530.369 179.002 530.705 179.002C531.041 179.002 531.377 178.89 531.601 178.666C534.064 176.203 535.408 172.956 535.408 169.484C535.408 166.013 534.064 162.766 531.601 160.303C531.041 159.743 530.257 159.743 529.698 160.303C529.138 160.863 529.138 161.646 529.698 162.206C533.729 166.237 533.729 172.844 529.698 176.875C529.25 177.211 529.25 178.106 529.81 178.666Z" fill="#C71C02"/>
<path d="M648.048 135.108V166.927C648.048 169.138 647.753 171.334 647.177 173.464L644.509 183.296V195.927C644.509 196.553 644.003 197.062 643.38 197.062C642.758 197.062 642.252 196.553 642.252 195.927V183.145C642.252 183.042 642.266 182.944 642.292 182.845L645 172.867C645.525 170.931 645.79 168.933 645.79 166.927V135.108C645.79 133.772 644.709 132.685 643.38 132.685C642.051 132.685 640.97 133.772 640.97 135.108V149.299C640.97 149.925 640.464 150.434 639.841 150.434C639.219 150.434 638.713 149.925 638.713 149.299V127.993C638.713 126.657 637.632 125.57 636.303 125.57C634.974 125.57 633.893 126.657 633.893 127.993V149.299C633.893 149.925 633.387 150.434 632.764 150.434C632.142 150.434 631.636 149.925 631.636 149.299V125.624C631.636 124.288 630.554 123.201 629.225 123.201C627.897 123.201 626.815 124.288 626.815 125.624V149.303C626.815 149.929 626.309 150.438 625.687 150.438C625.064 150.438 624.558 149.929 624.558 149.303V130.369C624.558 129.033 623.477 127.945 622.148 127.945C620.819 127.945 619.738 129.033 619.738 130.369V162.671C619.738 163.194 619.381 163.648 618.875 163.772C618.369 163.897 617.845 163.655 617.608 163.191L610.847 150.043C610.148 148.681 608.466 148.121 607.097 148.795C605.725 149.468 605.131 151.148 605.772 152.543L619.636 182.678C619.705 182.828 619.742 182.989 619.742 183.154V195.936C619.742 196.562 619.235 197.07 618.613 197.07C617.99 197.07 617.484 196.562 617.484 195.936V183.403L603.726 153.495C602.575 150.991 603.642 147.968 606.111 146.756C608.572 145.548 611.597 146.559 612.853 149.004L617.484 158.008V130.369C617.484 127.782 619.578 125.677 622.152 125.677C623.033 125.677 623.859 125.929 624.562 126.358V125.622C624.562 123.034 626.655 120.93 629.229 120.93C631.286 120.93 633.034 122.277 633.653 124.14C634.406 123.613 635.32 123.301 636.307 123.301C638.881 123.301 640.974 125.406 640.974 127.994V131.098C641.68 130.67 642.503 130.417 643.384 130.417C645.958 130.417 648.051 132.522 648.051 135.109L648.048 135.108Z" fill="#C71C02"/>
</svg>
