<svg width="1440" height="729" viewBox="0 0 1440 729" fill="none" xmlns="http://www.w3.org/2000/svg">
<rect width="1440" height="729" fill="#F9E3A4" fill-opacity="0.7"/>
<path d="M593.528 382.576C590.296 382.576 587.416 381.84 584.888 380.368C582.392 378.864 580.424 376.816 578.984 374.224C577.576 371.6 576.872 368.592 576.872 365.2C576.872 361.808 577.576 358.816 578.984 356.224C580.424 353.6 582.392 351.552 584.888 350.08C587.384 348.576 590.248 347.824 593.48 347.824C595.656 347.824 597.704 348.224 599.624 349.024C601.544 349.792 603.24 350.864 604.712 352.24C606.216 353.616 607.368 355.216 608.168 357.04L603.08 359.104C602.504 357.888 601.72 356.816 600.728 355.888C599.768 354.928 598.664 354.192 597.416 353.68C596.168 353.168 594.856 352.912 593.48 352.912C591.368 352.912 589.48 353.44 587.816 354.496C586.184 355.552 584.888 357.008 583.928 358.864C583 360.688 582.536 362.8 582.536 365.2C582.536 367.6 583 369.728 583.928 371.584C584.888 373.44 586.2 374.896 587.864 375.952C589.56 377.008 591.48 377.536 593.624 377.536C595.032 377.536 596.344 377.264 597.56 376.72C598.808 376.144 599.912 375.36 600.872 374.368C601.864 373.376 602.648 372.224 603.224 370.912L608.312 372.976C607.512 374.864 606.376 376.544 604.904 378.016C603.432 379.456 601.72 380.576 599.768 381.376C597.816 382.176 595.736 382.576 593.528 382.576ZM623.704 382.576C621.304 382.576 619.16 382.048 617.272 380.992C615.416 379.904 613.96 378.416 612.904 376.528C611.848 374.64 611.32 372.464 611.32 370C611.32 367.536 611.832 365.36 612.855 363.472C613.912 361.584 615.368 360.112 617.224 359.056C619.08 357.968 621.208 357.424 623.608 357.424C626.008 357.424 628.136 357.968 629.992 359.056C631.848 360.112 633.288 361.584 634.312 363.472C635.368 365.36 635.896 367.536 635.896 370C635.896 372.464 635.384 374.64 634.359 376.528C633.336 378.416 631.896 379.904 630.04 380.992C628.184 382.048 626.072 382.576 623.704 382.576ZM623.704 377.632C625.016 377.632 626.184 377.312 627.208 376.672C628.232 376 629.032 375.104 629.608 373.984C630.184 372.832 630.472 371.504 630.472 370C630.472 368.496 630.168 367.184 629.56 366.064C628.984 364.912 628.184 364.016 627.16 363.376C626.136 362.704 624.952 362.368 623.608 362.368C622.264 362.368 621.08 362.688 620.056 363.328C619.032 363.968 618.232 364.864 617.656 366.016C617.08 367.168 616.792 368.496 616.792 370C616.792 371.504 617.08 372.832 617.656 373.984C618.264 375.104 619.08 376 620.104 376.672C621.16 377.312 622.36 377.632 623.704 377.632ZM640.554 382V358H645.594L645.834 361.216C646.57 359.968 647.514 359.024 648.666 358.384C649.818 357.744 651.13 357.424 652.602 357.424C654.522 357.424 656.154 357.856 657.498 358.72C658.842 359.584 659.818 360.896 660.426 362.656C661.13 360.96 662.122 359.664 663.402 358.768C664.682 357.872 666.186 357.424 667.914 357.424C670.698 357.424 672.842 358.32 674.346 360.112C675.85 361.872 676.586 364.592 676.554 368.272V382H671.226V369.712C671.226 367.792 671.018 366.32 670.602 365.296C670.186 364.24 669.626 363.504 668.922 363.088C668.218 362.672 667.402 362.464 666.474 362.464C664.81 362.432 663.514 363.024 662.586 364.24C661.69 365.456 661.242 367.2 661.242 369.472V382H655.866V369.712C655.866 367.792 655.658 366.32 655.242 365.296C654.858 364.24 654.314 363.504 653.61 363.088C652.906 362.672 652.09 362.464 651.162 362.464C649.498 362.432 648.202 363.024 647.274 364.24C646.378 365.456 645.93 367.2 645.93 369.472V382H640.554ZM682.375 382V358H687.703V382H682.375ZM685.062 353.44C684.199 353.44 683.447 353.136 682.807 352.528C682.199 351.888 681.895 351.136 681.895 350.272C681.895 349.408 682.199 348.672 682.807 348.064C683.447 347.456 684.199 347.152 685.062 347.152C685.927 347.152 686.663 347.456 687.271 348.064C687.911 348.672 688.231 349.408 688.231 350.272C688.231 351.136 687.911 351.888 687.271 352.528C686.663 353.136 685.927 353.44 685.062 353.44ZM694.039 382V358H699.079L699.415 362.416V382H694.039ZM710.311 382V369.712H715.687V382H710.311ZM710.311 369.712C710.311 367.792 710.087 366.32 709.639 365.296C709.223 364.24 708.615 363.504 707.815 363.088C707.047 362.672 706.135 362.464 705.079 362.464C703.287 362.432 701.895 363.024 700.903 364.24C699.911 365.456 699.415 367.2 699.415 369.472H697.398C697.398 366.944 697.766 364.784 698.503 362.992C699.239 361.168 700.295 359.792 701.671 358.864C703.047 357.904 704.679 357.424 706.567 357.424C708.487 357.424 710.119 357.808 711.463 358.576C712.839 359.344 713.879 360.544 714.583 362.176C715.319 363.776 715.687 365.872 715.687 368.464V369.712H710.311ZM731.452 392.224C729.756 392.224 728.22 392.08 726.844 391.792C725.5 391.504 724.364 391.168 723.436 390.784C722.508 390.4 721.788 390.032 721.276 389.68L723.34 385.36C723.788 385.584 724.38 385.856 725.116 386.176C725.884 386.528 726.78 386.832 727.804 387.088C728.828 387.344 729.98 387.472 731.26 387.472C732.636 387.472 733.868 387.184 734.956 386.608C736.044 386.064 736.892 385.216 737.5 384.064C738.108 382.912 738.412 381.44 738.412 379.648V358H743.788V379.504C743.788 382.224 743.276 384.528 742.252 386.416C741.228 388.336 739.788 389.776 737.932 390.736C736.076 391.728 733.916 392.224 731.452 392.224ZM730.636 381.52C728.46 381.52 726.556 381.024 724.924 380.032C723.324 379.04 722.06 377.664 721.132 375.904C720.236 374.112 719.788 372.048 719.788 369.712C719.788 367.216 720.236 365.056 721.132 363.232C722.06 361.408 723.324 359.984 724.924 358.96C726.556 357.936 728.46 357.424 730.636 357.424C732.588 357.424 734.284 357.936 735.724 358.96C737.196 359.984 738.332 361.424 739.132 363.28C739.932 365.104 740.332 367.264 740.332 369.76C740.332 372.128 739.932 374.192 739.132 375.952C738.332 377.712 737.196 379.088 735.724 380.08C734.284 381.04 732.588 381.52 730.636 381.52ZM732.124 376.96C733.34 376.96 734.396 376.64 735.292 376C736.22 375.36 736.94 374.496 737.452 373.408C737.964 372.288 738.22 371.008 738.22 369.568C738.22 368.096 737.964 366.816 737.452 365.728C736.94 364.608 736.22 363.744 735.292 363.136C734.364 362.496 733.292 362.176 732.076 362.176C730.796 362.176 729.66 362.496 728.668 363.136C727.708 363.744 726.94 364.608 726.364 365.728C725.82 366.816 725.548 368.096 725.548 369.568C725.548 371.008 725.82 372.288 726.364 373.408C726.94 374.496 727.724 375.36 728.716 376C729.708 376.64 730.844 376.96 732.124 376.96ZM770.04 382.576C768.44 382.576 766.968 382.336 765.624 381.856C764.28 381.376 763.128 380.704 762.168 379.84C761.208 378.944 760.472 377.904 759.96 376.72L764.616 374.656C765.096 375.552 765.8 376.304 766.728 376.912C767.688 377.52 768.744 377.824 769.896 377.824C771.144 377.824 772.136 377.616 772.872 377.2C773.64 376.752 774.024 376.144 774.024 375.376C774.024 374.64 773.736 374.08 773.16 373.696C772.584 373.28 771.768 372.944 770.712 372.688L768.456 372.064C766.184 371.488 764.408 370.576 763.128 369.328C761.848 368.048 761.208 366.592 761.208 364.96C761.208 362.56 761.976 360.704 763.512 359.392C765.08 358.08 767.32 357.424 770.232 357.424C771.704 357.424 773.048 357.648 774.264 358.096C775.512 358.512 776.584 359.12 777.48 359.92C778.376 360.688 779 361.6 779.352 362.656L774.888 364.672C774.568 363.872 773.96 363.264 773.064 362.848C772.168 362.4 771.176 362.176 770.088 362.176C769 362.176 768.152 362.416 767.544 362.896C766.936 363.344 766.632 363.984 766.632 364.816C766.632 365.296 766.904 365.744 767.448 366.16C767.992 366.544 768.776 366.864 769.8 367.12L772.632 367.792C774.2 368.176 775.48 368.784 776.472 369.616C777.464 370.416 778.2 371.328 778.68 372.352C779.16 373.344 779.4 374.352 779.4 375.376C779.4 376.816 778.984 378.08 778.152 379.168C777.352 380.256 776.248 381.104 774.84 381.712C773.432 382.288 771.832 382.576 770.04 382.576ZM794.704 382.576C792.304 382.576 790.16 382.048 788.272 380.992C786.416 379.904 784.96 378.416 783.904 376.528C782.848 374.64 782.32 372.464 782.32 370C782.32 367.536 782.832 365.36 783.855 363.472C784.912 361.584 786.368 360.112 788.224 359.056C790.08 357.968 792.208 357.424 794.608 357.424C797.008 357.424 799.136 357.968 800.992 359.056C802.848 360.112 804.288 361.584 805.312 363.472C806.368 365.36 806.896 367.536 806.896 370C806.896 372.464 806.384 374.64 805.359 376.528C804.336 378.416 802.896 379.904 801.04 380.992C799.184 382.048 797.072 382.576 794.704 382.576ZM794.704 377.632C796.016 377.632 797.184 377.312 798.208 376.672C799.232 376 800.032 375.104 800.608 373.984C801.184 372.832 801.472 371.504 801.472 370C801.472 368.496 801.168 367.184 800.56 366.064C799.984 364.912 799.184 364.016 798.16 363.376C797.136 362.704 795.952 362.368 794.608 362.368C793.264 362.368 792.08 362.688 791.056 363.328C790.032 363.968 789.232 364.864 788.656 366.016C788.08 367.168 787.792 368.496 787.792 370C787.792 371.504 788.08 372.832 788.656 373.984C789.264 375.104 790.08 376 791.104 376.672C792.16 377.312 793.36 377.632 794.704 377.632ZM822.594 382.576C820.194 382.576 818.05 382.048 816.162 380.992C814.306 379.904 812.85 378.416 811.794 376.528C810.738 374.64 810.21 372.464 810.21 370C810.21 367.536 810.722 365.36 811.746 363.472C812.802 361.584 814.258 360.112 816.114 359.056C817.97 357.968 820.098 357.424 822.498 357.424C824.898 357.424 827.026 357.968 828.882 359.056C830.738 360.112 832.178 361.584 833.202 363.472C834.258 365.36 834.786 367.536 834.786 370C834.786 372.464 834.274 374.64 833.25 376.528C832.226 378.416 830.786 379.904 828.93 380.992C827.074 382.048 824.962 382.576 822.594 382.576ZM822.594 377.632C823.906 377.632 825.074 377.312 826.098 376.672C827.122 376 827.922 375.104 828.498 373.984C829.074 372.832 829.362 371.504 829.362 370C829.362 368.496 829.058 367.184 828.45 366.064C827.874 364.912 827.074 364.016 826.05 363.376C825.026 362.704 823.842 362.368 822.498 362.368C821.154 362.368 819.97 362.688 818.946 363.328C817.922 363.968 817.122 364.864 816.546 366.016C815.97 367.168 815.682 368.496 815.682 370C815.682 371.504 815.97 372.832 816.546 373.984C817.154 375.104 817.97 376 818.994 376.672C820.05 377.312 821.25 377.632 822.594 377.632ZM839.445 382V358H844.485L844.821 362.416V382H839.445ZM855.717 382V369.712H861.093V382H855.717ZM855.717 369.712C855.717 367.792 855.493 366.32 855.045 365.296C854.629 364.24 854.021 363.504 853.221 363.088C852.453 362.672 851.541 362.464 850.485 362.464C848.693 362.432 847.301 363.024 846.309 364.24C845.317 365.456 844.821 367.2 844.821 369.472H842.805C842.805 366.944 843.173 364.784 843.909 362.992C844.645 361.168 845.701 359.792 847.077 358.864C848.453 357.904 850.085 357.424 851.973 357.424C853.893 357.424 855.525 357.808 856.869 358.576C858.245 359.344 859.285 360.544 859.989 362.176C860.725 363.776 861.093 365.872 861.093 368.464V369.712H855.717Z" fill="black"/>
</svg>
