<svg xmlns="http://www.w3.org/2000/svg" xmlns:xlink="http://www.w3.org/1999/xlink" version="1.1" x="0px" y="0px" viewBox="0 0 32 40" style="enable-background:new 0 0 32 32;" xml:space="preserve"><path d="M8.288,10.712c-0.586-0.586-1.535-0.586-2.121,0l-4.228,4.228c-0.586,0.585-0.586,1.536,0,2.121l4.228,4.228  c0.293,0.293,0.677,0.439,1.061,0.439s0.768-0.146,1.061-0.439c0.586-0.585,0.586-1.536,0-2.121L6.621,17.5h4.905  c0.829,0,1.5-0.671,1.5-1.5s-0.671-1.5-1.5-1.5H6.621l1.667-1.667C8.874,12.248,8.874,11.297,8.288,10.712z"/><path d="M25.833,10.712c-0.586-0.586-1.535-0.586-2.121,0c-0.586,0.585-0.586,1.536,0,2.121l1.667,1.667h-4.905  c-0.829,0-1.5,0.671-1.5,1.5s0.671,1.5,1.5,1.5h4.905l-1.667,1.667c-0.586,0.585-0.586,1.536,0,2.121  c0.293,0.293,0.677,0.439,1.061,0.439s0.768-0.146,1.061-0.439l4.228-4.228c0.586-0.585,0.586-1.536,0-2.121L25.833,10.712z"/><path d="M19.167,8.288c0.293,0.293,0.677,0.439,1.061,0.439s0.768-0.146,1.061-0.439c0.586-0.585,0.586-1.536,0-2.121l-4.228-4.228  c-0.586-0.586-1.535-0.586-2.121,0l-4.228,4.228c-0.586,0.585-0.586,1.536,0,2.121c0.586,0.586,1.535,0.586,2.121,0L14.5,6.621  v4.905c0,0.829,0.671,1.5,1.5,1.5s1.5-0.671,1.5-1.5V6.621L19.167,8.288z"/><path d="M16,18.974c-0.829,0-1.5,0.671-1.5,1.5v4.905l-1.667-1.667c-0.586-0.586-1.535-0.586-2.121,0  c-0.586,0.585-0.586,1.536,0,2.121l4.228,4.228C15.232,30.354,15.616,30.5,16,30.5s0.768-0.146,1.061-0.439l4.228-4.228  c0.586-0.585,0.586-1.536,0-2.121c-0.586-0.586-1.535-0.586-2.121,0L17.5,25.379v-4.905C17.5,19.646,16.829,18.974,16,18.974z"/><text x="0" y="47" fill="#000000" font-size="5px" font-weight="bold" font-family="'Helvetica Neue', Helvetica, Arial-Unicode, Arial, Sans-serif">Created by Athok</text><text x="0" y="52" fill="#000000" font-size="5px" font-weight="bold" font-family="'Helvetica Neue', Helvetica, Arial-Unicode, Arial, Sans-serif">from the Noun Project</text></svg>