<svg width="550" height="729" viewBox="0 0 550 729" fill="none" xmlns="http://www.w3.org/2000/svg">
<g clip-path="url(#clip0_1743_21396)">
<g clip-path="url(#clip1_1743_21396)">
<rect width="1440" height="729" fill="#D5E3FC"/>
</g>
<path d="M140.976 355L146.744 335.4H150.048L144.112 355H140.976ZM129.104 355L123.252 335.4H126.528L132.268 355H129.104ZM129.524 355L135.04 335.4H138.036L132.548 355H129.524ZM140.668 355L135.264 335.4H138.26L143.832 355H140.668ZM159.389 355L159.249 352.368V347.804C159.249 346.852 159.147 346.059 158.941 345.424C158.755 344.771 158.437 344.276 157.989 343.94C157.56 343.585 156.981 343.408 156.253 343.408C155.581 343.408 154.993 343.548 154.489 343.828C153.985 344.108 153.556 344.547 153.201 345.144L150.457 344.136C150.756 343.52 151.148 342.951 151.633 342.428C152.137 341.887 152.763 341.457 153.509 341.14C154.275 340.823 155.189 340.664 156.253 340.664C157.616 340.664 158.755 340.935 159.669 341.476C160.584 341.999 161.256 342.755 161.685 343.744C162.133 344.733 162.357 345.928 162.357 347.328L162.273 355H159.389ZM155.357 355.336C153.677 355.336 152.371 354.963 151.437 354.216C150.523 353.469 150.065 352.415 150.065 351.052C150.065 349.596 150.551 348.485 151.521 347.72C152.511 346.955 153.883 346.572 155.637 346.572H159.389V348.98H156.645C155.395 348.98 154.517 349.157 154.013 349.512C153.509 349.848 153.257 350.333 153.257 350.968C153.257 351.509 153.472 351.939 153.901 352.256C154.349 352.555 154.965 352.704 155.749 352.704C156.459 352.704 157.075 352.545 157.597 352.228C158.12 351.911 158.521 351.491 158.801 350.968C159.1 350.445 159.249 349.857 159.249 349.204H160.173C160.173 351.108 159.791 352.611 159.025 353.712C158.26 354.795 157.037 355.336 155.357 355.336ZM165.533 355V341H168.473L168.669 343.576V355H165.533ZM175.025 355V347.832H178.161V355H175.025ZM175.025 347.832C175.025 346.712 174.894 345.853 174.633 345.256C174.39 344.64 174.036 344.211 173.569 343.968C173.121 343.725 172.589 343.604 171.973 343.604C170.928 343.585 170.116 343.931 169.537 344.64C168.958 345.349 168.669 346.367 168.669 347.692H167.493C167.493 346.217 167.708 344.957 168.137 343.912C168.566 342.848 169.182 342.045 169.985 341.504C170.788 340.944 171.74 340.664 172.841 340.664C173.961 340.664 174.913 340.888 175.697 341.336C176.5 341.784 177.106 342.484 177.517 343.436C177.946 344.369 178.161 345.592 178.161 347.104V347.832H175.025ZM186.91 355.336C185.435 355.336 184.306 354.972 183.522 354.244C182.756 353.497 182.374 352.433 182.374 351.052V336.632H185.482V350.464C185.482 351.117 185.631 351.612 185.93 351.948C186.247 352.284 186.704 352.452 187.302 352.452C187.488 352.452 187.694 352.415 187.918 352.34C188.142 352.265 188.394 352.125 188.674 351.92L189.822 354.3C189.336 354.636 188.851 354.888 188.366 355.056C187.88 355.243 187.395 355.336 186.91 355.336ZM180.05 343.688V341H189.262V343.688H180.05ZM204.656 355.336C203.181 355.336 202.052 354.972 201.268 354.244C200.502 353.497 200.12 352.433 200.12 351.052V336.632H203.228V350.464C203.228 351.117 203.377 351.612 203.676 351.948C203.993 352.284 204.45 352.452 205.048 352.452C205.234 352.452 205.44 352.415 205.664 352.34C205.888 352.265 206.14 352.125 206.42 351.92L207.568 354.3C207.082 354.636 206.597 354.888 206.112 355.056C205.626 355.243 205.141 355.336 204.656 355.336ZM197.796 343.688V341H207.008V343.688H197.796ZM216.324 355.336C214.924 355.336 213.674 355.028 212.572 354.412C211.49 353.777 210.64 352.909 210.024 351.808C209.408 350.707 209.1 349.437 209.1 348C209.1 346.563 209.399 345.293 209.996 344.192C210.612 343.091 211.462 342.232 212.544 341.616C213.627 340.981 214.868 340.664 216.268 340.664C217.668 340.664 218.91 340.981 219.992 341.616C221.075 342.232 221.915 343.091 222.512 344.192C223.128 345.293 223.436 346.563 223.436 348C223.436 349.437 223.138 350.707 222.54 351.808C221.943 352.909 221.103 353.777 220.02 354.412C218.938 355.028 217.706 355.336 216.324 355.336ZM216.324 352.452C217.09 352.452 217.771 352.265 218.368 351.892C218.966 351.5 219.432 350.977 219.768 350.324C220.104 349.652 220.272 348.877 220.272 348C220.272 347.123 220.095 346.357 219.74 345.704C219.404 345.032 218.938 344.509 218.34 344.136C217.743 343.744 217.052 343.548 216.268 343.548C215.484 343.548 214.794 343.735 214.196 344.108C213.599 344.481 213.132 345.004 212.796 345.676C212.46 346.348 212.292 347.123 212.292 348C212.292 348.877 212.46 349.652 212.796 350.324C213.151 350.977 213.627 351.5 214.224 351.892C214.84 352.265 215.54 352.452 216.324 352.452ZM245.872 355L250.548 341H253.712L248.952 355H245.872ZM236.492 355L241.056 341H243.828L239.32 355H236.492ZM236.212 355L231.452 341H234.616L239.18 355H236.212ZM245.844 355L241.364 341H244.136L248.7 355H245.844ZM261.797 355.336C260.397 355.336 259.146 355.028 258.045 354.412C256.962 353.777 256.113 352.909 255.497 351.808C254.881 350.707 254.573 349.437 254.573 348C254.573 346.563 254.872 345.293 255.469 344.192C256.085 343.091 256.934 342.232 258.017 341.616C259.1 340.981 260.341 340.664 261.741 340.664C263.141 340.664 264.382 340.981 265.465 341.616C266.548 342.232 267.388 343.091 267.985 344.192C268.601 345.293 268.909 346.563 268.909 348C268.909 349.437 268.61 350.707 268.013 351.808C267.416 352.909 266.576 353.777 265.493 354.412C264.41 355.028 263.178 355.336 261.797 355.336ZM261.797 352.452C262.562 352.452 263.244 352.265 263.841 351.892C264.438 351.5 264.905 350.977 265.241 350.324C265.577 349.652 265.745 348.877 265.745 348C265.745 347.123 265.568 346.357 265.213 345.704C264.877 345.032 264.41 344.509 263.813 344.136C263.216 343.744 262.525 343.548 261.741 343.548C260.957 343.548 260.266 343.735 259.669 344.108C259.072 344.481 258.605 345.004 258.269 345.676C257.933 346.348 257.765 347.123 257.765 348C257.765 348.877 257.933 349.652 258.269 350.324C258.624 350.977 259.1 351.5 259.697 351.892C260.313 352.265 261.013 352.452 261.797 352.452ZM273.699 347.552C273.699 346.04 273.988 344.799 274.567 343.828C275.145 342.857 275.892 342.139 276.807 341.672C277.74 341.187 278.711 340.944 279.719 340.944V343.94C278.86 343.94 278.048 344.061 277.283 344.304C276.536 344.528 275.929 344.901 275.463 345.424C274.996 345.947 274.763 346.637 274.763 347.496L273.699 347.552ZM271.627 355V341H274.763V355H271.627ZM284.795 351.08L282.891 348.924L290.171 341H293.951L284.795 351.08ZM281.799 355V335.4H284.935V355H281.799ZM290.703 355L285.775 347.748L287.819 345.564L294.427 355H290.703ZM308.589 355.336C307.115 355.336 305.985 354.972 305.201 354.244C304.436 353.497 304.053 352.433 304.053 351.052V336.632H307.161V350.464C307.161 351.117 307.311 351.612 307.609 351.948C307.927 352.284 308.384 352.452 308.981 352.452C309.168 352.452 309.373 352.415 309.597 352.34C309.821 352.265 310.073 352.125 310.353 351.92L311.501 354.3C311.016 354.636 310.531 354.888 310.045 355.056C309.56 355.243 309.075 355.336 308.589 355.336ZM301.729 343.688V341H310.941V343.688H301.729ZM320.258 355.336C318.858 355.336 317.607 355.028 316.506 354.412C315.423 353.777 314.574 352.909 313.958 351.808C313.342 350.707 313.034 349.437 313.034 348C313.034 346.563 313.333 345.293 313.93 344.192C314.546 343.091 315.395 342.232 316.478 341.616C317.561 340.981 318.802 340.664 320.202 340.664C321.602 340.664 322.843 340.981 323.926 341.616C325.009 342.232 325.849 343.091 326.446 344.192C327.062 345.293 327.37 346.563 327.37 348C327.37 349.437 327.071 350.707 326.474 351.808C325.877 352.909 325.037 353.777 323.954 354.412C322.871 355.028 321.639 355.336 320.258 355.336ZM320.258 352.452C321.023 352.452 321.705 352.265 322.302 351.892C322.899 351.5 323.366 350.977 323.702 350.324C324.038 349.652 324.206 348.877 324.206 348C324.206 347.123 324.029 346.357 323.674 345.704C323.338 345.032 322.871 344.509 322.274 344.136C321.677 343.744 320.986 343.548 320.202 343.548C319.418 343.548 318.727 343.735 318.13 344.108C317.533 344.481 317.066 345.004 316.73 345.676C316.394 346.348 316.226 347.123 316.226 348C316.226 348.877 316.394 349.652 316.73 350.324C317.085 350.977 317.561 351.5 318.158 351.892C318.774 352.265 319.474 352.452 320.258 352.452ZM336.108 360.964C335.118 360.964 334.222 360.88 333.42 360.712C332.636 360.544 331.973 360.348 331.432 360.124C330.89 359.9 330.47 359.685 330.172 359.48L331.376 356.96C331.637 357.091 331.982 357.249 332.412 357.436C332.86 357.641 333.382 357.819 333.98 357.968C334.577 358.117 335.249 358.192 335.996 358.192C336.798 358.192 337.517 358.024 338.152 357.688C338.786 357.371 339.281 356.876 339.636 356.204C339.99 355.532 340.168 354.673 340.168 353.628V341H343.304V353.544C343.304 355.131 343.005 356.475 342.408 357.576C341.81 358.696 340.97 359.536 339.888 360.096C338.805 360.675 337.545 360.964 336.108 360.964ZM335.632 354.72C334.362 354.72 333.252 354.431 332.3 353.852C331.366 353.273 330.629 352.471 330.088 351.444C329.565 350.399 329.304 349.195 329.304 347.832C329.304 346.376 329.565 345.116 330.088 344.052C330.629 342.988 331.366 342.157 332.3 341.56C333.252 340.963 334.362 340.664 335.632 340.664C336.77 340.664 337.76 340.963 338.6 341.56C339.458 342.157 340.121 342.997 340.588 344.08C341.054 345.144 341.288 346.404 341.288 347.86C341.288 349.241 341.054 350.445 340.588 351.472C340.121 352.499 339.458 353.301 338.6 353.88C337.76 354.44 336.77 354.72 335.632 354.72ZM336.5 352.06C337.209 352.06 337.825 351.873 338.348 351.5C338.889 351.127 339.309 350.623 339.608 349.988C339.906 349.335 340.056 348.588 340.056 347.748C340.056 346.889 339.906 346.143 339.608 345.508C339.309 344.855 338.889 344.351 338.348 343.996C337.806 343.623 337.181 343.436 336.472 343.436C335.725 343.436 335.062 343.623 334.484 343.996C333.924 344.351 333.476 344.855 333.14 345.508C332.822 346.143 332.664 346.889 332.664 347.748C332.664 348.588 332.822 349.335 333.14 349.988C333.476 350.623 333.933 351.127 334.512 351.5C335.09 351.873 335.753 352.06 336.5 352.06ZM353.011 355.336C351.649 355.336 350.435 355.028 349.371 354.412C348.326 353.777 347.495 352.909 346.879 351.808C346.282 350.707 345.983 349.437 345.983 348C345.983 346.563 346.291 345.293 346.907 344.192C347.523 343.091 348.363 342.232 349.427 341.616C350.51 340.981 351.742 340.664 353.123 340.664C354.374 340.664 355.503 340.991 356.511 341.644C357.519 342.279 358.313 343.203 358.891 344.416C359.489 345.629 359.787 347.076 359.787 348.756H348.783L349.203 348.364C349.203 349.223 349.39 349.969 349.763 350.604C350.137 351.22 350.631 351.696 351.247 352.032C351.863 352.368 352.545 352.536 353.291 352.536C354.15 352.536 354.859 352.349 355.419 351.976C355.979 351.584 356.418 351.08 356.735 350.464L359.507 351.64C359.115 352.387 358.611 353.04 357.995 353.6C357.398 354.16 356.679 354.589 355.839 354.888C355.018 355.187 354.075 355.336 353.011 355.336ZM349.399 346.74L348.951 346.348H356.847L356.427 346.74C356.427 345.975 356.259 345.349 355.923 344.864C355.587 344.36 355.158 343.987 354.635 343.744C354.131 343.483 353.599 343.352 353.039 343.352C352.479 343.352 351.919 343.483 351.359 343.744C350.799 343.987 350.333 344.36 349.959 344.864C349.586 345.349 349.399 345.975 349.399 346.74ZM367.761 355.336C366.286 355.336 365.157 354.972 364.373 354.244C363.608 353.497 363.225 352.433 363.225 351.052V336.632H366.333V350.464C366.333 351.117 366.482 351.612 366.781 351.948C367.098 352.284 367.556 352.452 368.153 352.452C368.34 352.452 368.545 352.415 368.769 352.34C368.993 352.265 369.245 352.125 369.525 351.92L370.673 354.3C370.188 354.636 369.702 354.888 369.217 355.056C368.732 355.243 368.246 355.336 367.761 355.336ZM360.901 343.688V341H370.113V343.688H360.901ZM373.209 355V335.4H376.345V355H373.209ZM382.701 355V347.832H385.837V355H382.701ZM382.701 347.832C382.701 346.712 382.571 345.853 382.309 345.256C382.048 344.64 381.684 344.211 381.217 343.968C380.769 343.725 380.247 343.604 379.649 343.604C378.585 343.585 377.764 343.931 377.185 344.64C376.625 345.349 376.345 346.367 376.345 347.692H375.141C375.141 346.217 375.356 344.957 375.785 343.912C376.233 342.848 376.859 342.045 377.661 341.504C378.464 340.944 379.416 340.664 380.517 340.664C381.619 340.664 382.571 340.888 383.373 341.336C384.176 341.784 384.783 342.484 385.193 343.436C385.623 344.369 385.837 345.592 385.837 347.104V347.832H382.701ZM395.257 355.336C393.895 355.336 392.681 355.028 391.617 354.412C390.572 353.777 389.741 352.909 389.125 351.808C388.528 350.707 388.229 349.437 388.229 348C388.229 346.563 388.537 345.293 389.153 344.192C389.769 343.091 390.609 342.232 391.673 341.616C392.756 340.981 393.988 340.664 395.369 340.664C396.62 340.664 397.749 340.991 398.757 341.644C399.765 342.279 400.559 343.203 401.137 344.416C401.735 345.629 402.033 347.076 402.033 348.756H391.029L391.449 348.364C391.449 349.223 391.636 349.969 392.009 350.604C392.383 351.22 392.877 351.696 393.493 352.032C394.109 352.368 394.791 352.536 395.537 352.536C396.396 352.536 397.105 352.349 397.665 351.976C398.225 351.584 398.664 351.08 398.981 350.464L401.753 351.64C401.361 352.387 400.857 353.04 400.241 353.6C399.644 354.16 398.925 354.589 398.085 354.888C397.264 355.187 396.321 355.336 395.257 355.336ZM391.645 346.74L391.197 346.348H399.093L398.673 346.74C398.673 345.975 398.505 345.349 398.169 344.864C397.833 344.36 397.404 343.987 396.881 343.744C396.377 343.483 395.845 343.352 395.285 343.352C394.725 343.352 394.165 343.483 393.605 343.744C393.045 343.987 392.579 344.36 392.205 344.864C391.832 345.349 391.645 345.975 391.645 346.74ZM406.507 347.552C406.507 346.04 406.797 344.799 407.375 343.828C407.954 342.857 408.701 342.139 409.615 341.672C410.549 341.187 411.519 340.944 412.527 340.944V343.94C411.669 343.94 410.857 344.061 410.091 344.304C409.345 344.528 408.738 344.901 408.271 345.424C407.805 345.947 407.571 346.637 407.571 347.496L406.507 347.552ZM404.435 355V341H407.571V355H404.435ZM417.575 349.512L417.491 344.556L419.311 344.444C420.375 344.407 421.252 344.108 421.943 343.548C422.634 342.969 422.979 342.157 422.979 341.112C422.979 340.179 422.652 339.413 421.999 338.816C421.364 338.219 420.534 337.92 419.507 337.92C418.779 337.92 418.144 338.097 417.603 338.452C417.062 338.807 416.688 339.245 416.483 339.768L413.599 338.928C413.972 337.771 414.672 336.837 415.699 336.128C416.744 335.419 418.014 335.064 419.507 335.064C420.776 335.064 421.896 335.325 422.867 335.848C423.856 336.352 424.631 337.061 425.191 337.976C425.751 338.872 426.031 339.917 426.031 341.112C426.031 342.12 425.807 343.025 425.359 343.828C424.911 344.631 424.276 345.275 423.455 345.76C422.652 346.245 421.719 346.544 420.655 346.656L420.599 349.512H417.575ZM419.087 355.392C418.527 355.392 418.051 355.205 417.659 354.832C417.286 354.44 417.099 353.973 417.099 353.432C417.099 352.872 417.286 352.405 417.659 352.032C418.051 351.64 418.527 351.444 419.087 351.444C419.628 351.444 420.086 351.64 420.459 352.032C420.851 352.405 421.047 352.872 421.047 353.432C421.047 353.973 420.851 354.44 420.459 354.832C420.086 355.205 419.628 355.392 419.087 355.392Z" fill="black"/>
<path d="M163.372 395.5L163.292 393.996V391.388C163.292 390.844 163.233 390.391 163.116 390.028C163.009 389.655 162.828 389.372 162.572 389.18C162.327 388.977 161.996 388.876 161.58 388.876C161.196 388.876 160.86 388.956 160.572 389.116C160.284 389.276 160.039 389.527 159.836 389.868L158.268 389.292C158.439 388.94 158.663 388.615 158.94 388.316C159.228 388.007 159.585 387.761 160.012 387.58C160.449 387.399 160.972 387.308 161.58 387.308C162.359 387.308 163.009 387.463 163.532 387.772C164.055 388.071 164.439 388.503 164.684 389.068C164.94 389.633 165.068 390.316 165.068 391.116L165.02 395.5H163.372ZM161.068 395.692C160.108 395.692 159.361 395.479 158.828 395.052C158.305 394.625 158.044 394.023 158.044 393.244C158.044 392.412 158.321 391.777 158.876 391.34C159.441 390.903 160.225 390.684 161.228 390.684H163.372V392.06H161.804C161.089 392.06 160.588 392.161 160.3 392.364C160.012 392.556 159.868 392.833 159.868 393.196C159.868 393.505 159.991 393.751 160.236 393.932C160.492 394.103 160.844 394.188 161.292 394.188C161.697 394.188 162.049 394.097 162.348 393.916C162.647 393.735 162.876 393.495 163.036 393.196C163.207 392.897 163.292 392.561 163.292 392.188H163.82C163.82 393.276 163.601 394.135 163.164 394.764C162.727 395.383 162.028 395.692 161.068 395.692ZM166.883 395.5V387.5H168.563L168.675 388.972V395.5H166.883ZM172.307 395.5V391.404H174.099V395.5H172.307ZM172.307 391.404C172.307 390.764 172.232 390.273 172.083 389.932C171.944 389.58 171.741 389.335 171.475 389.196C171.219 389.057 170.915 388.988 170.563 388.988C169.965 388.977 169.501 389.175 169.171 389.58C168.84 389.985 168.675 390.567 168.675 391.324H168.003C168.003 390.481 168.125 389.761 168.371 389.164C168.616 388.556 168.968 388.097 169.427 387.788C169.885 387.468 170.429 387.308 171.059 387.308C171.699 387.308 172.243 387.436 172.691 387.692C173.149 387.948 173.496 388.348 173.731 388.892C173.976 389.425 174.099 390.124 174.099 390.988V391.404H172.307ZM175.914 395.5V387.5H177.594L177.706 388.972V395.5H175.914ZM181.338 395.5V391.404H183.13V395.5H181.338ZM181.338 391.404C181.338 390.764 181.263 390.273 181.114 389.932C180.975 389.58 180.773 389.335 180.506 389.196C180.25 389.057 179.946 388.988 179.594 388.988C178.997 388.977 178.533 389.175 178.202 389.58C177.871 389.985 177.706 390.567 177.706 391.324H177.034C177.034 390.481 177.157 389.761 177.402 389.164C177.647 388.556 177.999 388.097 178.458 387.788C178.917 387.468 179.461 387.308 180.09 387.308C180.73 387.308 181.274 387.436 181.722 387.692C182.181 387.948 182.527 388.348 182.762 388.892C183.007 389.425 183.13 390.124 183.13 390.988V391.404H181.338ZM189.825 395.5L189.745 393.996V391.388C189.745 390.844 189.686 390.391 189.569 390.028C189.462 389.655 189.281 389.372 189.025 389.18C188.78 388.977 188.449 388.876 188.033 388.876C187.649 388.876 187.313 388.956 187.025 389.116C186.737 389.276 186.492 389.527 186.289 389.868L184.721 389.292C184.892 388.94 185.116 388.615 185.393 388.316C185.681 388.007 186.038 387.761 186.465 387.58C186.902 387.399 187.425 387.308 188.033 387.308C188.812 387.308 189.462 387.463 189.985 387.772C190.508 388.071 190.892 388.503 191.137 389.068C191.393 389.633 191.521 390.316 191.521 391.116L191.473 395.5H189.825ZM187.521 395.692C186.561 395.692 185.814 395.479 185.281 395.052C184.758 394.625 184.497 394.023 184.497 393.244C184.497 392.412 184.774 391.777 185.329 391.34C185.894 390.903 186.678 390.684 187.681 390.684H189.825V392.06H188.257C187.542 392.06 187.041 392.161 186.753 392.364C186.465 392.556 186.321 392.833 186.321 393.196C186.321 393.505 186.444 393.751 186.689 393.932C186.945 394.103 187.297 394.188 187.745 394.188C188.15 394.188 188.502 394.097 188.801 393.916C189.1 393.735 189.329 393.495 189.489 393.196C189.66 392.897 189.745 392.561 189.745 392.188H190.273C190.273 393.276 190.054 394.135 189.617 394.764C189.18 395.383 188.481 395.692 187.521 395.692ZM194.2 395.724C193.89 395.724 193.624 395.617 193.4 395.404C193.186 395.18 193.08 394.913 193.08 394.604C193.08 394.295 193.186 394.028 193.4 393.804C193.624 393.58 193.89 393.468 194.2 393.468C194.509 393.468 194.776 393.58 195 393.804C195.224 394.028 195.336 394.295 195.336 394.604C195.336 394.913 195.224 395.18 195 395.404C194.776 395.617 194.509 395.724 194.2 395.724ZM202.831 395.5L202.751 394.012V384.3H204.527V395.5H202.831ZM200.223 395.692C199.497 395.692 198.863 395.521 198.319 395.18C197.785 394.828 197.364 394.337 197.055 393.708C196.756 393.079 196.607 392.343 196.607 391.5C196.607 390.647 196.756 389.911 197.055 389.292C197.364 388.663 197.785 388.177 198.319 387.836C198.863 387.484 199.497 387.308 200.223 387.308C200.895 387.308 201.471 387.484 201.951 387.836C202.441 388.177 202.815 388.663 203.071 389.292C203.327 389.911 203.455 390.647 203.455 391.5C203.455 392.343 203.327 393.079 203.071 393.708C202.815 394.337 202.441 394.828 201.951 395.18C201.471 395.521 200.895 395.692 200.223 395.692ZM200.671 394.06C201.076 394.06 201.433 393.953 201.743 393.74C202.063 393.516 202.308 393.212 202.479 392.828C202.66 392.444 202.751 392.001 202.751 391.5C202.751 390.999 202.66 390.556 202.479 390.172C202.308 389.788 202.063 389.489 201.743 389.276C201.433 389.063 201.071 388.956 200.655 388.956C200.228 388.956 199.849 389.063 199.519 389.276C199.188 389.489 198.927 389.788 198.735 390.172C198.553 390.556 198.457 390.999 198.447 391.5C198.457 392.001 198.553 392.444 198.735 392.828C198.927 393.212 199.188 393.516 199.519 393.74C199.86 393.953 200.244 394.06 200.671 394.06ZM210.076 395.692C209.297 395.692 208.604 395.516 207.996 395.164C207.398 394.801 206.924 394.305 206.572 393.676C206.23 393.047 206.06 392.321 206.06 391.5C206.06 390.679 206.236 389.953 206.588 389.324C206.94 388.695 207.42 388.204 208.028 387.852C208.646 387.489 209.35 387.308 210.14 387.308C210.854 387.308 211.5 387.495 212.076 387.868C212.652 388.231 213.105 388.759 213.436 389.452C213.777 390.145 213.948 390.972 213.948 391.932H207.66L207.9 391.708C207.9 392.199 208.006 392.625 208.22 392.988C208.433 393.34 208.716 393.612 209.068 393.804C209.42 393.996 209.809 394.092 210.236 394.092C210.726 394.092 211.132 393.985 211.452 393.772C211.772 393.548 212.022 393.26 212.204 392.908L213.788 393.58C213.564 394.007 213.276 394.38 212.924 394.7C212.582 395.02 212.172 395.265 211.692 395.436C211.222 395.607 210.684 395.692 210.076 395.692ZM208.012 390.78L207.756 390.556H212.268L212.028 390.78C212.028 390.343 211.932 389.985 211.74 389.708C211.548 389.42 211.302 389.207 211.004 389.068C210.716 388.919 210.412 388.844 210.092 388.844C209.772 388.844 209.452 388.919 209.132 389.068C208.812 389.207 208.545 389.42 208.332 389.708C208.118 389.985 208.012 390.343 208.012 390.78ZM215.336 395.5V384.3H217.128V395.5H215.336ZM220.76 395.5V391.404H222.552V395.5H220.76ZM220.76 391.404C220.76 390.764 220.685 390.273 220.536 389.932C220.387 389.58 220.179 389.335 219.912 389.196C219.656 389.057 219.357 388.988 219.016 388.988C218.408 388.977 217.939 389.175 217.608 389.58C217.288 389.985 217.128 390.567 217.128 391.324H216.44C216.44 390.481 216.563 389.761 216.808 389.164C217.064 388.556 217.421 388.097 217.88 387.788C218.339 387.468 218.883 387.308 219.512 387.308C220.141 387.308 220.685 387.436 221.144 387.692C221.603 387.948 221.949 388.348 222.184 388.892C222.429 389.425 222.552 390.124 222.552 390.988V391.404H220.76ZM227.551 395.692C226.708 395.692 226.063 395.484 225.615 395.068C225.178 394.641 224.959 394.033 224.959 393.244V385.004H226.735V392.908C226.735 393.281 226.82 393.564 226.991 393.756C227.172 393.948 227.434 394.044 227.775 394.044C227.882 394.044 227.999 394.023 228.127 393.98C228.255 393.937 228.399 393.857 228.559 393.74L229.215 395.1C228.938 395.292 228.66 395.436 228.383 395.532C228.106 395.639 227.828 395.692 227.551 395.692ZM223.631 389.036V387.5H228.895V389.036H223.631ZM230.76 395.5V387.5H232.536V395.5H230.76ZM231.656 385.98C231.368 385.98 231.118 385.879 230.904 385.676C230.702 385.463 230.6 385.212 230.6 384.924C230.6 384.636 230.702 384.391 230.904 384.188C231.118 383.985 231.368 383.884 231.656 383.884C231.944 383.884 232.19 383.985 232.392 384.188C232.606 384.391 232.712 384.636 232.712 384.924C232.712 385.212 232.606 385.463 232.392 385.676C232.19 385.879 231.944 385.98 231.656 385.98ZM239.528 395.5L239.448 393.996V391.388C239.448 390.844 239.39 390.391 239.272 390.028C239.166 389.655 238.984 389.372 238.728 389.18C238.483 388.977 238.152 388.876 237.736 388.876C237.352 388.876 237.016 388.956 236.728 389.116C236.44 389.276 236.195 389.527 235.992 389.868L234.424 389.292C234.595 388.94 234.819 388.615 235.096 388.316C235.384 388.007 235.742 387.761 236.168 387.58C236.606 387.399 237.128 387.308 237.736 387.308C238.515 387.308 239.166 387.463 239.688 387.772C240.211 388.071 240.595 388.503 240.84 389.068C241.096 389.633 241.224 390.316 241.224 391.116L241.176 395.5H239.528ZM237.224 395.692C236.264 395.692 235.518 395.479 234.984 395.052C234.462 394.625 234.2 394.023 234.2 393.244C234.2 392.412 234.478 391.777 235.032 391.34C235.598 390.903 236.382 390.684 237.384 390.684H239.528V392.06H237.96C237.246 392.06 236.744 392.161 236.456 392.364C236.168 392.556 236.024 392.833 236.024 393.196C236.024 393.505 236.147 393.751 236.392 393.932C236.648 394.103 237 394.188 237.448 394.188C237.854 394.188 238.206 394.097 238.504 393.916C238.803 393.735 239.032 393.495 239.192 393.196C239.363 392.897 239.448 392.561 239.448 392.188H239.976C239.976 393.276 239.758 394.135 239.32 394.764C238.883 395.383 238.184 395.692 237.224 395.692ZM244.223 391.244C244.223 390.38 244.388 389.671 244.719 389.116C245.05 388.561 245.476 388.151 245.999 387.884C246.532 387.607 247.087 387.468 247.663 387.468V389.18C247.172 389.18 246.708 389.249 246.271 389.388C245.844 389.516 245.498 389.729 245.231 390.028C244.964 390.327 244.831 390.721 244.831 391.212L244.223 391.244ZM243.039 395.5V387.5H244.831V395.5H243.039ZM252.531 395.692C251.731 395.692 251.017 395.516 250.387 395.164C249.769 394.801 249.283 394.305 248.931 393.676C248.579 393.047 248.403 392.321 248.403 391.5C248.403 390.679 248.574 389.953 248.915 389.324C249.267 388.695 249.753 388.204 250.371 387.852C250.99 387.489 251.699 387.308 252.499 387.308C253.299 387.308 254.009 387.489 254.627 387.852C255.246 388.204 255.726 388.695 256.067 389.324C256.419 389.953 256.595 390.679 256.595 391.5C256.595 392.321 256.425 393.047 256.083 393.676C255.742 394.305 255.262 394.801 254.643 395.164C254.025 395.516 253.321 395.692 252.531 395.692ZM252.531 394.044C252.969 394.044 253.358 393.937 253.699 393.724C254.041 393.5 254.307 393.201 254.499 392.828C254.691 392.444 254.787 392.001 254.787 391.5C254.787 390.999 254.686 390.561 254.483 390.188C254.291 389.804 254.025 389.505 253.683 389.292C253.342 389.068 252.947 388.956 252.499 388.956C252.051 388.956 251.657 389.063 251.315 389.276C250.974 389.489 250.707 389.788 250.515 390.172C250.323 390.556 250.227 390.999 250.227 391.5C250.227 392.001 250.323 392.444 250.515 392.828C250.718 393.201 250.99 393.5 251.331 393.724C251.683 393.937 252.083 394.044 252.531 394.044ZM260.427 395.5L263.547 387.5H265.403L262.107 395.5H260.427ZM260.299 395.5L256.987 387.5H258.827L261.963 395.5H260.299ZM271.185 395.5L271.105 393.996V391.388C271.105 390.844 271.046 390.391 270.929 390.028C270.822 389.655 270.641 389.372 270.385 389.18C270.139 388.977 269.809 388.876 269.393 388.876C269.009 388.876 268.673 388.956 268.385 389.116C268.097 389.276 267.851 389.527 267.649 389.868L266.081 389.292C266.251 388.94 266.475 388.615 266.753 388.316C267.041 388.007 267.398 387.761 267.825 387.58C268.262 387.399 268.785 387.308 269.393 387.308C270.171 387.308 270.822 387.463 271.345 387.772C271.867 388.071 272.251 388.503 272.497 389.068C272.753 389.633 272.881 390.316 272.881 391.116L272.833 395.5H271.185ZM268.881 395.692C267.921 395.692 267.174 395.479 266.641 395.052C266.118 394.625 265.857 394.023 265.857 393.244C265.857 392.412 266.134 391.777 266.689 391.34C267.254 390.903 268.038 390.684 269.041 390.684H271.185V392.06H269.617C268.902 392.06 268.401 392.161 268.113 392.364C267.825 392.556 267.681 392.833 267.681 393.196C267.681 393.505 267.803 393.751 268.049 393.932C268.305 394.103 268.657 394.188 269.105 394.188C269.51 394.188 269.862 394.097 270.161 393.916C270.459 393.735 270.689 393.495 270.849 393.196C271.019 392.897 271.105 392.561 271.105 392.188H271.633C271.633 393.276 271.414 394.135 270.977 394.764C270.539 395.383 269.841 395.692 268.881 395.692ZM281.943 398.876C280.834 398.876 279.81 398.695 278.871 398.332C277.943 397.969 277.138 397.457 276.455 396.796C275.783 396.135 275.26 395.351 274.887 394.444C274.514 393.537 274.327 392.545 274.327 391.468C274.327 390.38 274.514 389.388 274.887 388.492C275.26 387.585 275.783 386.801 276.455 386.14C277.138 385.479 277.943 384.967 278.871 384.604C279.81 384.241 280.834 384.06 281.943 384.06C282.967 384.06 283.906 384.241 284.759 384.604C285.612 384.967 286.348 385.479 286.967 386.14C287.596 386.801 288.076 387.585 288.407 388.492C288.748 389.388 288.919 390.38 288.919 391.468H287.511C287.511 390.583 287.372 389.772 287.095 389.036C286.828 388.3 286.444 387.66 285.943 387.116C285.452 386.572 284.866 386.156 284.183 385.868C283.511 385.569 282.764 385.42 281.943 385.42C281.036 385.42 280.204 385.569 279.447 385.868C278.69 386.156 278.034 386.572 277.479 387.116C276.924 387.649 276.492 388.289 276.183 389.036C275.884 389.772 275.735 390.583 275.735 391.468C275.735 392.353 275.884 393.164 276.183 393.9C276.492 394.636 276.924 395.271 277.479 395.804C278.034 396.348 278.69 396.769 279.447 397.068C280.204 397.367 281.036 397.516 281.943 397.516C282.338 397.516 282.759 397.457 283.207 397.34C283.666 397.233 284.05 397.095 284.359 396.924L285.095 398.012C284.647 398.268 284.13 398.476 283.543 398.636C282.956 398.796 282.423 398.876 281.943 398.876ZM281.047 395.26C280.375 395.26 279.778 395.1 279.255 394.78C278.743 394.449 278.343 393.996 278.055 393.42C277.767 392.844 277.623 392.188 277.623 391.452C277.623 390.705 277.767 390.049 278.055 389.484C278.343 388.919 278.743 388.476 279.255 388.156C279.778 387.825 280.375 387.66 281.047 387.66C281.719 387.66 282.311 387.825 282.823 388.156C283.346 388.476 283.751 388.919 284.039 389.484C284.338 390.049 284.487 390.705 284.487 391.452C284.487 392.188 284.338 392.844 284.039 393.42C283.751 393.996 283.346 394.449 282.823 394.78C282.311 395.1 281.719 395.26 281.047 395.26ZM281.543 393.74C281.959 393.74 282.327 393.644 282.647 393.452C282.967 393.26 283.218 392.993 283.399 392.652C283.58 392.3 283.671 391.905 283.671 391.468C283.671 391.009 283.575 390.615 283.383 390.284C283.202 389.943 282.946 389.676 282.615 389.484C282.295 389.281 281.922 389.18 281.495 389.18C281.068 389.18 280.695 389.281 280.375 389.484C280.055 389.676 279.799 389.943 279.607 390.284C279.426 390.615 279.335 391.004 279.335 391.452C279.335 391.889 279.431 392.284 279.623 392.636C279.815 392.988 280.076 393.26 280.407 393.452C280.738 393.644 281.116 393.74 281.543 393.74ZM285.735 395.74C285.33 395.74 284.967 395.66 284.647 395.5C284.338 395.34 284.098 395.111 283.927 394.812C283.756 394.513 283.671 394.161 283.671 393.756L285.159 393.692C285.159 393.959 285.223 394.156 285.351 394.284C285.479 394.412 285.644 394.476 285.847 394.476C286.178 394.476 286.466 394.348 286.711 394.092C286.967 393.836 287.164 393.484 287.303 393.036C287.442 392.577 287.511 392.055 287.511 391.468H288.919C288.919 392.3 288.78 393.036 288.503 393.676C288.236 394.316 287.863 394.823 287.383 395.196C286.903 395.559 286.354 395.74 285.735 395.74ZM283.671 393.756L283.591 387.836H285.159V393.692L283.671 393.756ZM293.995 398.908C293.429 398.908 292.917 398.86 292.459 398.764C292.011 398.668 291.632 398.556 291.323 398.428C291.013 398.3 290.773 398.177 290.603 398.06L291.291 396.62C291.44 396.695 291.637 396.785 291.883 396.892C292.139 397.009 292.437 397.111 292.779 397.196C293.12 397.281 293.504 397.324 293.931 397.324C294.389 397.324 294.8 397.228 295.163 397.036C295.525 396.855 295.808 396.572 296.011 396.188C296.213 395.804 296.315 395.313 296.315 394.716V387.5H298.107V394.668C298.107 395.575 297.936 396.343 297.595 396.972C297.253 397.612 296.773 398.092 296.155 398.412C295.536 398.743 294.816 398.908 293.995 398.908ZM293.723 395.34C292.997 395.34 292.363 395.175 291.819 394.844C291.285 394.513 290.864 394.055 290.555 393.468C290.256 392.871 290.107 392.183 290.107 391.404C290.107 390.572 290.256 389.852 290.555 389.244C290.864 388.636 291.285 388.161 291.819 387.82C292.363 387.479 292.997 387.308 293.723 387.308C294.373 387.308 294.939 387.479 295.419 387.82C295.909 388.161 296.288 388.641 296.555 389.26C296.821 389.868 296.955 390.588 296.955 391.42C296.955 392.209 296.821 392.897 296.555 393.484C296.288 394.071 295.909 394.529 295.419 394.86C294.939 395.18 294.373 395.34 293.723 395.34ZM294.219 393.82C294.624 393.82 294.976 393.713 295.275 393.5C295.584 393.287 295.824 392.999 295.995 392.636C296.165 392.263 296.251 391.836 296.251 391.356C296.251 390.865 296.165 390.439 295.995 390.076C295.824 389.703 295.584 389.415 295.275 389.212C294.965 388.999 294.608 388.892 294.203 388.892C293.776 388.892 293.397 388.999 293.067 389.212C292.747 389.415 292.491 389.703 292.299 390.076C292.117 390.439 292.027 390.865 292.027 391.356C292.027 391.836 292.117 392.263 292.299 392.636C292.491 392.999 292.752 393.287 293.083 393.5C293.413 393.713 293.792 393.82 294.219 393.82ZM300.086 395.5V387.5H301.766L301.846 388.572C302.091 388.156 302.406 387.841 302.79 387.628C303.174 387.415 303.611 387.308 304.102 387.308C304.742 387.308 305.286 387.452 305.734 387.74C306.182 388.028 306.507 388.465 306.71 389.052C306.944 388.487 307.275 388.055 307.702 387.756C308.128 387.457 308.63 387.308 309.206 387.308C310.134 387.308 310.848 387.607 311.35 388.204C311.851 388.791 312.096 389.697 312.086 390.924V395.5H310.31V391.404C310.31 390.764 310.24 390.273 310.102 389.932C309.963 389.58 309.776 389.335 309.542 389.196C309.307 389.057 309.035 388.988 308.726 388.988C308.171 388.977 307.739 389.175 307.43 389.58C307.131 389.985 306.982 390.567 306.982 391.324V395.5H305.19V391.404C305.19 390.764 305.12 390.273 304.982 389.932C304.854 389.58 304.672 389.335 304.438 389.196C304.203 389.057 303.931 388.988 303.622 388.988C303.067 388.977 302.635 389.175 302.326 389.58C302.027 389.985 301.878 390.567 301.878 391.324V395.5H300.086ZM318.794 395.5L318.714 393.996V391.388C318.714 390.844 318.655 390.391 318.538 390.028C318.431 389.655 318.25 389.372 317.994 389.18C317.749 388.977 317.418 388.876 317.002 388.876C316.618 388.876 316.282 388.956 315.994 389.116C315.706 389.276 315.461 389.527 315.258 389.868L313.69 389.292C313.861 388.94 314.085 388.615 314.362 388.316C314.65 388.007 315.007 387.761 315.434 387.58C315.871 387.399 316.394 387.308 317.002 387.308C317.781 387.308 318.431 387.463 318.954 387.772C319.477 388.071 319.861 388.503 320.106 389.068C320.362 389.633 320.49 390.316 320.49 391.116L320.442 395.5H318.794ZM316.49 395.692C315.53 395.692 314.783 395.479 314.25 395.052C313.727 394.625 313.466 394.023 313.466 393.244C313.466 392.412 313.743 391.777 314.298 391.34C314.863 390.903 315.647 390.684 316.65 390.684H318.794V392.06H317.226C316.511 392.06 316.01 392.161 315.722 392.364C315.434 392.556 315.29 392.833 315.29 393.196C315.29 393.505 315.413 393.751 315.658 393.932C315.914 394.103 316.266 394.188 316.714 394.188C317.119 394.188 317.471 394.097 317.77 393.916C318.069 393.735 318.298 393.495 318.458 393.196C318.629 392.897 318.714 392.561 318.714 392.188H319.242C319.242 393.276 319.023 394.135 318.586 394.764C318.149 395.383 317.45 395.692 316.49 395.692ZM322.417 395.5V387.5H324.193V395.5H322.417ZM323.312 385.98C323.025 385.98 322.774 385.879 322.561 385.676C322.358 385.463 322.257 385.212 322.257 384.924C322.257 384.636 322.358 384.391 322.561 384.188C322.774 383.985 323.025 383.884 323.312 383.884C323.601 383.884 323.846 383.985 324.049 384.188C324.262 384.391 324.369 384.636 324.369 384.924C324.369 385.212 324.262 385.463 324.049 385.676C323.846 385.879 323.601 385.98 323.312 385.98ZM326.305 395.5V384.3H328.097V395.5H326.305ZM330.95 395.724C330.64 395.724 330.374 395.617 330.15 395.404C329.936 395.18 329.83 394.913 329.83 394.604C329.83 394.295 329.936 394.028 330.15 393.804C330.374 393.58 330.64 393.468 330.95 393.468C331.259 393.468 331.526 393.58 331.75 393.804C331.974 394.028 332.086 394.295 332.086 394.604C332.086 394.913 331.974 395.18 331.75 395.404C331.526 395.617 331.259 395.724 330.95 395.724ZM337.549 395.692C336.727 395.692 336.002 395.516 335.373 395.164C334.743 394.801 334.247 394.305 333.885 393.676C333.533 393.047 333.357 392.321 333.357 391.5C333.357 390.679 333.533 389.953 333.885 389.324C334.247 388.695 334.738 388.204 335.357 387.852C335.986 387.489 336.706 387.308 337.516 387.308C338.306 387.308 339.021 387.5 339.661 387.884C340.301 388.257 340.775 388.796 341.085 389.5L339.421 390.14C339.25 389.788 338.989 389.505 338.637 389.292C338.285 389.079 337.885 388.972 337.437 388.972C336.999 388.972 336.61 389.084 336.269 389.308C335.927 389.521 335.661 389.82 335.469 390.204C335.277 390.577 335.181 391.009 335.181 391.5C335.181 391.991 335.277 392.428 335.469 392.812C335.671 393.185 335.943 393.484 336.285 393.708C336.637 393.921 337.031 394.028 337.469 394.028C337.917 394.028 338.317 393.916 338.669 393.692C339.021 393.457 339.282 393.143 339.453 392.748L341.117 393.388C340.807 394.113 340.333 394.679 339.693 395.084C339.063 395.489 338.349 395.692 337.549 395.692ZM346.188 395.692C345.388 395.692 344.673 395.516 344.044 395.164C343.425 394.801 342.94 394.305 342.588 393.676C342.236 393.047 342.06 392.321 342.06 391.5C342.06 390.679 342.23 389.953 342.572 389.324C342.924 388.695 343.409 388.204 344.028 387.852C344.646 387.489 345.356 387.308 346.156 387.308C346.956 387.308 347.665 387.489 348.284 387.852C348.902 388.204 349.382 388.695 349.724 389.324C350.076 389.953 350.252 390.679 350.252 391.5C350.252 392.321 350.081 393.047 349.74 393.676C349.398 394.305 348.918 394.801 348.3 395.164C347.681 395.516 346.977 395.692 346.188 395.692ZM346.188 394.044C346.625 394.044 347.014 393.937 347.356 393.724C347.697 393.5 347.964 393.201 348.156 392.828C348.348 392.444 348.444 392.001 348.444 391.5C348.444 390.999 348.342 390.561 348.14 390.188C347.948 389.804 347.681 389.505 347.34 389.292C346.998 389.068 346.604 388.956 346.156 388.956C345.708 388.956 345.313 389.063 344.972 389.276C344.63 389.489 344.364 389.788 344.172 390.172C343.98 390.556 343.884 390.999 343.884 391.5C343.884 392.001 343.98 392.444 344.172 392.828C344.374 393.201 344.646 393.5 344.988 393.724C345.34 393.937 345.74 394.044 346.188 394.044ZM351.805 395.5V387.5H353.485L353.565 388.572C353.81 388.156 354.125 387.841 354.509 387.628C354.893 387.415 355.33 387.308 355.821 387.308C356.461 387.308 357.005 387.452 357.453 387.74C357.901 388.028 358.226 388.465 358.429 389.052C358.663 388.487 358.994 388.055 359.421 387.756C359.847 387.457 360.349 387.308 360.925 387.308C361.853 387.308 362.567 387.607 363.069 388.204C363.57 388.791 363.815 389.697 363.805 390.924V395.5H362.029V391.404C362.029 390.764 361.959 390.273 361.821 389.932C361.682 389.58 361.495 389.335 361.261 389.196C361.026 389.057 360.754 388.988 360.445 388.988C359.89 388.977 359.458 389.175 359.149 389.58C358.85 389.985 358.701 390.567 358.701 391.324V395.5H356.909V391.404C356.909 390.764 356.839 390.273 356.701 389.932C356.573 389.58 356.391 389.335 356.157 389.196C355.922 389.057 355.65 388.988 355.341 388.988C354.786 388.977 354.354 389.175 354.045 389.58C353.746 389.985 353.597 390.567 353.597 391.324V395.5H351.805Z" fill="black"/>
</g>
<defs>
<clipPath id="clip0_1743_21396">
<rect width="550" height="729" fill="white"/>
</clipPath>
<clipPath id="clip1_1743_21396">
<rect width="1440" height="729" fill="white"/>
</clipPath>
</defs>
</svg>
