<svg width="110" height="73" viewBox="0 0 110 73" fill="none" xmlns="http://www.w3.org/2000/svg">
<path fill-rule="evenodd" clip-rule="evenodd" d="M27.5366 26.591C29.6304 26.591 31.7046 26.9621 33.6655 27.6926L32.7436 29.4426H32.7475C29.0014 28.1028 24.8803 28.2473 21.2395 29.8489C17.595 31.4466 14.7004 34.38 13.1536 38.048C11.6028 41.7121 11.5169 45.8333 12.9075 49.5601C14.2981 53.2867 17.0637 56.3413 20.6341 58.0992C24.2083 59.8531 28.3138 60.1734 32.1141 58.9937C35.9149 57.8179 39.1219 55.2281 41.075 51.7632L43.075 52.1733C41.1609 55.8686 37.9891 58.7631 34.1297 60.3374C30.2742 61.9077 25.9813 62.0522 22.0247 60.7476C18.0716 59.4429 14.7122 56.7671 12.5481 53.2085C10.384 49.646 9.55982 45.4351 10.2239 41.3215C10.888 37.2082 12.9934 33.466 16.1692 30.7665C19.3411 28.0673 23.3727 26.5871 27.5366 26.591ZM16.4276 47.091C16.2987 46.6066 16.201 46.1105 16.1385 45.6105C16.0682 45.1144 16.037 44.6144 16.037 44.1105C16.0604 43.8996 15.994 43.6925 15.8534 43.5324C15.7167 43.3761 15.5135 43.2863 15.3026 43.2863C15.0917 43.2863 14.8885 43.3761 14.7479 43.5324C14.6073 43.6925 14.5448 43.8996 14.5682 44.1105C14.5682 44.6769 14.6073 45.2394 14.6893 45.8019C14.7557 46.3605 14.8651 46.9152 15.0174 47.4621C15.0643 47.6496 15.1854 47.8098 15.3534 47.9074C15.5213 48.0051 15.7206 48.0324 15.9081 47.9816C16.0956 47.9387 16.2596 47.8176 16.3573 47.6496C16.4588 47.4777 16.4823 47.2785 16.4276 47.091ZM16.3182 41.5793C16.6346 40.1496 17.2245 38.7902 18.0565 37.5793C18.8807 36.3762 19.9276 35.341 21.1385 34.5324C21.4705 34.3058 21.5604 33.8488 21.3338 33.5168C21.1073 33.1809 20.6502 33.0949 20.3182 33.3215C17.5604 35.1731 15.619 38.0129 14.8885 41.2512C14.8455 41.4426 14.8768 41.6418 14.9784 41.8059C15.0838 41.9699 15.2479 42.0871 15.4393 42.1301C15.8338 42.2239 16.2245 41.9777 16.3182 41.5793ZM82.4982 56.4503C82.7091 56.4269 82.9162 56.4933 83.0763 56.6339C83.2326 56.7745 83.3224 56.9737 83.3224 57.1847C83.3224 57.3956 83.2326 57.5987 83.0763 57.7394C82.9162 57.88 82.7091 57.9464 82.4982 57.923C80.8615 57.923 79.2443 57.6104 77.7287 57.0011C77.549 56.9308 77.4045 56.794 77.3264 56.6183C77.2482 56.4386 77.2443 56.2393 77.3186 56.0597C77.385 55.8644 77.5334 55.7081 77.7248 55.63C77.9162 55.5519 78.1311 55.5597 78.3186 55.6495C79.6624 56.1847 81.0998 56.4542 82.5491 56.4503L82.4982 56.4503ZM76.0373 54.4503C76.3732 54.6769 76.4592 55.1339 76.2326 55.4659C76.0061 55.8018 75.5529 55.8878 75.217 55.6612C72.4279 53.7745 70.4865 50.8721 69.8068 47.5714C69.7287 47.1769 69.9826 46.7902 70.3771 46.712C70.5685 46.6691 70.7677 46.7081 70.9279 46.8136C71.0881 46.923 71.2013 47.0909 71.2365 47.2823C71.8459 50.2003 73.5568 52.7746 76.0177 54.4621L76.0373 54.4503ZM50.9083 45.1808C51.4903 45.1847 52.0489 45.4152 52.4591 45.8292C52.8732 46.2433 53.1075 46.8019 53.1075 47.3878C53.1075 47.9699 52.8732 48.5284 52.4591 48.9425C52.2247 49.173 51.9474 49.3488 51.6388 49.4621V54.5715H52.3888C52.7599 54.6144 53.0411 54.9308 53.0411 55.3058C53.0411 55.6808 52.7599 55.9973 52.3888 56.0402H49.3888C49.0138 55.9973 48.7325 55.6808 48.7325 55.3058C48.7325 54.9308 49.0138 54.6144 49.3888 54.5715H50.1271V49.4621C49.8185 49.3488 49.5372 49.173 49.3068 48.9425C48.4552 48.0793 48.4552 46.6925 49.3068 45.8292C49.7208 45.4191 50.2833 45.1847 50.8693 45.1808H50.9083ZM82.4983 41.5792C83.3967 41.5831 84.2561 41.9425 84.8889 42.5792C86.1545 43.9151 86.1155 46.0167 84.803 47.3058C83.4905 48.5949 81.3889 48.591 80.0764 47.3019C79.4397 46.673 79.0803 45.8175 79.0764 44.923C79.0725 44.8253 79.0725 44.7277 79.0764 44.63C79.6858 45.2902 80.3069 45.9308 80.9358 46.5206H80.9397C81.3576 46.9581 81.9358 47.2003 82.5413 47.1964C83.1428 47.1925 83.721 46.9386 84.1311 46.4972C84.5451 46.0558 84.7561 45.466 84.7209 44.8644C84.6819 44.2589 84.4006 43.7003 83.9397 43.3097C83.3498 42.7589 82.7678 42.1691 82.2014 41.548L82.4983 41.5792ZM29.9283 46.4894L46.7483 49.9308C46.2717 49.1652 46.0178 48.2824 46.0178 47.38C46.0178 46.0909 46.5335 44.8527 47.4475 43.9425C47.5178 43.8644 47.596 43.7902 47.678 43.7198L30.448 42.419V42.4229C30.7449 42.9347 30.9011 43.5167 30.8972 44.1104C30.8933 45.005 30.5339 45.8604 29.8972 46.4893L29.9283 46.4894ZM48.7093 51.8175V50.3175V50.3214C48.5726 50.2159 48.4398 50.1027 48.3187 49.9816C46.889 48.5441 46.889 46.2277 48.3187 44.7902C49.7484 43.3644 52.0648 43.3644 53.4984 44.7902C54.1898 45.4777 54.5765 46.4113 54.5765 47.3879C54.5765 48.3605 54.1898 49.2941 53.4984 49.9817C53.3734 50.1028 53.2445 50.216 53.1078 50.3215V51.7434V51.7395C53.5453 51.5129 53.9515 51.2239 54.307 50.8801H54.3577C55.7171 49.5246 56.1546 47.4973 55.471 45.7004C54.7875 43.9074 53.1155 42.6809 51.1976 42.5715L28.0176 40.7707C27.8536 40.7551 27.6895 40.7551 27.5294 40.7707C26.6309 40.7707 25.7677 41.1301 25.1388 41.7707C23.8458 43.0832 23.8458 45.1887 25.1388 46.5012C25.7521 47.1223 26.5841 47.4817 27.4591 47.5012L48.6971 51.841L48.7093 51.8175ZM27.8383 42.2511H27.518C27.018 42.2472 26.5375 42.4503 26.1899 42.8097C25.8266 43.1652 25.6235 43.6534 25.6274 44.1613C25.6274 44.6496 25.8149 45.1183 26.1469 45.4699C26.5024 45.8332 26.9907 46.0363 27.4985 46.0324C27.9868 46.0324 28.4556 45.8449 28.8071 45.5129C29.5415 44.7629 29.5415 43.5676 28.8071 42.8215C28.5493 42.5402 28.2094 42.3409 27.8383 42.2511ZM29.1899 39.4113L30.7797 39.5324L38.9516 23.9624L46.9516 40.7514L48.6313 40.8803L40.2875 23.3413L67.4285 23.5913L68.4285 25.4429L68.8699 26.271L69.4207 27.271L54.7687 42.353C54.9874 42.5171 55.1945 42.7007 55.3898 42.8999C55.5421 43.0483 55.6867 43.2046 55.8195 43.3726L70.1285 28.6496C73.7496 35.2512 77.7691 41.5326 82.0195 45.4896C82.3164 45.7669 82.7773 45.7513 83.0547 45.4544C83.332 45.1614 83.3164 44.6966 83.0195 44.4232C78.4883 40.1849 74.1484 33.0712 70.3005 25.8532L69.7693 24.8532C68.0505 21.5915 66.4295 18.3337 64.9412 15.3337L64.5115 14.4548L66.4099 12.5329C66.6677 12.2477 66.6677 11.8141 66.4099 11.5329L65.3591 10.2517C65.1364 9.99778 64.7692 9.92747 64.4685 10.0798L62.6873 11.0017H62.6169C61.5661 11.5915 59.2458 11.5408 57.8669 11.5134H57.8709C57.4646 11.5134 57.1404 11.8376 57.1404 12.24C57.1404 12.6462 57.4646 12.9704 57.8709 12.9704C59.4021 12.9704 61.9803 13.072 63.3904 12.2595L64.6521 11.6111L64.9021 11.9001L63.1209 13.7009C63.0584 13.7595 63.0076 13.8259 62.9685 13.9001V13.99C62.9412 14.115 62.9412 14.2478 62.9685 14.3728L63.6287 15.7009C64.6287 17.7009 65.6287 19.7009 66.7068 21.8611L39.6048 21.6111L38.4759 19.24L36.9759 19.49L38.1673 22.2517L29.1673 39.3537L29.1899 39.4113ZM32.018 15.4623H42.139C42.307 15.4623 42.471 15.5287 42.5921 15.6498C42.7093 15.767 42.7796 15.931 42.7796 16.1029V16.7514C42.7835 17.0639 42.557 17.3334 42.2484 17.3803L32.0764 19.0795C31.8889 19.1146 31.6975 19.0599 31.5568 18.931C31.4123 18.8138 31.3303 18.6381 31.3381 18.4506V16.1029C31.3381 15.7513 31.6193 15.4661 31.967 15.4622L32.018 15.4623ZM44.569 47.2513C44.5807 46.763 44.6471 46.2747 44.7682 45.8021L32.3772 44.0521V44.1107C32.3772 44.5638 32.3108 45.0169 32.1897 45.4505L32.8499 45.5911L44.569 47.2513ZM27.647 43.681H27.4868C27.3775 43.6849 27.272 43.7357 27.2017 43.8177C27.1275 43.9037 27.0884 44.0091 27.0962 44.1224C27.0962 44.2201 27.1275 44.3138 27.19 44.3919C27.2759 44.474 27.3892 44.5209 27.5064 44.5209C27.604 44.5248 27.7017 44.4935 27.7798 44.431C27.9478 44.2552 27.9478 43.9779 27.7798 43.8021C27.7212 43.7513 27.6509 43.7123 27.5767 43.6927L27.647 43.681ZM82.499 27.443C79.5302 27.4352 76.6123 28.1891 74.0185 29.6305C74.3388 30.1891 74.6591 30.7594 75.0185 31.3219C79.663 28.7633 85.2845 28.7477 89.9445 31.2711C94.6047 33.7945 97.6633 38.5172 98.0578 43.8021C98.4484 49.0873 96.1281 54.2121 91.8937 57.4001C87.6593 60.5881 82.0929 61.404 77.1237 59.5603C72.151 57.7205 68.4596 53.4783 67.3229 48.3023C66.1823 43.1265 67.7565 37.7283 71.4987 33.9703C71.1471 33.3922 70.819 32.8101 70.4987 32.232L70.1589 32.5719C66.3073 36.4235 64.4636 41.8453 65.1745 47.2479C65.8854 52.6505 69.069 57.4119 73.7878 60.1349C78.5026 62.8576 84.2218 63.2326 89.2528 61.1466C94.284 59.0607 98.0614 54.756 99.4678 49.4946C100.878 44.2329 99.7607 38.6116 96.4405 34.2916C93.1241 29.9713 87.9874 27.44 82.5385 27.4439L82.499 27.443ZM37.558 29.7438L36.6361 31.4938L36.64 31.4899C37.3119 31.9782 37.9486 32.5172 38.5384 33.1032C40.5501 35.1149 41.972 37.6384 42.6478 40.4001L44.6478 40.5485V40.5524C44.4213 39.4469 44.0853 38.3649 43.6478 37.3219L43.0189 35.8922C41.7103 33.443 39.8431 31.3336 37.5697 29.7399L37.558 29.7438Z" fill="black"/>
</svg>
