<svg width="158" height="33" viewBox="0 0 158 33" fill="none" xmlns="http://www.w3.org/2000/svg">
<path d="M119.054 21.7401C118.807 21.7401 118.744 21.5995 118.91 21.4179L121.527 18.4636C121.693 18.2776 121.953 17.969 122.114 17.7784L126.82 12.0785C126.992 11.8456 127.092 11.5659 127.107 11.2753V8.39815C127.107 8.27779 127.059 8.16236 126.975 8.07725C126.891 7.99215 126.777 7.94434 126.658 7.94434H113.053C112.934 7.94434 112.82 7.99215 112.736 8.07725C112.652 8.16236 112.605 8.27779 112.605 8.39815V11.8789C112.605 11.9992 112.652 12.1147 112.736 12.1998C112.82 12.2849 112.934 12.3327 113.053 12.3327H116.19L120.156 12.2828C120.402 12.2828 120.47 12.4234 120.299 12.605L117.682 15.5593C117.521 15.7453 117.257 16.0539 117.095 16.2491L112.381 21.9444C112.209 22.1773 112.109 22.457 112.094 22.7476V25.6202C112.094 25.7406 112.141 25.856 112.225 25.9411C112.309 26.0262 112.423 26.074 112.542 26.074H126.694C126.813 26.074 126.927 26.0262 127.011 25.9411C127.095 25.856 127.142 25.7406 127.142 25.6202V22.144C127.142 22.0237 127.095 21.9083 127.011 21.8231C126.927 21.738 126.813 21.6902 126.694 21.6902H123.002L119.054 21.7401Z" fill="#121212"/>
<path d="M135.487 7.94434H130.943C130.695 7.94434 130.494 8.14751 130.494 8.39815V25.6293C130.494 25.8799 130.695 26.0831 130.943 26.0831H135.487C135.734 26.0831 135.935 25.8799 135.935 25.6293V8.39815C135.935 8.14751 135.734 7.94434 135.487 7.94434Z" fill="#121212"/>
<path d="M105.211 26.0743C105.074 26.067 104.94 26.0305 104.818 25.9672C104.696 25.9038 104.588 25.815 104.502 25.7067L97.9418 16.2266C97.8118 16.0178 97.7087 16.0496 97.7222 16.2992L97.8566 25.6204C97.8566 25.7408 97.8094 25.8562 97.7254 25.9413C97.6413 26.0264 97.5273 26.0743 97.4085 26.0743H93.5455C93.4267 26.0743 93.3127 26.0264 93.2287 25.9413C93.1446 25.8562 93.0974 25.7408 93.0974 25.6204V8.37568C93.0974 8.25533 93.1446 8.1399 93.2287 8.05479C93.3127 7.96969 93.4267 7.92188 93.5455 7.92188H97.0231C97.1607 7.92979 97.2953 7.96607 97.4186 8.0285C97.5419 8.09093 97.6513 8.17818 97.7401 8.28492L103.96 17.1751C104.095 17.3883 104.189 17.3566 104.18 17.107L104.045 8.37568C104.045 8.25533 104.093 8.1399 104.177 8.05479C104.261 7.96969 104.375 7.92188 104.494 7.92188H108.356C108.475 7.92188 108.589 7.96969 108.673 8.05479C108.757 8.1399 108.805 8.25533 108.805 8.37568V25.6204C108.805 25.7408 108.757 25.8562 108.673 25.9413C108.589 26.0264 108.475 26.0743 108.356 26.0743H105.211Z" fill="#121212"/>
<path d="M73.182 7.94434H56.9281C56.8093 7.94434 56.6953 7.99215 56.6112 8.07725C56.5272 8.16236 56.48 8.27779 56.48 8.39815V12.1602C56.48 12.2806 56.5272 12.396 56.6112 12.4811C56.6953 12.5662 56.8093 12.614 56.9281 12.614H61.8845C62.0034 12.614 62.1173 12.6618 62.2014 12.747C62.2854 12.8321 62.3326 12.9475 62.3326 13.0678V25.6202C62.3326 25.7406 62.3799 25.856 62.4639 25.9411C62.5479 26.0262 62.6619 26.074 62.7808 26.074H67.3249C67.4437 26.074 67.5577 26.0262 67.6418 25.9411C67.7258 25.856 67.773 25.7406 67.773 25.6202V13.0678C67.773 12.9475 67.8202 12.8321 67.9043 12.747C67.9883 12.6618 68.1023 12.614 68.2212 12.614H73.182C73.3009 12.614 73.4149 12.5662 73.4989 12.4811C73.583 12.396 73.6302 12.2806 73.6302 12.1602V8.39815C73.6302 8.27779 73.583 8.16236 73.4989 8.07725C73.4149 7.99215 73.3009 7.94434 73.182 7.94434Z" fill="#121212"/>
<path d="M154.456 25.6806L151.767 20.4482L151.212 19.3726C151.171 19.3 151.144 19.2456 151.131 19.2138C151.125 19.2035 151.122 19.1917 151.122 19.1798C151.122 19.1678 151.125 19.1561 151.131 19.1457C151.131 19.1457 151.198 19.064 151.274 18.9869C151.274 18.9869 151.678 18.5603 152.171 17.9204C153.071 16.8195 153.563 15.4338 153.56 14.0041C153.569 12.5533 153.061 11.1479 152.128 10.047C151.195 8.94611 149.9 8.22398 148.482 8.01379C148.285 7.9911 148.088 7.97748 147.882 7.96387H147.837C147.6 7.96387 147.358 7.96387 147.111 7.96387H139.748C139.629 7.96387 139.515 8.01168 139.431 8.09678C139.347 8.18189 139.3 8.29732 139.3 8.41768V25.6216C139.3 25.742 139.347 25.8574 139.431 25.9425C139.515 26.0276 139.629 26.0754 139.748 26.0754H143.737C143.855 26.0754 143.969 26.0276 144.053 25.9425C144.138 25.8574 144.185 25.742 144.185 25.6216V20.1759C144.186 20.1161 144.21 20.059 144.252 20.0167C144.293 19.9744 144.35 19.9501 144.409 19.949H145.941C146.008 19.9535 146.072 19.9745 146.128 20.0101C146.184 20.0458 146.231 20.0949 146.264 20.1532L147.057 21.8277L148.881 25.6488C148.945 25.7671 149.038 25.8667 149.151 25.9382C149.264 26.0097 149.393 26.0507 149.527 26.0573H154.183C154.231 26.0711 154.282 26.0696 154.33 26.0531C154.377 26.0366 154.419 26.0058 154.448 25.9649C154.478 25.9239 154.495 25.8748 154.496 25.824C154.497 25.7732 154.483 25.7231 154.456 25.6806ZM146.838 16.0008H144.221C144.175 15.9997 144.131 15.9807 144.098 15.9477C144.066 15.9148 144.047 15.8704 144.046 15.8238V12.2614C144.047 12.2149 144.066 12.1705 144.098 12.1376C144.131 12.1046 144.175 12.0856 144.221 12.0845H146.909C148.406 12.0845 148.993 12.8786 148.993 14.0041C149.007 15.2838 148.393 16.0008 146.838 16.0008Z" fill="#121212"/>
<path d="M89.6645 21.5632H81.3337C81.2861 21.5632 81.2405 21.544 81.2069 21.51C81.1733 21.476 81.1544 21.4298 81.1544 21.3816V19.0854C81.1555 19.0376 81.1748 18.9921 81.2082 18.9583C81.2415 18.9245 81.2865 18.905 81.3337 18.9038H85.9853C86.1042 18.9038 86.2182 18.856 86.3022 18.7709C86.3862 18.6858 86.4335 18.5704 86.4335 18.45V14.8876C86.4335 14.7673 86.3862 14.6518 86.3022 14.5667C86.2182 14.4816 86.1042 14.4338 85.9853 14.4338H81.3337C81.2861 14.4338 81.2405 14.4147 81.2069 14.3806C81.1733 14.3466 81.1544 14.3004 81.1544 14.2523V12.6413C81.1556 12.5939 81.175 12.5489 81.2085 12.5158C81.2419 12.4828 81.2869 12.4643 81.3337 12.4643H89.4763C89.5952 12.4643 89.7091 12.4165 89.7932 12.3314C89.8772 12.2463 89.9244 12.1308 89.9244 12.0105V8.39815C89.9244 8.27779 89.8772 8.16236 89.7932 8.07725C89.7091 7.99215 89.5952 7.94434 89.4763 7.94434H76.3056C76.1867 7.94434 76.0727 7.99215 75.9887 8.07725C75.9046 8.16236 75.8574 8.27779 75.8574 8.39815V25.6202C75.8574 25.7406 75.9046 25.856 75.9887 25.9411C76.0727 26.0262 76.1867 26.074 76.3056 26.074H89.6645C89.7834 26.074 89.8974 26.0262 89.9814 25.9411C90.0654 25.856 90.1127 25.7406 90.1127 25.6202V22.017C90.1127 21.9574 90.1011 21.8984 90.0785 21.8433C90.056 21.7882 90.023 21.7382 89.9814 21.6961C89.9398 21.6539 89.8904 21.6205 89.836 21.5977C89.7816 21.5749 89.7234 21.5632 89.6645 21.5632Z" fill="#121212"/>
<path d="M15.0856 20.8325L21.0503 6.56022C21.0758 6.50387 21.0896 6.44283 21.0909 6.38086C21.0922 6.31889 21.081 6.2573 21.0579 6.1999C21.0348 6.1425 21.0003 6.0905 20.9566 6.0471C20.9129 6.0037 20.8609 5.96983 20.8038 5.94757C20.7468 5.92426 20.686 5.91195 20.6245 5.91127H6.04215C5.94715 5.90452 5.85249 5.92859 5.77191 5.98C5.69133 6.03141 5.62902 6.10748 5.59401 6.19717L3.27715 11.8516C3.25248 11.908 3.23943 11.9689 3.23879 12.0306C3.23815 12.0923 3.24994 12.1535 3.27342 12.2104C3.29691 12.2673 3.33161 12.3187 3.3754 12.3616C3.41918 12.4045 3.47114 12.4379 3.5281 12.4597C3.58337 12.4836 3.6428 12.4959 3.70288 12.496H10.7655C10.8844 12.496 10.9984 12.5439 11.0824 12.629C11.1664 12.7141 11.2137 12.8295 11.2137 12.9499C11.213 13.0121 11.2008 13.0737 11.1778 13.1314L5.28928 27.4808C5.26389 27.5375 5.25026 27.5988 5.24925 27.661C5.24823 27.7232 5.25985 27.7849 5.28339 27.8423C5.30692 27.8998 5.34186 27.9517 5.38605 27.9949C5.43023 28.0381 5.48272 28.0717 5.54024 28.0935C5.5955 28.1173 5.65494 28.1297 5.71501 28.1298H21.1713C21.2668 28.1362 21.3618 28.1115 21.4425 28.0592C21.5231 28.0069 21.5851 27.9299 21.6194 27.8393L23.9587 22.1304C23.9806 22.0733 23.991 22.0123 23.989 21.9511C23.9871 21.8898 23.9729 21.8296 23.9474 21.774C23.9218 21.7185 23.8854 21.6688 23.8404 21.6278C23.7954 21.5869 23.7426 21.5556 23.6853 21.5359C23.63 21.5121 23.5706 21.4997 23.5105 21.4996H15.5068C15.3879 21.4996 15.274 21.4518 15.1899 21.3667C15.1059 21.2816 15.0587 21.1662 15.0587 21.0458C15.0522 20.9736 15.0614 20.9008 15.0856 20.8325Z" fill="#121212"/>
<path d="M18.5409 19.5437H24.6849C24.7761 19.5456 24.8658 19.5193 24.9419 19.4682C25.018 19.4171 25.0768 19.3437 25.1106 19.2578L27.7994 12.7865C27.8332 12.7006 27.892 12.6272 27.9681 12.5761C28.0442 12.525 28.1339 12.4987 28.2251 12.5006H36.1482C36.2432 12.5073 36.3379 12.4833 36.4184 12.4319C36.499 12.3804 36.5613 12.3044 36.5963 12.2147L38.8908 6.56022C38.9162 6.50359 38.9298 6.44227 38.9308 6.38008C38.9318 6.3179 38.9202 6.25616 38.8967 6.19871C38.8732 6.14126 38.8382 6.08932 38.794 6.04612C38.7498 6.00292 38.6974 5.96938 38.6398 5.94757C38.5846 5.92373 38.5251 5.91139 38.4651 5.91127H23.7617C23.6667 5.90452 23.572 5.92859 23.4914 5.98C23.4109 6.03141 23.3486 6.10748 23.3136 6.19717L18.0928 18.9038C18.0673 18.9602 18.0534 19.0212 18.0521 19.0832C18.0508 19.1452 18.062 19.2067 18.0851 19.2642C18.1082 19.3216 18.1427 19.3736 18.1864 19.417C18.2301 19.4604 18.2821 19.4942 18.3392 19.5165C18.4039 19.5397 18.4725 19.5489 18.5409 19.5437Z" fill="#121212"/>
<path d="M47.1679 29.7503C47.1009 29.7491 47.0371 29.7213 46.9901 29.673C46.9432 29.6246 46.9169 29.5595 46.9169 29.4916V4.53212C46.9121 4.49558 46.9151 4.45843 46.9256 4.42315C46.9361 4.38786 46.9539 4.35527 46.9779 4.32754C47.0019 4.29981 47.0314 4.27758 47.0646 4.26236C47.0977 4.24713 47.1337 4.23926 47.1701 4.23926C47.2065 4.23926 47.2425 4.24713 47.2756 4.26236C47.3088 4.27758 47.3383 4.29981 47.3623 4.32754C47.3863 4.35527 47.4041 4.38786 47.4146 4.42315C47.4252 4.45843 47.4281 4.49558 47.4233 4.53212V29.4916C47.4233 29.5602 47.3964 29.626 47.3485 29.6745C47.3006 29.7231 47.2356 29.7503 47.1679 29.7503Z" fill="#121212"/>
</svg>
